<svg width="1318" height="186" viewBox="0 0 1318 186" fill="none" xmlns="http://www.w3.org/2000/svg">
<rect width="1318" height="186" fill="#2390DE" fill-opacity="0.1"/>
<path d="M778.5 22.5H965.5V82.5H778.5V22.5Z" fill="white" stroke="white"/>
<path d="M829.57 56.2695H831.938V58.0391H829.57V62H827.391V58.0391H819.621V56.7617L827.262 44.9375H829.57V56.2695ZM822.082 56.2695H827.391V47.9023L827.133 48.3711L822.082 56.2695ZM847.453 58.6367C847.453 58.0508 847.23 57.5977 846.785 57.2773C846.348 56.9492 845.578 56.668 844.477 56.4336C843.383 56.1992 842.512 55.918 841.863 55.5898C841.223 55.2617 840.746 54.8711 840.434 54.418C840.129 53.9648 839.977 53.4258 839.977 52.8008C839.977 51.7617 840.414 50.8828 841.289 50.1641C842.172 49.4453 843.297 49.0859 844.664 49.0859C846.102 49.0859 847.266 49.457 848.156 50.1992C849.055 50.9414 849.504 51.8906 849.504 53.0469H847.324C847.324 52.4531 847.07 51.9414 846.562 51.5117C846.062 51.082 845.43 50.8672 844.664 50.8672C843.875 50.8672 843.258 51.0391 842.812 51.3828C842.367 51.7266 842.145 52.1758 842.145 52.7305C842.145 53.2539 842.352 53.6484 842.766 53.9141C843.18 54.1797 843.926 54.4336 845.004 54.6758C846.09 54.918 846.969 55.207 847.641 55.543C848.312 55.8789 848.809 56.2852 849.129 56.7617C849.457 57.2305 849.621 57.8047 849.621 58.4844C849.621 59.6172 849.168 60.5273 848.262 61.2148C847.355 61.8945 846.18 62.2344 844.734 62.2344C843.719 62.2344 842.82 62.0547 842.039 61.6953C841.258 61.3359 840.645 60.8359 840.199 60.1953C839.762 59.5469 839.543 58.8477 839.543 58.0977H841.711C841.75 58.8242 842.039 59.4023 842.578 59.832C843.125 60.2539 843.844 60.4648 844.734 60.4648C845.555 60.4648 846.211 60.3008 846.703 59.9727C847.203 59.6367 847.453 59.1914 847.453 58.6367ZM860.273 62C860.148 61.75 860.047 61.3047 859.969 60.6641C858.961 61.7109 857.758 62.2344 856.359 62.2344C855.109 62.2344 854.082 61.8828 853.277 61.1797C852.48 60.4688 852.082 59.5703 852.082 58.4844C852.082 57.1641 852.582 56.1406 853.582 55.4141C854.59 54.6797 856.004 54.3125 857.824 54.3125H859.934V53.3164C859.934 52.5586 859.707 51.957 859.254 51.5117C858.801 51.0586 858.133 50.832 857.25 50.832C856.477 50.832 855.828 51.0273 855.305 51.418C854.781 51.8086 854.52 52.2812 854.52 52.8359H852.34C852.34 52.2031 852.562 51.5938 853.008 51.0078C853.461 50.4141 854.07 49.9453 854.836 49.6016C855.609 49.2578 856.457 49.0859 857.379 49.0859C858.84 49.0859 859.984 49.4531 860.812 50.1875C861.641 50.9141 862.07 51.918 862.102 53.1992V59.0352C862.102 60.1992 862.25 61.125 862.547 61.8125V62H860.273ZM856.676 60.3477C857.355 60.3477 858 60.1719 858.609 59.8203C859.219 59.4688 859.66 59.0117 859.934 58.4492V55.8477H858.234C855.578 55.8477 854.25 56.625 854.25 58.1797C854.25 58.8594 854.477 59.3906 854.93 59.7734C855.383 60.1562 855.965 60.3477 856.676 60.3477ZM864.926 55.543C864.926 54.3008 865.168 53.1836 865.652 52.1914C866.145 51.1992 866.824 50.4336 867.691 49.8945C868.566 49.3555 869.562 49.0859 870.68 49.0859C872.406 49.0859 873.801 49.6836 874.863 50.8789C875.934 52.0742 876.469 53.6641 876.469 55.6484V55.8008C876.469 57.0352 876.23 58.1445 875.754 59.1289C875.285 60.1055 874.609 60.8672 873.727 61.4141C872.852 61.9609 871.844 62.2344 870.703 62.2344C868.984 62.2344 867.59 61.6367 866.52 60.4414C865.457 59.2461 864.926 57.6641 864.926 55.6953V55.543ZM867.105 55.8008C867.105 57.207 867.43 58.3359 868.078 59.1875C868.734 60.0391 869.609 60.4648 870.703 60.4648C871.805 60.4648 872.68 60.0352 873.328 59.1758C873.977 58.3086 874.301 57.0977 874.301 55.543C874.301 54.1523 873.969 53.0273 873.305 52.168C872.648 51.3008 871.773 50.8672 870.68 50.8672C869.609 50.8672 868.746 51.293 868.09 52.1445C867.434 52.9961 867.105 54.2148 867.105 55.8008ZM885.059 55.0742C885.059 53.3086 885.293 51.6133 885.762 49.9883C886.238 48.3633 886.945 46.8867 887.883 45.5586C888.82 44.2305 889.793 43.293 890.801 42.7461L891.246 44.1758C890.105 45.0508 889.168 46.3867 888.434 48.1836C887.707 49.9805 887.309 51.9922 887.238 54.2188L887.227 55.2148C887.227 58.2305 887.777 60.8477 888.879 63.0664C889.543 64.3945 890.332 65.4336 891.246 66.1836L890.801 67.5078C889.762 66.9297 888.77 65.9609 887.824 64.6016C885.98 61.9453 885.059 58.7695 885.059 55.0742ZM904.301 62H893.121V60.4414L899.027 53.8789C899.902 52.8867 900.504 52.082 900.832 51.4648C901.168 50.8398 901.336 50.1953 901.336 49.5312C901.336 48.6406 901.066 47.9102 900.527 47.3398C899.988 46.7695 899.27 46.4844 898.371 46.4844C897.293 46.4844 896.453 46.793 895.852 47.4102C895.258 48.0195 894.961 48.8711 894.961 49.9648H892.793C892.793 48.3945 893.297 47.125 894.305 46.1562C895.32 45.1875 896.676 44.7031 898.371 44.7031C899.957 44.7031 901.211 45.1211 902.133 45.957C903.055 46.7852 903.516 47.8906 903.516 49.2734C903.516 50.9531 902.445 52.9531 900.305 55.2734L895.734 60.2305H904.301V62ZM917.297 54.7227C917.297 57.2617 916.863 59.1484 915.996 60.3828C915.129 61.6172 913.773 62.2344 911.93 62.2344C910.109 62.2344 908.762 61.6328 907.887 60.4297C907.012 59.2188 906.559 57.4141 906.527 55.0156V52.1211C906.527 49.6133 906.961 47.75 907.828 46.5312C908.695 45.3125 910.055 44.7031 911.906 44.7031C913.742 44.7031 915.094 45.293 915.961 46.4727C916.828 47.6445 917.273 49.457 917.297 51.9102V54.7227ZM915.129 51.7578C915.129 49.9219 914.871 48.5859 914.355 47.75C913.84 46.9062 913.023 46.4844 911.906 46.4844C910.797 46.4844 909.988 46.9023 909.48 47.7383C908.973 48.5742 908.711 49.8594 908.695 51.5938V55.0625C908.695 56.9062 908.961 58.2695 909.492 59.1523C910.031 60.0273 910.844 60.4648 911.93 60.4648C913 60.4648 913.793 60.0508 914.309 59.2227C914.832 58.3945 915.105 57.0898 915.129 55.3086V51.7578ZM925.301 55.1914C925.301 56.9336 925.07 58.6055 924.609 60.207C924.156 61.8008 923.457 63.2734 922.512 64.625C921.574 65.9766 920.59 66.9375 919.559 67.5078L919.102 66.1836C920.305 65.2617 921.27 63.832 921.996 61.8945C922.73 59.9492 923.105 57.793 923.121 55.4258V55.0508C923.121 53.4102 922.949 51.8867 922.605 50.4805C922.262 49.0664 921.781 47.8008 921.164 46.6836C920.555 45.5664 919.867 44.6953 919.102 44.0703L919.559 42.7461C920.59 43.3164 921.57 44.2695 922.5 45.6055C923.438 46.9414 924.137 48.4141 924.598 50.0234C925.066 51.6328 925.301 53.3555 925.301 55.1914Z" fill="black"/>
<path d="M565.5 22.5H752.5V82.5H565.5V22.5Z" fill="white" stroke="white"/>
<path d="M608.414 53.4453L609.281 44.9375H618.023V46.9414H611.121L610.605 51.5938C611.441 51.1016 612.391 50.8555 613.453 50.8555C615.008 50.8555 616.242 51.3711 617.156 52.4023C618.07 53.4258 618.527 54.8125 618.527 56.5625C618.527 58.3203 618.051 59.707 617.098 60.7227C616.152 61.7305 614.828 62.2344 613.125 62.2344C611.617 62.2344 610.387 61.8164 609.434 60.9805C608.48 60.1445 607.938 58.9883 607.805 57.5117H609.855C609.988 58.4883 610.336 59.2266 610.898 59.7266C611.461 60.2188 612.203 60.4648 613.125 60.4648C614.133 60.4648 614.922 60.1211 615.492 59.4336C616.07 58.7461 616.359 57.7969 616.359 56.5859C616.359 55.4453 616.047 54.5312 615.422 53.8438C614.805 53.1484 613.98 52.8008 612.949 52.8008C612.004 52.8008 611.262 53.0078 610.723 53.4219L610.148 53.8906L608.414 53.4453ZM634.453 58.6367C634.453 58.0508 634.23 57.5977 633.785 57.2773C633.348 56.9492 632.578 56.668 631.477 56.4336C630.383 56.1992 629.512 55.918 628.863 55.5898C628.223 55.2617 627.746 54.8711 627.434 54.418C627.129 53.9648 626.977 53.4258 626.977 52.8008C626.977 51.7617 627.414 50.8828 628.289 50.1641C629.172 49.4453 630.297 49.0859 631.664 49.0859C633.102 49.0859 634.266 49.457 635.156 50.1992C636.055 50.9414 636.504 51.8906 636.504 53.0469H634.324C634.324 52.4531 634.07 51.9414 633.562 51.5117C633.062 51.082 632.43 50.8672 631.664 50.8672C630.875 50.8672 630.258 51.0391 629.812 51.3828C629.367 51.7266 629.145 52.1758 629.145 52.7305C629.145 53.2539 629.352 53.6484 629.766 53.9141C630.18 54.1797 630.926 54.4336 632.004 54.6758C633.09 54.918 633.969 55.207 634.641 55.543C635.312 55.8789 635.809 56.2852 636.129 56.7617C636.457 57.2305 636.621 57.8047 636.621 58.4844C636.621 59.6172 636.168 60.5273 635.262 61.2148C634.355 61.8945 633.18 62.2344 631.734 62.2344C630.719 62.2344 629.82 62.0547 629.039 61.6953C628.258 61.3359 627.645 60.8359 627.199 60.1953C626.762 59.5469 626.543 58.8477 626.543 58.0977H628.711C628.75 58.8242 629.039 59.4023 629.578 59.832C630.125 60.2539 630.844 60.4648 631.734 60.4648C632.555 60.4648 633.211 60.3008 633.703 59.9727C634.203 59.6367 634.453 59.1914 634.453 58.6367ZM647.273 62C647.148 61.75 647.047 61.3047 646.969 60.6641C645.961 61.7109 644.758 62.2344 643.359 62.2344C642.109 62.2344 641.082 61.8828 640.277 61.1797C639.48 60.4688 639.082 59.5703 639.082 58.4844C639.082 57.1641 639.582 56.1406 640.582 55.4141C641.59 54.6797 643.004 54.3125 644.824 54.3125H646.934V53.3164C646.934 52.5586 646.707 51.957 646.254 51.5117C645.801 51.0586 645.133 50.832 644.25 50.832C643.477 50.832 642.828 51.0273 642.305 51.418C641.781 51.8086 641.52 52.2812 641.52 52.8359H639.34C639.34 52.2031 639.562 51.5938 640.008 51.0078C640.461 50.4141 641.07 49.9453 641.836 49.6016C642.609 49.2578 643.457 49.0859 644.379 49.0859C645.84 49.0859 646.984 49.4531 647.812 50.1875C648.641 50.9141 649.07 51.918 649.102 53.1992V59.0352C649.102 60.1992 649.25 61.125 649.547 61.8125V62H647.273ZM643.676 60.3477C644.355 60.3477 645 60.1719 645.609 59.8203C646.219 59.4688 646.66 59.0117 646.934 58.4492V55.8477H645.234C642.578 55.8477 641.25 56.625 641.25 58.1797C641.25 58.8594 641.477 59.3906 641.93 59.7734C642.383 60.1562 642.965 60.3477 643.676 60.3477ZM651.926 55.543C651.926 54.3008 652.168 53.1836 652.652 52.1914C653.145 51.1992 653.824 50.4336 654.691 49.8945C655.566 49.3555 656.562 49.0859 657.68 49.0859C659.406 49.0859 660.801 49.6836 661.863 50.8789C662.934 52.0742 663.469 53.6641 663.469 55.6484V55.8008C663.469 57.0352 663.23 58.1445 662.754 59.1289C662.285 60.1055 661.609 60.8672 660.727 61.4141C659.852 61.9609 658.844 62.2344 657.703 62.2344C655.984 62.2344 654.59 61.6367 653.52 60.4414C652.457 59.2461 651.926 57.6641 651.926 55.6953V55.543ZM654.105 55.8008C654.105 57.207 654.43 58.3359 655.078 59.1875C655.734 60.0391 656.609 60.4648 657.703 60.4648C658.805 60.4648 659.68 60.0352 660.328 59.1758C660.977 58.3086 661.301 57.0977 661.301 55.543C661.301 54.1523 660.969 53.0273 660.305 52.168C659.648 51.3008 658.773 50.8672 657.68 50.8672C656.609 50.8672 655.746 51.293 655.09 52.1445C654.434 52.9961 654.105 54.2148 654.105 55.8008ZM672.059 55.0742C672.059 53.3086 672.293 51.6133 672.762 49.9883C673.238 48.3633 673.945 46.8867 674.883 45.5586C675.82 44.2305 676.793 43.293 677.801 42.7461L678.246 44.1758C677.105 45.0508 676.168 46.3867 675.434 48.1836C674.707 49.9805 674.309 51.9922 674.238 54.2188L674.227 55.2148C674.227 58.2305 674.777 60.8477 675.879 63.0664C676.543 64.3945 677.332 65.4336 678.246 66.1836L677.801 67.5078C676.762 66.9297 675.77 65.9609 674.824 64.6016C672.98 61.9453 672.059 58.7695 672.059 55.0742ZM687.246 62H685.066V47.5508L680.695 49.1562V47.1875L686.906 44.8555H687.246V62ZM704.297 54.7227C704.297 57.2617 703.863 59.1484 702.996 60.3828C702.129 61.6172 700.773 62.2344 698.93 62.2344C697.109 62.2344 695.762 61.6328 694.887 60.4297C694.012 59.2188 693.559 57.4141 693.527 55.0156V52.1211C693.527 49.6133 693.961 47.75 694.828 46.5312C695.695 45.3125 697.055 44.7031 698.906 44.7031C700.742 44.7031 702.094 45.293 702.961 46.4727C703.828 47.6445 704.273 49.457 704.297 51.9102V54.7227ZM702.129 51.7578C702.129 49.9219 701.871 48.5859 701.355 47.75C700.84 46.9062 700.023 46.4844 698.906 46.4844C697.797 46.4844 696.988 46.9023 696.48 47.7383C695.973 48.5742 695.711 49.8594 695.695 51.5938V55.0625C695.695 56.9062 695.961 58.2695 696.492 59.1523C697.031 60.0273 697.844 60.4648 698.93 60.4648C700 60.4648 700.793 60.0508 701.309 59.2227C701.832 58.3945 702.105 57.0898 702.129 55.3086V51.7578ZM712.301 55.1914C712.301 56.9336 712.07 58.6055 711.609 60.207C711.156 61.8008 710.457 63.2734 709.512 64.625C708.574 65.9766 707.59 66.9375 706.559 67.5078L706.102 66.1836C707.305 65.2617 708.27 63.832 708.996 61.8945C709.73 59.9492 710.105 57.793 710.121 55.4258V55.0508C710.121 53.4102 709.949 51.8867 709.605 50.4805C709.262 49.0664 708.781 47.8008 708.164 46.6836C707.555 45.5664 706.867 44.6953 706.102 44.0703L706.559 42.7461C707.59 43.3164 708.57 44.2695 709.5 45.6055C710.438 46.9414 711.137 48.4141 711.598 50.0234C712.066 51.6328 712.301 53.3555 712.301 55.1914Z" fill="black"/>
<path d="M567.5 102.5H754.5V162.5H567.5V102.5Z" fill="white" stroke="white"/>
<path d="M612.543 145H610.363V130.551L605.992 132.156V130.188L612.203 127.855H612.543V145ZM632.453 141.637C632.453 141.051 632.23 140.598 631.785 140.277C631.348 139.949 630.578 139.668 629.477 139.434C628.383 139.199 627.512 138.918 626.863 138.59C626.223 138.262 625.746 137.871 625.434 137.418C625.129 136.965 624.977 136.426 624.977 135.801C624.977 134.762 625.414 133.883 626.289 133.164C627.172 132.445 628.297 132.086 629.664 132.086C631.102 132.086 632.266 132.457 633.156 133.199C634.055 133.941 634.504 134.891 634.504 136.047H632.324C632.324 135.453 632.07 134.941 631.562 134.512C631.062 134.082 630.43 133.867 629.664 133.867C628.875 133.867 628.258 134.039 627.812 134.383C627.367 134.727 627.145 135.176 627.145 135.73C627.145 136.254 627.352 136.648 627.766 136.914C628.18 137.18 628.926 137.434 630.004 137.676C631.09 137.918 631.969 138.207 632.641 138.543C633.312 138.879 633.809 139.285 634.129 139.762C634.457 140.23 634.621 140.805 634.621 141.484C634.621 142.617 634.168 143.527 633.262 144.215C632.355 144.895 631.18 145.234 629.734 145.234C628.719 145.234 627.82 145.055 627.039 144.695C626.258 144.336 625.645 143.836 625.199 143.195C624.762 142.547 624.543 141.848 624.543 141.098H626.711C626.75 141.824 627.039 142.402 627.578 142.832C628.125 143.254 628.844 143.465 629.734 143.465C630.555 143.465 631.211 143.301 631.703 142.973C632.203 142.637 632.453 142.191 632.453 141.637ZM645.273 145C645.148 144.75 645.047 144.305 644.969 143.664C643.961 144.711 642.758 145.234 641.359 145.234C640.109 145.234 639.082 144.883 638.277 144.18C637.48 143.469 637.082 142.57 637.082 141.484C637.082 140.164 637.582 139.141 638.582 138.414C639.59 137.68 641.004 137.312 642.824 137.312H644.934V136.316C644.934 135.559 644.707 134.957 644.254 134.512C643.801 134.059 643.133 133.832 642.25 133.832C641.477 133.832 640.828 134.027 640.305 134.418C639.781 134.809 639.52 135.281 639.52 135.836H637.34C637.34 135.203 637.562 134.594 638.008 134.008C638.461 133.414 639.07 132.945 639.836 132.602C640.609 132.258 641.457 132.086 642.379 132.086C643.84 132.086 644.984 132.453 645.812 133.188C646.641 133.914 647.07 134.918 647.102 136.199V142.035C647.102 143.199 647.25 144.125 647.547 144.812V145H645.273ZM641.676 143.348C642.355 143.348 643 143.172 643.609 142.82C644.219 142.469 644.66 142.012 644.934 141.449V138.848H643.234C640.578 138.848 639.25 139.625 639.25 141.18C639.25 141.859 639.477 142.391 639.93 142.773C640.383 143.156 640.965 143.348 641.676 143.348ZM649.926 138.543C649.926 137.301 650.168 136.184 650.652 135.191C651.145 134.199 651.824 133.434 652.691 132.895C653.566 132.355 654.562 132.086 655.68 132.086C657.406 132.086 658.801 132.684 659.863 133.879C660.934 135.074 661.469 136.664 661.469 138.648V138.801C661.469 140.035 661.23 141.145 660.754 142.129C660.285 143.105 659.609 143.867 658.727 144.414C657.852 144.961 656.844 145.234 655.703 145.234C653.984 145.234 652.59 144.637 651.52 143.441C650.457 142.246 649.926 140.664 649.926 138.695V138.543ZM652.105 138.801C652.105 140.207 652.43 141.336 653.078 142.188C653.734 143.039 654.609 143.465 655.703 143.465C656.805 143.465 657.68 143.035 658.328 142.176C658.977 141.309 659.301 140.098 659.301 138.543C659.301 137.152 658.969 136.027 658.305 135.168C657.648 134.301 656.773 133.867 655.68 133.867C654.609 133.867 653.746 134.293 653.09 135.145C652.434 135.996 652.105 137.215 652.105 138.801ZM670.059 138.074C670.059 136.309 670.293 134.613 670.762 132.988C671.238 131.363 671.945 129.887 672.883 128.559C673.82 127.23 674.793 126.293 675.801 125.746L676.246 127.176C675.105 128.051 674.168 129.387 673.434 131.184C672.707 132.98 672.309 134.992 672.238 137.219L672.227 138.215C672.227 141.23 672.777 143.848 673.879 146.066C674.543 147.395 675.332 148.434 676.246 149.184L675.801 150.508C674.762 149.93 673.77 148.961 672.824 147.602C670.98 144.945 670.059 141.77 670.059 138.074ZM685.246 145H683.066V130.551L678.695 132.156V130.188L684.906 127.855H685.246V145ZM702.297 137.723C702.297 140.262 701.863 142.148 700.996 143.383C700.129 144.617 698.773 145.234 696.93 145.234C695.109 145.234 693.762 144.633 692.887 143.43C692.012 142.219 691.559 140.414 691.527 138.016V135.121C691.527 132.613 691.961 130.75 692.828 129.531C693.695 128.312 695.055 127.703 696.906 127.703C698.742 127.703 700.094 128.293 700.961 129.473C701.828 130.645 702.273 132.457 702.297 134.91V137.723ZM700.129 134.758C700.129 132.922 699.871 131.586 699.355 130.75C698.84 129.906 698.023 129.484 696.906 129.484C695.797 129.484 694.988 129.902 694.48 130.738C693.973 131.574 693.711 132.859 693.695 134.594V138.062C693.695 139.906 693.961 141.27 694.492 142.152C695.031 143.027 695.844 143.465 696.93 143.465C698 143.465 698.793 143.051 699.309 142.223C699.832 141.395 700.105 140.09 700.129 138.309V134.758ZM710.301 138.191C710.301 139.934 710.07 141.605 709.609 143.207C709.156 144.801 708.457 146.273 707.512 147.625C706.574 148.977 705.59 149.938 704.559 150.508L704.102 149.184C705.305 148.262 706.27 146.832 706.996 144.895C707.73 142.949 708.105 140.793 708.121 138.426V138.051C708.121 136.41 707.949 134.887 707.605 133.48C707.262 132.066 706.781 130.801 706.164 129.684C705.555 128.566 704.867 127.695 704.102 127.07L704.559 125.746C705.59 126.316 706.57 127.27 707.5 128.605C708.438 129.941 709.137 131.414 709.598 133.023C710.066 134.633 710.301 136.355 710.301 138.191Z" fill="black"/>
<path d="M778.5 107.5H1118.5V167.5H778.5V107.5Z" fill="white" stroke="white"/>
<path d="M855.883 144.586C855.672 146.391 855.004 147.785 853.879 148.77C852.762 149.746 851.273 150.234 849.414 150.234C847.398 150.234 845.781 149.512 844.562 148.066C843.352 146.621 842.746 144.688 842.746 142.266V140.625C842.746 139.039 843.027 137.645 843.59 136.441C844.16 135.238 844.965 134.316 846.004 133.676C847.043 133.027 848.246 132.703 849.613 132.703C851.426 132.703 852.879 133.211 853.973 134.227C855.066 135.234 855.703 136.633 855.883 138.422H853.621C853.426 137.062 853 136.078 852.344 135.469C851.695 134.859 850.785 134.555 849.613 134.555C848.176 134.555 847.047 135.086 846.227 136.148C845.414 137.211 845.008 138.723 845.008 140.684V142.336C845.008 144.188 845.395 145.66 846.168 146.754C846.941 147.848 848.023 148.395 849.414 148.395C850.664 148.395 851.621 148.113 852.285 147.551C852.957 146.98 853.402 145.992 853.621 144.586H855.883ZM858.051 143.543C858.051 142.301 858.293 141.184 858.777 140.191C859.27 139.199 859.949 138.434 860.816 137.895C861.691 137.355 862.688 137.086 863.805 137.086C865.531 137.086 866.926 137.684 867.988 138.879C869.059 140.074 869.594 141.664 869.594 143.648V143.801C869.594 145.035 869.355 146.145 868.879 147.129C868.41 148.105 867.734 148.867 866.852 149.414C865.977 149.961 864.969 150.234 863.828 150.234C862.109 150.234 860.715 149.637 859.645 148.441C858.582 147.246 858.051 145.664 858.051 143.695V143.543ZM860.23 143.801C860.23 145.207 860.555 146.336 861.203 147.188C861.859 148.039 862.734 148.465 863.828 148.465C864.93 148.465 865.805 148.035 866.453 147.176C867.102 146.309 867.426 145.098 867.426 143.543C867.426 142.152 867.094 141.027 866.43 140.168C865.773 139.301 864.898 138.867 863.805 138.867C862.734 138.867 861.871 139.293 861.215 140.145C860.559 140.996 860.23 142.215 860.23 143.801ZM864.789 132H867.414L864.273 135.445H862.527L864.789 132ZM880.434 138.855C881.395 137.676 882.645 137.086 884.184 137.086C886.863 137.086 888.215 138.598 888.238 141.621V150H886.07V141.609C886.062 140.695 885.852 140.02 885.438 139.582C885.031 139.145 884.395 138.926 883.527 138.926C882.824 138.926 882.207 139.113 881.676 139.488C881.145 139.863 880.73 140.355 880.434 140.965V150H878.266V132H880.434V138.855ZM893.84 150H891.66V137.32H893.84V150ZM894.051 135.457H892.188L889.164 132.012H891.777L894.051 135.457ZM899.465 137.32L899.535 138.914C900.504 137.695 901.77 137.086 903.332 137.086C906.012 137.086 907.363 138.598 907.387 141.621V150H905.219V141.609C905.211 140.695 905 140.02 904.586 139.582C904.18 139.145 903.543 138.926 902.676 138.926C901.973 138.926 901.355 139.113 900.824 139.488C900.293 139.863 899.879 140.355 899.582 140.965V150H897.414V137.32H899.465ZM912.824 138.855C913.785 137.676 915.035 137.086 916.574 137.086C919.254 137.086 920.605 138.598 920.629 141.621V150H918.461V141.609C918.453 140.695 918.242 140.02 917.828 139.582C917.422 139.145 916.785 138.926 915.918 138.926C915.215 138.926 914.598 139.113 914.066 139.488C913.535 139.863 913.121 140.355 912.824 140.965V150H910.656V132H912.824V138.855ZM937.656 150C937.531 149.75 937.43 149.305 937.352 148.664C936.344 149.711 935.141 150.234 933.742 150.234C932.492 150.234 931.465 149.883 930.66 149.18C929.863 148.469 929.465 147.57 929.465 146.484C929.465 145.164 929.965 144.141 930.965 143.414C931.973 142.68 933.387 142.312 935.207 142.312H937.316V141.316C937.316 140.559 937.09 139.957 936.637 139.512C936.184 139.059 935.516 138.832 934.633 138.832C933.859 138.832 933.211 139.027 932.688 139.418C932.164 139.809 931.902 140.281 931.902 140.836H929.723C929.723 140.203 929.945 139.594 930.391 139.008C930.844 138.414 931.453 137.945 932.219 137.602C932.992 137.258 933.84 137.086 934.762 137.086C936.223 137.086 937.367 137.453 938.195 138.188C939.023 138.914 939.453 139.918 939.484 141.199V147.035C939.484 148.199 939.633 149.125 939.93 149.812V150H937.656ZM934.059 148.348C934.738 148.348 935.383 148.172 935.992 147.82C936.602 147.469 937.043 147.012 937.316 146.449V143.848H935.617C932.961 143.848 931.633 144.625 931.633 146.18C931.633 146.859 931.859 147.391 932.312 147.773C932.766 148.156 933.348 148.348 934.059 148.348ZM934.27 135.27L934.258 133.477C934.844 133.438 935.273 133.359 935.547 133.242C935.82 133.125 935.957 132.914 935.957 132.609C935.957 132.305 935.777 132.078 935.418 131.93C935.066 131.773 934.598 131.695 934.012 131.695L934.094 130.453C935.258 130.453 936.141 130.656 936.742 131.062C937.344 131.461 937.645 131.992 937.645 132.656C937.645 133.133 937.492 133.527 937.188 133.84C936.883 134.152 936.43 134.352 935.828 134.438L935.816 135.27H934.27ZM944.934 137.32L945.004 138.914C945.973 137.695 947.238 137.086 948.801 137.086C951.48 137.086 952.832 138.598 952.855 141.621V150H950.688V141.609C950.68 140.695 950.469 140.02 950.055 139.582C949.648 139.145 949.012 138.926 948.145 138.926C947.441 138.926 946.824 139.113 946.293 139.488C945.762 139.863 945.348 140.355 945.051 140.965V150H942.883V137.32H944.934ZM958.293 138.855C959.254 137.676 960.504 137.086 962.043 137.086C964.723 137.086 966.074 138.598 966.098 141.621V150H963.93V141.609C963.922 140.695 963.711 140.02 963.297 139.582C962.891 139.145 962.254 138.926 961.387 138.926C960.684 138.926 960.066 139.113 959.535 139.488C959.004 139.863 958.59 140.355 958.293 140.965V150H956.125V132H958.293V138.855ZM969.777 151.465H967.914L975.039 132.938H976.891L969.777 151.465ZM985.223 147.012L990.098 132.938H992.559L986.23 150H984.238L977.922 132.938H980.371L985.223 147.012ZM996.871 150H994.703V137.32H996.871V150ZM994.527 133.957C994.527 133.605 994.633 133.309 994.844 133.066C995.062 132.824 995.383 132.703 995.805 132.703C996.227 132.703 996.547 132.824 996.766 133.066C996.984 133.309 997.094 133.605 997.094 133.957C997.094 134.309 996.984 134.602 996.766 134.836C996.547 135.07 996.227 135.188 995.805 135.188C995.383 135.188 995.062 135.07 994.844 134.836C994.633 134.602 994.527 134.309 994.527 133.957ZM999.824 143.555C999.824 141.609 1000.29 140.047 1001.21 138.867C1002.13 137.68 1003.34 137.086 1004.83 137.086C1006.31 137.086 1007.49 137.594 1008.36 138.609V132H1010.52V150H1008.53L1008.43 148.641C1007.56 149.703 1006.35 150.234 1004.8 150.234C1003.34 150.234 1002.14 149.633 1001.21 148.43C1000.29 147.227 999.824 145.656 999.824 143.719V143.555ZM1001.99 143.801C1001.99 145.238 1002.29 146.363 1002.88 147.176C1003.48 147.988 1004.3 148.395 1005.34 148.395C1006.72 148.395 1007.72 147.777 1008.36 146.543V140.719C1007.71 139.523 1006.71 138.926 1005.37 138.926C1004.3 138.926 1003.48 139.336 1002.88 140.156C1002.29 140.977 1001.99 142.191 1001.99 143.801ZM1019.16 150.234C1017.44 150.234 1016.04 149.672 1014.96 148.547C1013.89 147.414 1013.35 145.902 1013.35 144.012V143.613C1013.35 142.355 1013.59 141.234 1014.06 140.25C1014.55 139.258 1015.22 138.484 1016.08 137.93C1016.95 137.367 1017.88 137.086 1018.89 137.086C1020.54 137.086 1021.82 137.629 1022.73 138.715C1023.65 139.801 1024.11 141.355 1024.11 143.379V144.281H1015.52C1015.55 145.531 1015.91 146.543 1016.61 147.316C1017.31 148.082 1018.2 148.465 1019.28 148.465C1020.04 148.465 1020.69 148.309 1021.22 147.996C1021.75 147.684 1022.22 147.27 1022.62 146.754L1023.94 147.785C1022.88 149.418 1021.29 150.234 1019.16 150.234ZM1018.89 138.867C1018.02 138.867 1017.28 139.188 1016.69 139.828C1016.09 140.461 1015.73 141.352 1015.59 142.5H1021.94V142.336C1021.88 141.234 1021.58 140.383 1021.05 139.781C1020.52 139.172 1019.8 138.867 1018.89 138.867ZM1026.05 143.543C1026.05 142.301 1026.29 141.184 1026.78 140.191C1027.27 139.199 1027.95 138.434 1028.82 137.895C1029.69 137.355 1030.69 137.086 1031.8 137.086C1033.53 137.086 1034.93 137.684 1035.99 138.879C1037.06 140.074 1037.59 141.664 1037.59 143.648V143.801C1037.59 145.035 1037.36 146.145 1036.88 147.129C1036.41 148.105 1035.73 148.867 1034.85 149.414C1033.98 149.961 1032.97 150.234 1031.83 150.234C1030.11 150.234 1028.71 149.637 1027.64 148.441C1026.58 147.246 1026.05 145.664 1026.05 143.695V143.543ZM1028.23 143.801C1028.23 145.207 1028.55 146.336 1029.2 147.188C1029.86 148.039 1030.73 148.465 1031.83 148.465C1032.93 148.465 1033.8 148.035 1034.45 147.176C1035.1 146.309 1035.43 145.098 1035.43 143.543C1035.43 142.152 1035.09 141.027 1034.43 140.168C1033.77 139.301 1032.9 138.867 1031.8 138.867C1030.73 138.867 1029.87 139.293 1029.21 140.145C1028.56 140.996 1028.23 142.215 1028.23 143.801ZM1046.18 143.074C1046.18 141.309 1046.42 139.613 1046.89 137.988C1047.36 136.363 1048.07 134.887 1049.01 133.559C1049.95 132.23 1050.92 131.293 1051.93 130.746L1052.37 132.176C1051.23 133.051 1050.29 134.387 1049.56 136.184C1048.83 137.98 1048.43 139.992 1048.36 142.219L1048.35 143.215C1048.35 146.23 1048.9 148.848 1050 151.066C1050.67 152.395 1051.46 153.434 1052.37 154.184L1051.93 155.508C1050.89 154.93 1049.89 153.961 1048.95 152.602C1047.11 149.945 1046.18 146.77 1046.18 143.074ZM1055.24 141.445L1056.11 132.938H1064.85V134.941H1057.95L1057.43 139.594C1058.27 139.102 1059.22 138.855 1060.28 138.855C1061.84 138.855 1063.07 139.371 1063.98 140.402C1064.9 141.426 1065.36 142.812 1065.36 144.562C1065.36 146.32 1064.88 147.707 1063.93 148.723C1062.98 149.73 1061.66 150.234 1059.95 150.234C1058.45 150.234 1057.21 149.816 1056.26 148.98C1055.31 148.145 1054.77 146.988 1054.63 145.512H1056.68C1056.82 146.488 1057.16 147.227 1057.73 147.727C1058.29 148.219 1059.03 148.465 1059.95 148.465C1060.96 148.465 1061.75 148.121 1062.32 147.434C1062.9 146.746 1063.19 145.797 1063.19 144.586C1063.19 143.445 1062.88 142.531 1062.25 141.844C1061.63 141.148 1060.81 140.801 1059.78 140.801C1058.83 140.801 1058.09 141.008 1057.55 141.422L1056.98 141.891L1055.24 141.445ZM1072.95 143.191C1072.95 144.934 1072.72 146.605 1072.26 148.207C1071.8 149.801 1071.11 151.273 1070.16 152.625C1069.22 153.977 1068.24 154.938 1067.21 155.508L1066.75 154.184C1067.95 153.262 1068.92 151.832 1069.64 149.895C1070.38 147.949 1070.75 145.793 1070.77 143.426V143.051C1070.77 141.41 1070.6 139.887 1070.25 138.48C1069.91 137.066 1069.43 135.801 1068.81 134.684C1068.2 133.566 1067.52 132.695 1066.75 132.07L1067.21 130.746C1068.24 131.316 1069.22 132.27 1070.15 133.605C1071.09 134.941 1071.79 136.414 1072.25 138.023C1072.71 139.633 1072.95 141.355 1072.95 143.191Z" fill="black"/>
<path d="M991.5 20.5H1178.5V80.5H991.5V20.5Z" fill="white" stroke="white"/>
<path d="M1036.57 50.4141H1038.2C1039.22 50.3984 1040.03 50.1289 1040.61 49.6055C1041.2 49.082 1041.49 48.375 1041.49 47.4844C1041.49 45.4844 1040.5 44.4844 1038.5 44.4844C1037.57 44.4844 1036.82 44.7539 1036.25 45.293C1035.7 45.8242 1035.42 46.5312 1035.42 47.4141H1033.25C1033.25 46.0625 1033.75 44.9414 1034.73 44.0508C1035.72 43.1523 1036.98 42.7031 1038.5 42.7031C1040.11 42.7031 1041.38 43.1289 1042.29 43.9805C1043.2 44.832 1043.66 46.0156 1043.66 47.5312C1043.66 48.2734 1043.42 48.9922 1042.93 49.6875C1042.46 50.3828 1041.8 50.9023 1040.98 51.2461C1041.91 51.543 1042.64 52.0352 1043.14 52.7227C1043.66 53.4102 1043.92 54.25 1043.92 55.2422C1043.92 56.7734 1043.42 57.9883 1042.42 58.8867C1041.42 59.7852 1040.12 60.2344 1038.52 60.2344C1036.91 60.2344 1035.61 59.8008 1034.6 58.9336C1033.6 58.0664 1033.1 56.9219 1033.1 55.5H1035.28C1035.28 56.3984 1035.57 57.1172 1036.16 57.6562C1036.75 58.1953 1037.53 58.4648 1038.52 58.4648C1039.56 58.4648 1040.36 58.1914 1040.92 57.6445C1041.47 57.0977 1041.75 56.3125 1041.75 55.2891C1041.75 54.2969 1041.45 53.5352 1040.84 53.0039C1040.23 52.4727 1039.35 52.1992 1038.2 52.1836H1036.57V50.4141ZM1060.45 56.6367C1060.45 56.0508 1060.23 55.5977 1059.79 55.2773C1059.35 54.9492 1058.58 54.668 1057.48 54.4336C1056.38 54.1992 1055.51 53.918 1054.86 53.5898C1054.22 53.2617 1053.75 52.8711 1053.43 52.418C1053.13 51.9648 1052.98 51.4258 1052.98 50.8008C1052.98 49.7617 1053.41 48.8828 1054.29 48.1641C1055.17 47.4453 1056.3 47.0859 1057.66 47.0859C1059.1 47.0859 1060.27 47.457 1061.16 48.1992C1062.05 48.9414 1062.5 49.8906 1062.5 51.0469H1060.32C1060.32 50.4531 1060.07 49.9414 1059.56 49.5117C1059.06 49.082 1058.43 48.8672 1057.66 48.8672C1056.88 48.8672 1056.26 49.0391 1055.81 49.3828C1055.37 49.7266 1055.14 50.1758 1055.14 50.7305C1055.14 51.2539 1055.35 51.6484 1055.77 51.9141C1056.18 52.1797 1056.93 52.4336 1058 52.6758C1059.09 52.918 1059.97 53.207 1060.64 53.543C1061.31 53.8789 1061.81 54.2852 1062.13 54.7617C1062.46 55.2305 1062.62 55.8047 1062.62 56.4844C1062.62 57.6172 1062.17 58.5273 1061.26 59.2148C1060.36 59.8945 1059.18 60.2344 1057.73 60.2344C1056.72 60.2344 1055.82 60.0547 1055.04 59.6953C1054.26 59.3359 1053.64 58.8359 1053.2 58.1953C1052.76 57.5469 1052.54 56.8477 1052.54 56.0977H1054.71C1054.75 56.8242 1055.04 57.4023 1055.58 57.832C1056.12 58.2539 1056.84 58.4648 1057.73 58.4648C1058.55 58.4648 1059.21 58.3008 1059.7 57.9727C1060.2 57.6367 1060.45 57.1914 1060.45 56.6367ZM1073.27 60C1073.15 59.75 1073.05 59.3047 1072.97 58.6641C1071.96 59.7109 1070.76 60.2344 1069.36 60.2344C1068.11 60.2344 1067.08 59.8828 1066.28 59.1797C1065.48 58.4688 1065.08 57.5703 1065.08 56.4844C1065.08 55.1641 1065.58 54.1406 1066.58 53.4141C1067.59 52.6797 1069 52.3125 1070.82 52.3125H1072.93V51.3164C1072.93 50.5586 1072.71 49.957 1072.25 49.5117C1071.8 49.0586 1071.13 48.832 1070.25 48.832C1069.48 48.832 1068.83 49.0273 1068.3 49.418C1067.78 49.8086 1067.52 50.2812 1067.52 50.8359H1065.34C1065.34 50.2031 1065.56 49.5938 1066.01 49.0078C1066.46 48.4141 1067.07 47.9453 1067.84 47.6016C1068.61 47.2578 1069.46 47.0859 1070.38 47.0859C1071.84 47.0859 1072.98 47.4531 1073.81 48.1875C1074.64 48.9141 1075.07 49.918 1075.1 51.1992V57.0352C1075.1 58.1992 1075.25 59.125 1075.55 59.8125V60H1073.27ZM1069.68 58.3477C1070.36 58.3477 1071 58.1719 1071.61 57.8203C1072.22 57.4688 1072.66 57.0117 1072.93 56.4492V53.8477H1071.23C1068.58 53.8477 1067.25 54.625 1067.25 56.1797C1067.25 56.8594 1067.48 57.3906 1067.93 57.7734C1068.38 58.1562 1068.96 58.3477 1069.68 58.3477ZM1077.93 53.543C1077.93 52.3008 1078.17 51.1836 1078.65 50.1914C1079.14 49.1992 1079.82 48.4336 1080.69 47.8945C1081.57 47.3555 1082.56 47.0859 1083.68 47.0859C1085.41 47.0859 1086.8 47.6836 1087.86 48.8789C1088.93 50.0742 1089.47 51.6641 1089.47 53.6484V53.8008C1089.47 55.0352 1089.23 56.1445 1088.75 57.1289C1088.29 58.1055 1087.61 58.8672 1086.73 59.4141C1085.85 59.9609 1084.84 60.2344 1083.7 60.2344C1081.98 60.2344 1080.59 59.6367 1079.52 58.4414C1078.46 57.2461 1077.93 55.6641 1077.93 53.6953V53.543ZM1080.11 53.8008C1080.11 55.207 1080.43 56.3359 1081.08 57.1875C1081.73 58.0391 1082.61 58.4648 1083.7 58.4648C1084.8 58.4648 1085.68 58.0352 1086.33 57.1758C1086.98 56.3086 1087.3 55.0977 1087.3 53.543C1087.3 52.1523 1086.97 51.0273 1086.3 50.168C1085.65 49.3008 1084.77 48.8672 1083.68 48.8672C1082.61 48.8672 1081.75 49.293 1081.09 50.1445C1080.43 50.9961 1080.11 52.2148 1080.11 53.8008ZM1098.06 53.0742C1098.06 51.3086 1098.29 49.6133 1098.76 47.9883C1099.24 46.3633 1099.95 44.8867 1100.88 43.5586C1101.82 42.2305 1102.79 41.293 1103.8 40.7461L1104.25 42.1758C1103.11 43.0508 1102.17 44.3867 1101.43 46.1836C1100.71 47.9805 1100.31 49.9922 1100.24 52.2188L1100.23 53.2148C1100.23 56.2305 1100.78 58.8477 1101.88 61.0664C1102.54 62.3945 1103.33 63.4336 1104.25 64.1836L1103.8 65.5078C1102.76 64.9297 1101.77 63.9609 1100.82 62.6016C1098.98 59.9453 1098.06 56.7695 1098.06 53.0742ZM1113.25 60H1111.07V45.5508L1106.7 47.1562V45.1875L1112.91 42.8555H1113.25V60ZM1130.3 52.7227C1130.3 55.2617 1129.86 57.1484 1129 58.3828C1128.13 59.6172 1126.77 60.2344 1124.93 60.2344C1123.11 60.2344 1121.76 59.6328 1120.89 58.4297C1120.01 57.2188 1119.56 55.4141 1119.53 53.0156V50.1211C1119.53 47.6133 1119.96 45.75 1120.83 44.5312C1121.7 43.3125 1123.05 42.7031 1124.91 42.7031C1126.74 42.7031 1128.09 43.293 1128.96 44.4727C1129.83 45.6445 1130.27 47.457 1130.3 49.9102V52.7227ZM1128.13 49.7578C1128.13 47.9219 1127.87 46.5859 1127.36 45.75C1126.84 44.9062 1126.02 44.4844 1124.91 44.4844C1123.8 44.4844 1122.99 44.9023 1122.48 45.7383C1121.97 46.5742 1121.71 47.8594 1121.7 49.5938V53.0625C1121.7 54.9062 1121.96 56.2695 1122.49 57.1523C1123.03 58.0273 1123.84 58.4648 1124.93 58.4648C1126 58.4648 1126.79 58.0508 1127.31 57.2227C1127.83 56.3945 1128.11 55.0898 1128.13 53.3086V49.7578ZM1138.3 53.1914C1138.3 54.9336 1138.07 56.6055 1137.61 58.207C1137.16 59.8008 1136.46 61.2734 1135.51 62.625C1134.57 63.9766 1133.59 64.9375 1132.56 65.5078L1132.1 64.1836C1133.3 63.2617 1134.27 61.832 1135 59.8945C1135.73 57.9492 1136.11 55.793 1136.12 53.4258V53.0508C1136.12 51.4102 1135.95 49.8867 1135.61 48.4805C1135.26 47.0664 1134.78 45.8008 1134.16 44.6836C1133.55 43.5664 1132.87 42.6953 1132.1 42.0703L1132.56 40.7461C1133.59 41.3164 1134.57 42.2695 1135.5 43.6055C1136.44 44.9414 1137.14 46.4141 1137.6 48.0234C1138.07 49.6328 1138.3 51.3555 1138.3 53.1914Z" fill="black"/>
<path d="M352.5 101.5H539.5V161.5H352.5V101.5Z" fill="white" stroke="white"/>
<path d="M405.598 141H394.418V139.441L400.324 132.879C401.199 131.887 401.801 131.082 402.129 130.465C402.465 129.84 402.633 129.195 402.633 128.531C402.633 127.641 402.363 126.91 401.824 126.34C401.285 125.77 400.566 125.484 399.668 125.484C398.59 125.484 397.75 125.793 397.148 126.41C396.555 127.02 396.258 127.871 396.258 128.965H394.09C394.09 127.395 394.594 126.125 395.602 125.156C396.617 124.188 397.973 123.703 399.668 123.703C401.254 123.703 402.508 124.121 403.43 124.957C404.352 125.785 404.812 126.891 404.812 128.273C404.812 129.953 403.742 131.953 401.602 134.273L397.031 139.23H405.598V141ZM421.453 137.637C421.453 137.051 421.23 136.598 420.785 136.277C420.348 135.949 419.578 135.668 418.477 135.434C417.383 135.199 416.512 134.918 415.863 134.59C415.223 134.262 414.746 133.871 414.434 133.418C414.129 132.965 413.977 132.426 413.977 131.801C413.977 130.762 414.414 129.883 415.289 129.164C416.172 128.445 417.297 128.086 418.664 128.086C420.102 128.086 421.266 128.457 422.156 129.199C423.055 129.941 423.504 130.891 423.504 132.047H421.324C421.324 131.453 421.07 130.941 420.562 130.512C420.062 130.082 419.43 129.867 418.664 129.867C417.875 129.867 417.258 130.039 416.812 130.383C416.367 130.727 416.145 131.176 416.145 131.73C416.145 132.254 416.352 132.648 416.766 132.914C417.18 133.18 417.926 133.434 419.004 133.676C420.09 133.918 420.969 134.207 421.641 134.543C422.312 134.879 422.809 135.285 423.129 135.762C423.457 136.23 423.621 136.805 423.621 137.484C423.621 138.617 423.168 139.527 422.262 140.215C421.355 140.895 420.18 141.234 418.734 141.234C417.719 141.234 416.82 141.055 416.039 140.695C415.258 140.336 414.645 139.836 414.199 139.195C413.762 138.547 413.543 137.848 413.543 137.098H415.711C415.75 137.824 416.039 138.402 416.578 138.832C417.125 139.254 417.844 139.465 418.734 139.465C419.555 139.465 420.211 139.301 420.703 138.973C421.203 138.637 421.453 138.191 421.453 137.637ZM434.273 141C434.148 140.75 434.047 140.305 433.969 139.664C432.961 140.711 431.758 141.234 430.359 141.234C429.109 141.234 428.082 140.883 427.277 140.18C426.48 139.469 426.082 138.57 426.082 137.484C426.082 136.164 426.582 135.141 427.582 134.414C428.59 133.68 430.004 133.312 431.824 133.312H433.934V132.316C433.934 131.559 433.707 130.957 433.254 130.512C432.801 130.059 432.133 129.832 431.25 129.832C430.477 129.832 429.828 130.027 429.305 130.418C428.781 130.809 428.52 131.281 428.52 131.836H426.34C426.34 131.203 426.562 130.594 427.008 130.008C427.461 129.414 428.07 128.945 428.836 128.602C429.609 128.258 430.457 128.086 431.379 128.086C432.84 128.086 433.984 128.453 434.812 129.188C435.641 129.914 436.07 130.918 436.102 132.199V138.035C436.102 139.199 436.25 140.125 436.547 140.812V141H434.273ZM430.676 139.348C431.355 139.348 432 139.172 432.609 138.82C433.219 138.469 433.66 138.012 433.934 137.449V134.848H432.234C429.578 134.848 428.25 135.625 428.25 137.18C428.25 137.859 428.477 138.391 428.93 138.773C429.383 139.156 429.965 139.348 430.676 139.348ZM438.926 134.543C438.926 133.301 439.168 132.184 439.652 131.191C440.145 130.199 440.824 129.434 441.691 128.895C442.566 128.355 443.562 128.086 444.68 128.086C446.406 128.086 447.801 128.684 448.863 129.879C449.934 131.074 450.469 132.664 450.469 134.648V134.801C450.469 136.035 450.23 137.145 449.754 138.129C449.285 139.105 448.609 139.867 447.727 140.414C446.852 140.961 445.844 141.234 444.703 141.234C442.984 141.234 441.59 140.637 440.52 139.441C439.457 138.246 438.926 136.664 438.926 134.695V134.543ZM441.105 134.801C441.105 136.207 441.43 137.336 442.078 138.188C442.734 139.039 443.609 139.465 444.703 139.465C445.805 139.465 446.68 139.035 447.328 138.176C447.977 137.309 448.301 136.098 448.301 134.543C448.301 133.152 447.969 132.027 447.305 131.168C446.648 130.301 445.773 129.867 444.68 129.867C443.609 129.867 442.746 130.293 442.09 131.145C441.434 131.996 441.105 133.215 441.105 134.801ZM459.059 134.074C459.059 132.309 459.293 130.613 459.762 128.988C460.238 127.363 460.945 125.887 461.883 124.559C462.82 123.23 463.793 122.293 464.801 121.746L465.246 123.176C464.105 124.051 463.168 125.387 462.434 127.184C461.707 128.98 461.309 130.992 461.238 133.219L461.227 134.215C461.227 137.23 461.777 139.848 462.879 142.066C463.543 143.395 464.332 144.434 465.246 145.184L464.801 146.508C463.762 145.93 462.77 144.961 461.824 143.602C459.98 140.945 459.059 137.77 459.059 134.074ZM474.246 141H472.066V126.551L467.695 128.156V126.188L473.906 123.855H474.246V141ZM491.297 133.723C491.297 136.262 490.863 138.148 489.996 139.383C489.129 140.617 487.773 141.234 485.93 141.234C484.109 141.234 482.762 140.633 481.887 139.43C481.012 138.219 480.559 136.414 480.527 134.016V131.121C480.527 128.613 480.961 126.75 481.828 125.531C482.695 124.312 484.055 123.703 485.906 123.703C487.742 123.703 489.094 124.293 489.961 125.473C490.828 126.645 491.273 128.457 491.297 130.91V133.723ZM489.129 130.758C489.129 128.922 488.871 127.586 488.355 126.75C487.84 125.906 487.023 125.484 485.906 125.484C484.797 125.484 483.988 125.902 483.48 126.738C482.973 127.574 482.711 128.859 482.695 130.594V134.062C482.695 135.906 482.961 137.27 483.492 138.152C484.031 139.027 484.844 139.465 485.93 139.465C487 139.465 487.793 139.051 488.309 138.223C488.832 137.395 489.105 136.09 489.129 134.309V130.758ZM499.301 134.191C499.301 135.934 499.07 137.605 498.609 139.207C498.156 140.801 497.457 142.273 496.512 143.625C495.574 144.977 494.59 145.938 493.559 146.508L493.102 145.184C494.305 144.262 495.27 142.832 495.996 140.895C496.73 138.949 497.105 136.793 497.121 134.426V134.051C497.121 132.41 496.949 130.887 496.605 129.48C496.262 128.066 495.781 126.801 495.164 125.684C494.555 124.566 493.867 123.695 493.102 123.07L493.559 121.746C494.59 122.316 495.57 123.27 496.5 124.605C497.438 125.941 498.137 127.414 498.598 129.023C499.066 130.633 499.301 132.355 499.301 134.191Z" fill="black"/>
<path d="M49.5 94L55.6741 111.62L75.6541 111.62L59.49 122.51L65.6641 140.13L49.5 129.24L33.3359 140.13L39.51 122.51L23.3459 111.62L43.3259 111.62L49.5 94Z" fill="#23DE57"/>
<path d="M104.5 94L110.674 111.62L130.654 111.62L114.49 122.51L120.664 140.13L104.5 129.24L88.3359 140.13L94.51 122.51L78.3459 111.62L98.3259 111.62L104.5 94Z" fill="#23DE57"/>
<path d="M159.5 94L165.674 111.62L185.654 111.62L169.49 122.51L175.664 140.13L159.5 129.24L143.336 140.13L149.51 122.51L133.346 111.62L153.326 111.62L159.5 94Z" fill="#23DE57"/>
<path d="M214.5 94L220.674 111.62L240.654 111.62L224.49 122.51L230.664 140.13L214.5 129.24L198.336 140.13L204.51 122.51L188.346 111.62L208.326 111.62L214.5 94Z" fill="#23DE57"/>
<path d="M269.5 94L275.674 111.62L295.654 111.62L279.49 122.51L285.664 140.13L269.5 129.24L253.336 140.13L259.51 122.51L243.346 111.62L263.326 111.62L269.5 94Z" fill="#655757" fill-opacity="0.5"/>
<path d="M49.9492 54.9453H54.7832V61.7715H49.9492V71H41.4824V61.7715H23.9922L23.6113 56.4395L41.3945 28.3438H49.9492V54.9453ZM32.0488 54.9453H41.4824V39.8867L40.9258 40.8535L32.0488 54.9453ZM69.0786 53.2812V56.7354H71.7417V58.6206H69.0786V67.4668C69.0786 68.0381 69.1973 68.4688 69.4346 68.7588C69.6719 69.04 70.0762 69.1807 70.6475 69.1807C70.9287 69.1807 71.3154 69.1279 71.8076 69.0225V71C71.166 71.1758 70.542 71.2637 69.9355 71.2637C68.8457 71.2637 68.0239 70.9341 67.4702 70.2749C66.9165 69.6157 66.6396 68.6797 66.6396 67.4668V58.6206H64.0425V56.7354H66.6396V53.2812H69.0786ZM81.4976 58.9238C81.1284 58.8623 80.7285 58.8315 80.2979 58.8315C78.6982 58.8315 77.6128 59.5127 77.0415 60.875V71H74.6025V56.7354H76.9756L77.0151 58.3833C77.8149 57.1089 78.9487 56.4717 80.4165 56.4717C80.8911 56.4717 81.2515 56.5332 81.4976 56.6562V58.9238ZM89.4077 71.2637C87.4741 71.2637 85.9009 70.6309 84.688 69.3652C83.4751 68.0908 82.8687 66.3901 82.8687 64.2632V63.8149C82.8687 62.3999 83.1367 61.1387 83.6729 60.0312C84.2178 58.915 84.9736 58.0449 85.9404 57.4209C86.916 56.7881 87.9707 56.4717 89.1045 56.4717C90.959 56.4717 92.4004 57.0825 93.4287 58.3042C94.457 59.5259 94.9712 61.2749 94.9712 63.5513V64.5664H85.3076C85.3428 65.9727 85.7515 67.1108 86.5337 67.981C87.3247 68.8423 88.3267 69.2729 89.5396 69.2729C90.4009 69.2729 91.1304 69.0972 91.728 68.7456C92.3257 68.394 92.8486 67.9282 93.2969 67.3481L94.7866 68.5083C93.5913 70.3452 91.7983 71.2637 89.4077 71.2637ZM89.1045 58.4756C88.1201 58.4756 87.2939 58.8359 86.626 59.5566C85.958 60.2686 85.5449 61.2705 85.3867 62.5625H92.5322V62.3779C92.4619 61.1387 92.1279 60.1807 91.5303 59.5039C90.9326 58.8184 90.124 58.4756 89.1045 58.4756ZM93.0859 54.3623V54.4941H91.0688L89.0913 52.2529L87.127 54.4941H85.1099V54.3359L88.353 50.75H89.8296L93.0859 54.3623ZM100.113 56.7354L100.192 58.5283C101.282 57.1572 102.706 56.4717 104.463 56.4717C107.478 56.4717 108.999 58.1724 109.025 61.5737V71H106.586V61.5605C106.577 60.5322 106.34 59.772 105.874 59.2798C105.417 58.7876 104.701 58.5415 103.725 58.5415C102.934 58.5415 102.24 58.7524 101.642 59.1743C101.044 59.5962 100.579 60.1499 100.245 60.8354V71H97.8057V56.7354H100.113ZM120.271 61.376L121.246 51.8047H131.081V54.0591H123.316L122.736 59.293C123.676 58.7393 124.744 58.4624 125.939 58.4624C127.688 58.4624 129.077 59.0425 130.105 60.2026C131.134 61.354 131.648 62.9141 131.648 64.8828C131.648 66.8604 131.112 68.4204 130.04 69.563C128.976 70.6968 127.486 71.2637 125.57 71.2637C123.874 71.2637 122.49 70.7935 121.417 69.853C120.345 68.9126 119.734 67.6118 119.585 65.9507H121.892C122.042 67.0493 122.433 67.8799 123.065 68.4424C123.698 68.9961 124.533 69.2729 125.57 69.2729C126.704 69.2729 127.592 68.8862 128.233 68.1128C128.884 67.3394 129.209 66.2715 129.209 64.9092C129.209 63.626 128.857 62.5977 128.154 61.8242C127.46 61.042 126.533 60.6509 125.373 60.6509C124.309 60.6509 123.474 60.8838 122.868 61.3496L122.222 61.877L120.271 61.376Z" fill="#2390DE"/>
<path d="M352.5 20.5H539.5V80.5H352.5V20.5Z" fill="white" stroke="#2390DE"/>
<path d="M428.039 44.7891H422.555V60H420.316V44.7891H414.844V42.9375H428.039V44.7891ZM436.723 60C436.598 59.75 436.496 59.3047 436.418 58.6641C435.41 59.7109 434.207 60.2344 432.809 60.2344C431.559 60.2344 430.531 59.8828 429.727 59.1797C428.93 58.4688 428.531 57.5703 428.531 56.4844C428.531 55.1641 429.031 54.1406 430.031 53.4141C431.039 52.6797 432.453 52.3125 434.273 52.3125H436.383V51.3164C436.383 50.5586 436.156 49.957 435.703 49.5117C435.25 49.0586 434.582 48.832 433.699 48.832C432.926 48.832 432.277 49.0273 431.754 49.418C431.23 49.8086 430.969 50.2812 430.969 50.8359H428.789C428.789 50.2031 429.012 49.5938 429.457 49.0078C429.91 48.4141 430.52 47.9453 431.285 47.6016C432.059 47.2578 432.906 47.0859 433.828 47.0859C435.289 47.0859 436.434 47.4531 437.262 48.1875C438.09 48.9141 438.52 49.918 438.551 51.1992V57.0352C438.551 58.1992 438.699 59.125 438.996 59.8125V60H436.723ZM433.125 58.3477C433.805 58.3477 434.449 58.1719 435.059 57.8203C435.668 57.4688 436.109 57.0117 436.383 56.4492V53.8477H434.684C432.027 53.8477 430.699 54.625 430.699 56.1797C430.699 56.8594 430.926 57.3906 431.379 57.7734C431.832 58.1562 432.414 58.3477 433.125 58.3477ZM433.184 42.3633H434.965L438.363 45.4453H436.055L434.074 43.582L432.082 45.4453H429.762L433.184 42.3633ZM439.16 40.3359H441.504L439.148 43.3711H437.496L439.16 40.3359ZM444.891 44.25V47.3203H447.258V48.9961H444.891V56.8594C444.891 57.3672 444.996 57.75 445.207 58.0078C445.418 58.2578 445.777 58.3828 446.285 58.3828C446.535 58.3828 446.879 58.3359 447.316 58.2422V60C446.746 60.1562 446.191 60.2344 445.652 60.2344C444.684 60.2344 443.953 59.9414 443.461 59.3555C442.969 58.7695 442.723 57.9375 442.723 56.8594V48.9961H440.414V47.3203H442.723V44.25H444.891ZM460.84 58.4648C461.613 58.4648 462.289 58.2305 462.867 57.7617C463.445 57.293 463.766 56.707 463.828 56.0039H465.879C465.84 56.7305 465.59 57.4219 465.129 58.0781C464.668 58.7344 464.051 59.2578 463.277 59.6484C462.512 60.0391 461.699 60.2344 460.84 60.2344C459.113 60.2344 457.738 59.6602 456.715 58.5117C455.699 57.3555 455.191 55.7773 455.191 53.7773V53.4141C455.191 52.1797 455.418 51.082 455.871 50.1211C456.324 49.1602 456.973 48.4141 457.816 47.8828C458.668 47.3516 459.672 47.0859 460.828 47.0859C462.25 47.0859 463.43 47.5117 464.367 48.3633C465.312 49.2148 465.816 50.3203 465.879 51.6797H463.828C463.766 50.8594 463.453 50.1875 462.891 49.6641C462.336 49.1328 461.648 48.8672 460.828 48.8672C459.727 48.8672 458.871 49.2656 458.262 50.0625C457.66 50.8516 457.359 51.9961 457.359 53.4961V53.9062C457.359 55.3672 457.66 56.4922 458.262 57.2812C458.863 58.0703 459.723 58.4648 460.84 58.4648ZM476.145 60C476.02 59.75 475.918 59.3047 475.84 58.6641C474.832 59.7109 473.629 60.2344 472.23 60.2344C470.98 60.2344 469.953 59.8828 469.148 59.1797C468.352 58.4688 467.953 57.5703 467.953 56.4844C467.953 55.1641 468.453 54.1406 469.453 53.4141C470.461 52.6797 471.875 52.3125 473.695 52.3125H475.805V51.3164C475.805 50.5586 475.578 49.957 475.125 49.5117C474.672 49.0586 474.004 48.832 473.121 48.832C472.348 48.832 471.699 49.0273 471.176 49.418C470.652 49.8086 470.391 50.2812 470.391 50.8359H468.211C468.211 50.2031 468.434 49.5938 468.879 49.0078C469.332 48.4141 469.941 47.9453 470.707 47.6016C471.48 47.2578 472.328 47.0859 473.25 47.0859C474.711 47.0859 475.855 47.4531 476.684 48.1875C477.512 48.9141 477.941 49.918 477.973 51.1992V57.0352C477.973 58.1992 478.121 59.125 478.418 59.8125V60H476.145ZM472.547 58.3477C473.227 58.3477 473.871 58.1719 474.48 57.8203C475.09 57.4688 475.531 57.0117 475.805 56.4492V53.8477H474.105C471.449 53.8477 470.121 54.625 470.121 56.1797C470.121 56.8594 470.348 57.3906 470.801 57.7734C471.254 58.1562 471.836 58.3477 472.547 58.3477ZM472.758 45.2695L472.746 43.4766C473.332 43.4375 473.762 43.3594 474.035 43.2422C474.309 43.125 474.445 42.9141 474.445 42.6094C474.445 42.3047 474.266 42.0781 473.906 41.9297C473.555 41.7734 473.086 41.6953 472.5 41.6953L472.582 40.4531C473.746 40.4531 474.629 40.6562 475.23 41.0625C475.832 41.4609 476.133 41.9922 476.133 42.6562C476.133 43.1328 475.98 43.5273 475.676 43.8398C475.371 44.1523 474.918 44.3516 474.316 44.4375L474.305 45.2695H472.758Z" fill="#2390DE"/>
</svg>
