<svg width="832" height="42" viewBox="0 0 832 42" fill="none" xmlns="http://www.w3.org/2000/svg">
    <rect width="832" height="42" fill="#97CDC0"/>
    <path d="M71 0H619V42H71V0Z" fill="#73A095"/>
    <line x1="85" y1="20.5" x2="605" y2="20.5" stroke="#97CDC0"/>
    <circle cx="71" cy="21" r="14" fill="white"/>
    <g clip-path="url(#clip0)">
    <path d="M78.8538 20.395L72.6356 14.1765C71.7337 13.275 70.2668 13.275 69.3649 14.1765L63.1467 20.395C62.9514 20.5904 62.9514 20.9069 63.1467 21.1022C63.3417 21.2976 63.6586 21.2976 63.8536 21.1022L64.2502 20.7057V27.062C64.2502 27.8559 64.8938 28.4995 65.6877 28.4995H68.1877C68.3603 28.4995 68.5002 28.3596 68.5002 28.187V23.5619C68.5002 22.699 69.1998 21.9994 70.0627 21.9994H71.9378C72.8007 21.9994 73.5003 22.699 73.5003 23.5619V28.187C73.5003 28.3596 73.6402 28.4995 73.8128 28.4995H76.3128C77.1067 28.4995 77.7503 27.8559 77.7503 27.062V20.7057L78.1469 21.1022C78.2444 21.1997 78.3725 21.2488 78.5003 21.2488C78.6281 21.2488 78.7563 21.1997 78.8538 21.1022C79.0491 20.9069 79.0491 20.5904 78.8538 20.395Z" fill="#73A095"/>
    </g>
    <circle cx="619" cy="21" r="14" fill="white"/>
    <circle cx="619" cy="21" r="7" fill="#73A095"/>
    <rect x="98" y="9" width="24" height="24" rx="2" fill="white"/>
    <path d="M110.992 27H109.102V17.8672L106.312 18.8203V17.2188L110.75 15.5859H110.992V27Z" fill="black"/>
    <rect x="142" y="9" width="24" height="24" rx="2" fill="white"/>
    <path d="M157.5 27H149.852V25.6953L153.641 21.5625C154.188 20.9531 154.576 20.4453 154.805 20.0391C155.039 19.6276 155.156 19.2161 155.156 18.8047C155.156 18.263 155.003 17.8255 154.695 17.4922C154.393 17.1589 153.984 16.9922 153.469 16.9922C152.854 16.9922 152.378 17.1797 152.039 17.5547C151.701 17.9297 151.531 18.4427 151.531 19.0938H149.633C149.633 18.401 149.789 17.7786 150.102 17.2266C150.419 16.6693 150.87 16.237 151.453 15.9297C152.042 15.6224 152.719 15.4688 153.484 15.4688C154.589 15.4688 155.458 15.7474 156.094 16.3047C156.734 16.8568 157.055 17.6224 157.055 18.6016C157.055 19.1693 156.893 19.7656 156.57 20.3906C156.253 21.0104 155.729 21.7161 155 22.5078L152.219 25.4844H157.5V27Z" fill="black"/>
    <rect x="180" y="9" width="24" height="24" rx="2" fill="white"/>
    <path d="M190.047 20.4453H191.203C191.786 20.4401 192.247 20.2891 192.586 19.9922C192.93 19.6953 193.102 19.2656 193.102 18.7031C193.102 18.1615 192.958 17.7422 192.672 17.4453C192.391 17.1432 191.958 16.9922 191.375 16.9922C190.865 16.9922 190.445 17.1406 190.117 17.4375C189.789 17.7292 189.625 18.112 189.625 18.5859H187.727C187.727 18.0026 187.88 17.4714 188.188 16.9922C188.5 16.513 188.932 16.1406 189.484 15.875C190.042 15.6042 190.664 15.4688 191.352 15.4688C192.487 15.4688 193.378 15.7552 194.023 16.3281C194.674 16.8958 195 17.6875 195 18.7031C195 19.2135 194.836 19.6953 194.508 20.1484C194.185 20.5964 193.766 20.9349 193.25 21.1641C193.875 21.3776 194.349 21.7135 194.672 22.1719C195 22.6302 195.164 23.1771 195.164 23.8125C195.164 24.8333 194.812 25.6458 194.109 26.25C193.411 26.8542 192.492 27.1562 191.352 27.1562C190.258 27.1562 189.362 26.8646 188.664 26.2812C187.966 25.6979 187.617 24.9219 187.617 23.9531H189.516C189.516 24.4531 189.682 24.8594 190.016 25.1719C190.354 25.4844 190.807 25.6406 191.375 25.6406C191.964 25.6406 192.427 25.4844 192.766 25.1719C193.104 24.8594 193.273 24.4062 193.273 23.8125C193.273 23.2135 193.096 22.7526 192.742 22.4297C192.388 22.1068 191.862 21.9453 191.164 21.9453H190.047V20.4453Z" fill="black"/>
    <rect x="235" y="9" width="24" height="24" rx="2" fill="white"/>
    <path d="M249.273 22.9453H250.688V24.4688H249.273V27H247.375V24.4688H242.461L242.406 23.3125L247.312 15.625H249.273V22.9453ZM244.398 22.9453H247.375V18.1953L247.234 18.4453L244.398 22.9453Z" fill="black"/>
    <rect x="288" y="9" width="24" height="24" rx="2" fill="white"/>
    <path d="M296.359 21.3594L296.977 15.625H303.086V17.2656H298.555L298.242 19.9844C298.768 19.6823 299.362 19.5312 300.023 19.5312C301.107 19.5312 301.948 19.8776 302.547 20.5703C303.151 21.263 303.453 22.1953 303.453 23.3672C303.453 24.5234 303.12 25.4453 302.453 26.1328C301.786 26.8151 300.872 27.1562 299.711 27.1562C298.669 27.1562 297.805 26.862 297.117 26.2734C296.435 25.6797 296.065 24.8984 296.008 23.9297H297.844C297.917 24.4818 298.115 24.9062 298.438 25.2031C298.76 25.4948 299.182 25.6406 299.703 25.6406C300.286 25.6406 300.74 25.4323 301.062 25.0156C301.391 24.599 301.555 24.0312 301.555 23.3125C301.555 22.6198 301.375 22.0729 301.016 21.6719C300.656 21.2656 300.161 21.0625 299.531 21.0625C299.188 21.0625 298.896 21.1094 298.656 21.2031C298.417 21.2917 298.156 21.4688 297.875 21.7344L296.359 21.3594Z" fill="black"/>
    <rect x="438" y="9" width="24" height="24" rx="2" fill="white"/>
    <path d="M451.758 15.5703V17.1406H451.523C450.461 17.1562 449.612 17.4479 448.977 18.0156C448.341 18.5833 447.964 19.388 447.844 20.4297C448.453 19.7891 449.232 19.4688 450.18 19.4688C451.185 19.4688 451.977 19.8229 452.555 20.5312C453.138 21.2396 453.43 22.1536 453.43 23.2734C453.43 24.4297 453.089 25.3672 452.406 26.0859C451.729 26.7995 450.839 27.1562 449.734 27.1562C448.599 27.1562 447.677 26.737 446.969 25.8984C446.266 25.0599 445.914 23.9609 445.914 22.6016V21.9531C445.914 19.9583 446.398 18.3958 447.367 17.2656C448.341 16.1354 449.74 15.5703 451.562 15.5703H451.758ZM449.719 21C449.302 21 448.919 21.1172 448.57 21.3516C448.227 21.5859 447.974 21.8984 447.812 22.2891V22.8672C447.812 23.7109 447.99 24.3828 448.344 24.8828C448.698 25.3776 449.156 25.625 449.719 25.625C450.281 25.625 450.727 25.4141 451.055 24.9922C451.383 24.5703 451.547 24.0156 451.547 23.3281C451.547 22.6406 451.38 22.0807 451.047 21.6484C450.714 21.2161 450.271 21 449.719 21Z" fill="black"/>
    <rect x="571" y="9" width="24" height="24" rx="2" fill="white"/>
    <path d="M586.422 16.6797L581.875 27H579.883L584.422 17.1484H578.539V15.625H586.422V16.6797Z" fill="black"/>
    <defs>
    <clipPath id="clip0">
    <rect width="16" height="16" fill="white" transform="translate(63 13)"/>
    </clipPath>
    </defs>
    </svg>
