<svg width="833" height="42" viewBox="0 0 833 42" fill="none" xmlns="http://www.w3.org/2000/svg">
    <rect width="833" height="42" fill="#81C0FF"/>
    <path d="M71 0H683V42H71V0Z" fill="#448ACF"/>
    <line x1="86" y1="20.5" x2="669" y2="20.5" stroke="#81C0FF"/>
    <circle cx="71" cy="21" r="14" fill="white"/>
    <g clip-path="url(#clip0)">
    <path d="M78.8538 20.395L72.6356 14.1765C71.7337 13.275 70.2668 13.275 69.3649 14.1765L63.1467 20.395C62.9514 20.5904 62.9514 20.9069 63.1467 21.1022C63.3417 21.2976 63.6586 21.2976 63.8536 21.1022L64.2502 20.7057V27.062C64.2502 27.8559 64.8938 28.4995 65.6877 28.4995H68.1877C68.3603 28.4995 68.5002 28.3596 68.5002 28.187V23.5619C68.5002 22.699 69.1998 21.9994 70.0627 21.9994H71.9378C72.8007 21.9994 73.5003 22.699 73.5003 23.5619V28.187C73.5003 28.3596 73.6402 28.4995 73.8128 28.4995H76.3128C77.1067 28.4995 77.7503 27.8559 77.7503 27.062V20.7057L78.1469 21.1022C78.2444 21.1997 78.3725 21.2488 78.5003 21.2488C78.6281 21.2488 78.7563 21.1997 78.8538 21.1022C79.0491 20.9069 79.0491 20.5904 78.8538 20.395V20.395Z" fill="#448ACF"/>
    </g>
    <circle cx="683" cy="21" r="14" fill="white"/>
    <circle cx="683" cy="21" r="7" fill="#448ACF"/>
    <rect x="121" y="9" width="24" height="24" rx="2" fill="white"/>
    <path d="M133.992 27H132.102V17.8672L129.312 18.8203V17.2188L133.75 15.5859H133.992V27Z" fill="black"/>
    <rect x="164" y="9" width="24" height="24" rx="2" fill="white"/>
    <path d="M179.5 27H171.852V25.6953L175.641 21.5625C176.188 20.9531 176.576 20.4453 176.805 20.0391C177.039 19.6276 177.156 19.2161 177.156 18.8047C177.156 18.263 177.003 17.8255 176.695 17.4922C176.393 17.1589 175.984 16.9922 175.469 16.9922C174.854 16.9922 174.378 17.1797 174.039 17.5547C173.701 17.9297 173.531 18.4427 173.531 19.0938H171.633C171.633 18.401 171.789 17.7786 172.102 17.2266C172.419 16.6693 172.87 16.237 173.453 15.9297C174.042 15.6224 174.719 15.4688 175.484 15.4688C176.589 15.4688 177.458 15.7474 178.094 16.3047C178.734 16.8568 179.055 17.6224 179.055 18.6016C179.055 19.1693 178.893 19.7656 178.57 20.3906C178.253 21.0104 177.729 21.7161 177 22.5078L174.219 25.4844H179.5V27Z" fill="black"/>
    <rect x="233" y="9" width="24" height="24" rx="2" fill="white"/>
    <path d="M243.047 20.4453H244.203C244.786 20.4401 245.247 20.2891 245.586 19.9922C245.93 19.6953 246.102 19.2656 246.102 18.7031C246.102 18.1615 245.958 17.7422 245.672 17.4453C245.391 17.1432 244.958 16.9922 244.375 16.9922C243.865 16.9922 243.445 17.1406 243.117 17.4375C242.789 17.7292 242.625 18.112 242.625 18.5859H240.727C240.727 18.0026 240.88 17.4714 241.188 16.9922C241.5 16.513 241.932 16.1406 242.484 15.875C243.042 15.6042 243.664 15.4688 244.352 15.4688C245.487 15.4688 246.378 15.7552 247.023 16.3281C247.674 16.8958 248 17.6875 248 18.7031C248 19.2135 247.836 19.6953 247.508 20.1484C247.185 20.5964 246.766 20.9349 246.25 21.1641C246.875 21.3776 247.349 21.7135 247.672 22.1719C248 22.6302 248.164 23.1771 248.164 23.8125C248.164 24.8333 247.812 25.6458 247.109 26.25C246.411 26.8542 245.492 27.1562 244.352 27.1562C243.258 27.1562 242.362 26.8646 241.664 26.2812C240.966 25.6979 240.617 24.9219 240.617 23.9531H242.516C242.516 24.4531 242.682 24.8594 243.016 25.1719C243.354 25.4844 243.807 25.6406 244.375 25.6406C244.964 25.6406 245.427 25.4844 245.766 25.1719C246.104 24.8594 246.273 24.4062 246.273 23.8125C246.273 23.2135 246.096 22.7526 245.742 22.4297C245.388 22.1068 244.862 21.9453 244.164 21.9453H243.047V20.4453Z" fill="black"/>
    <rect x="350" y="9" width="24" height="24" rx="2" fill="white"/>
    <path d="M364.273 22.9453H365.688V24.4688H364.273V27H362.375V24.4688H357.461L357.406 23.3125L362.312 15.625H364.273V22.9453ZM359.398 22.9453H362.375V18.1953L362.234 18.4453L359.398 22.9453Z" fill="black"/>
    <rect x="472" y="9" width="24" height="24" rx="2" fill="white"/>
    <path d="M480.359 21.3594L480.977 15.625H487.086V17.2656H482.555L482.242 19.9844C482.768 19.6823 483.362 19.5312 484.023 19.5312C485.107 19.5312 485.948 19.8776 486.547 20.5703C487.151 21.263 487.453 22.1953 487.453 23.3672C487.453 24.5234 487.12 25.4453 486.453 26.1328C485.786 26.8151 484.872 27.1562 483.711 27.1562C482.669 27.1562 481.805 26.862 481.117 26.2734C480.435 25.6797 480.065 24.8984 480.008 23.9297H481.844C481.917 24.4818 482.115 24.9062 482.438 25.2031C482.76 25.4948 483.182 25.6406 483.703 25.6406C484.286 25.6406 484.74 25.4323 485.062 25.0156C485.391 24.599 485.555 24.0312 485.555 23.3125C485.555 22.6198 485.375 22.0729 485.016 21.6719C484.656 21.2656 484.161 21.0625 483.531 21.0625C483.188 21.0625 482.896 21.1094 482.656 21.2031C482.417 21.2917 482.156 21.4688 481.875 21.7344L480.359 21.3594Z" fill="black"/>
    <rect x="519" y="9" width="24" height="24" rx="2" fill="white"/>
    <path d="M532.758 15.5703V17.1406H532.523C531.461 17.1562 530.612 17.4479 529.977 18.0156C529.341 18.5833 528.964 19.388 528.844 20.4297C529.453 19.7891 530.232 19.4688 531.18 19.4688C532.185 19.4688 532.977 19.8229 533.555 20.5312C534.138 21.2396 534.43 22.1536 534.43 23.2734C534.43 24.4297 534.089 25.3672 533.406 26.0859C532.729 26.7995 531.839 27.1562 530.734 27.1562C529.599 27.1562 528.677 26.737 527.969 25.8984C527.266 25.0599 526.914 23.9609 526.914 22.6016V21.9531C526.914 19.9583 527.398 18.3958 528.367 17.2656C529.341 16.1354 530.74 15.5703 532.562 15.5703H532.758ZM530.719 21C530.302 21 529.919 21.1172 529.57 21.3516C529.227 21.5859 528.974 21.8984 528.812 22.2891V22.8672C528.812 23.7109 528.99 24.3828 529.344 24.8828C529.698 25.3776 530.156 25.625 530.719 25.625C531.281 25.625 531.727 25.4141 532.055 24.9922C532.383 24.5703 532.547 24.0156 532.547 23.3281C532.547 22.6406 532.38 22.0807 532.047 21.6484C531.714 21.2161 531.271 21 530.719 21Z" fill="black"/>
    <rect x="589" y="9" width="24" height="24" rx="2" fill="white"/>
    <path d="M604.422 16.6797L599.875 27H597.883L602.422 17.1484H596.539V15.625H604.422V16.6797Z" fill="black"/>
    <defs>
    <clipPath id="clip0">
    <rect width="16" height="16" fill="white" transform="translate(63 13)"/>
    </clipPath>
    </defs>
    </svg>
