<svg width="833" height="42" viewBox="0 0 833 42" fill="none" xmlns="http://www.w3.org/2000/svg">
    <rect width="833" height="42" fill="#B8C0CA"/>
    <path d="M71 0H736V42H71V0Z" fill="#4C627E"/>
    <line x1="85" y1="20.5" x2="722" y2="20.5" stroke="#B8C0CA"/>
    <circle cx="71" cy="21" r="14" fill="white"/>
    <g clip-path="url(#clip0)">
    <path d="M78.8538 20.395L72.6356 14.1765C71.7337 13.275 70.2668 13.275 69.3649 14.1765L63.1467 20.395C62.9514 20.5904 62.9514 20.9069 63.1467 21.1022C63.3417 21.2976 63.6586 21.2976 63.8536 21.1022L64.2502 20.7057V27.062C64.2502 27.8559 64.8938 28.4995 65.6877 28.4995H68.1877C68.3603 28.4995 68.5002 28.3596 68.5002 28.187V23.5619C68.5002 22.699 69.1998 21.9994 70.0627 21.9994H71.9378C72.8007 21.9994 73.5003 22.699 73.5003 23.5619V28.187C73.5003 28.3596 73.6402 28.4995 73.8128 28.4995H76.3128C77.1067 28.4995 77.7503 27.8559 77.7503 27.062V20.7057L78.1469 21.1022C78.2444 21.1997 78.3725 21.2488 78.5003 21.2488C78.6281 21.2488 78.7563 21.1997 78.8538 21.1022C79.0491 20.9069 79.0491 20.5904 78.8538 20.395Z" fill="#4C627E"/>
    </g>
    <circle cx="736" cy="21" r="14" fill="white"/>
    <path d="M743 21C743 24.866 739.866 28 736 28C732.134 28 729 24.866 729 21C729 17.134 732.134 14 736 14C739.866 14 743 17.134 743 21Z" fill="#4C627E"/>
    <rect x="106" y="9" width="24" height="24" rx="2" fill="white"/>
    <path d="M118.992 27H117.102V17.8672L114.312 18.8203V17.2188L118.75 15.5859H118.992V27Z" fill="black"/>
    <rect x="138" y="9" width="24" height="24" rx="2" fill="white"/>
    <path d="M153.5 27H145.852V25.6953L149.641 21.5625C150.188 20.9531 150.576 20.4453 150.805 20.0391C151.039 19.6276 151.156 19.2161 151.156 18.8047C151.156 18.263 151.003 17.8255 150.695 17.4922C150.393 17.1589 149.984 16.9922 149.469 16.9922C148.854 16.9922 148.378 17.1797 148.039 17.5547C147.701 17.9297 147.531 18.4427 147.531 19.0938H145.633C145.633 18.401 145.789 17.7786 146.102 17.2266C146.419 16.6693 146.87 16.237 147.453 15.9297C148.042 15.6224 148.719 15.4688 149.484 15.4688C150.589 15.4688 151.458 15.7474 152.094 16.3047C152.734 16.8568 153.055 17.6224 153.055 18.6016C153.055 19.1693 152.893 19.7656 152.57 20.3906C152.253 21.0104 151.729 21.7161 151 22.5078L148.219 25.4844H153.5V27Z" fill="black"/>
    <rect x="169" y="9" width="24" height="24" rx="2" fill="white"/>
    <path d="M179.047 20.4453H180.203C180.786 20.4401 181.247 20.2891 181.586 19.9922C181.93 19.6953 182.102 19.2656 182.102 18.7031C182.102 18.1615 181.958 17.7422 181.672 17.4453C181.391 17.1432 180.958 16.9922 180.375 16.9922C179.865 16.9922 179.445 17.1406 179.117 17.4375C178.789 17.7292 178.625 18.112 178.625 18.5859H176.727C176.727 18.0026 176.88 17.4714 177.188 16.9922C177.5 16.513 177.932 16.1406 178.484 15.875C179.042 15.6042 179.664 15.4688 180.352 15.4688C181.487 15.4688 182.378 15.7552 183.023 16.3281C183.674 16.8958 184 17.6875 184 18.7031C184 19.2135 183.836 19.6953 183.508 20.1484C183.185 20.5964 182.766 20.9349 182.25 21.1641C182.875 21.3776 183.349 21.7135 183.672 22.1719C184 22.6302 184.164 23.1771 184.164 23.8125C184.164 24.8333 183.812 25.6458 183.109 26.25C182.411 26.8542 181.492 27.1562 180.352 27.1562C179.258 27.1562 178.362 26.8646 177.664 26.2812C176.966 25.6979 176.617 24.9219 176.617 23.9531H178.516C178.516 24.4531 178.682 24.8594 179.016 25.1719C179.354 25.4844 179.807 25.6406 180.375 25.6406C180.964 25.6406 181.427 25.4844 181.766 25.1719C182.104 24.8594 182.273 24.4062 182.273 23.8125C182.273 23.2135 182.096 22.7526 181.742 22.4297C181.388 22.1068 180.862 21.9453 180.164 21.9453H179.047V20.4453Z" fill="black"/>
    <rect x="229" y="9" width="24" height="24" rx="2" fill="white"/>
    <path d="M243.273 22.9453H244.688V24.4688H243.273V27H241.375V24.4688H236.461L236.406 23.3125L241.312 15.625H243.273V22.9453ZM238.398 22.9453H241.375V18.1953L241.234 18.4453L238.398 22.9453Z" fill="black"/>
    <rect x="289" y="9" width="24" height="24" rx="2" fill="white"/>
    <path d="M297.359 21.3594L297.977 15.625H304.086V17.2656H299.555L299.242 19.9844C299.768 19.6823 300.362 19.5312 301.023 19.5312C302.107 19.5312 302.948 19.8776 303.547 20.5703C304.151 21.263 304.453 22.1953 304.453 23.3672C304.453 24.5234 304.12 25.4453 303.453 26.1328C302.786 26.8151 301.872 27.1562 300.711 27.1562C299.669 27.1562 298.805 26.862 298.117 26.2734C297.435 25.6797 297.065 24.8984 297.008 23.9297H298.844C298.917 24.4818 299.115 24.9062 299.438 25.2031C299.76 25.4948 300.182 25.6406 300.703 25.6406C301.286 25.6406 301.74 25.4323 302.062 25.0156C302.391 24.599 302.555 24.0312 302.555 23.3125C302.555 22.6198 302.375 22.0729 302.016 21.6719C301.656 21.2656 301.161 21.0625 300.531 21.0625C300.188 21.0625 299.896 21.1094 299.656 21.2031C299.417 21.2917 299.156 21.4688 298.875 21.7344L297.359 21.3594Z" fill="black"/>
    <rect x="329" y="9" width="24" height="24" rx="2" fill="white"/>
    <path d="M342.758 15.5703V17.1406H342.523C341.461 17.1562 340.612 17.4479 339.977 18.0156C339.341 18.5833 338.964 19.388 338.844 20.4297C339.453 19.7891 340.232 19.4688 341.18 19.4688C342.185 19.4688 342.977 19.8229 343.555 20.5312C344.138 21.2396 344.43 22.1536 344.43 23.2734C344.43 24.4297 344.089 25.3672 343.406 26.0859C342.729 26.7995 341.839 27.1562 340.734 27.1562C339.599 27.1562 338.677 26.737 337.969 25.8984C337.266 25.0599 336.914 23.9609 336.914 22.6016V21.9531C336.914 19.9583 337.398 18.3958 338.367 17.2656C339.341 16.1354 340.74 15.5703 342.562 15.5703H342.758ZM340.719 21C340.302 21 339.919 21.1172 339.57 21.3516C339.227 21.5859 338.974 21.8984 338.812 22.2891V22.8672C338.812 23.7109 338.99 24.3828 339.344 24.8828C339.698 25.3776 340.156 25.625 340.719 25.625C341.281 25.625 341.727 25.4141 342.055 24.9922C342.383 24.5703 342.547 24.0156 342.547 23.3281C342.547 22.6406 342.38 22.0807 342.047 21.6484C341.714 21.2161 341.271 21 340.719 21Z" fill="black"/>
    <rect x="402" y="9" width="24" height="24" rx="2" fill="white"/>
    <path d="M417.422 16.6797L412.875 27H410.883L415.422 17.1484H409.539V15.625H417.422V16.6797Z" fill="black"/>
    <rect x="469" y="9" width="24" height="24" rx="2" fill="white"/>
    <path d="M484.016 18.625C484.016 19.1823 483.872 19.6797 483.586 20.1172C483.299 20.5495 482.909 20.8906 482.414 21.1406C483.008 21.4167 483.464 21.7943 483.781 22.2734C484.104 22.7526 484.266 23.2943 484.266 23.8984C484.266 24.8984 483.927 25.6927 483.25 26.2812C482.573 26.8646 481.672 27.1562 480.547 27.1562C479.417 27.1562 478.51 26.862 477.828 26.2734C477.151 25.6849 476.812 24.8932 476.812 23.8984C476.812 23.2891 476.974 22.7422 477.297 22.2578C477.62 21.7734 478.073 21.401 478.656 21.1406C478.167 20.8906 477.779 20.5495 477.492 20.1172C477.211 19.6797 477.07 19.1823 477.07 18.625C477.07 17.6562 477.383 16.888 478.008 16.3203C478.633 15.7526 479.477 15.4688 480.539 15.4688C481.607 15.4688 482.453 15.7526 483.078 16.3203C483.703 16.888 484.016 17.6562 484.016 18.625ZM482.367 23.8047C482.367 23.2422 482.198 22.7891 481.859 22.4453C481.526 22.0964 481.083 21.9219 480.531 21.9219C479.979 21.9219 479.536 22.0938 479.203 22.4375C478.875 22.7812 478.711 23.237 478.711 23.8047C478.711 24.362 478.872 24.8073 479.195 25.1406C479.523 25.474 479.974 25.6406 480.547 25.6406C481.12 25.6406 481.565 25.4792 481.883 25.1562C482.206 24.8333 482.367 24.3828 482.367 23.8047ZM482.125 18.6953C482.125 18.2005 481.982 17.7943 481.695 17.4766C481.409 17.1536 481.023 16.9922 480.539 16.9922C480.055 16.9922 479.672 17.1458 479.391 17.4531C479.109 17.7552 478.969 18.1693 478.969 18.6953C478.969 19.2161 479.109 19.6302 479.391 19.9375C479.677 20.2448 480.062 20.3984 480.547 20.3984C481.031 20.3984 481.414 20.2448 481.695 19.9375C481.982 19.6302 482.125 19.2161 482.125 18.6953Z" fill="black"/>
    <rect x="540" y="9" width="24" height="24" rx="2" fill="white"/>
    <path d="M553.234 22.2422C552.599 22.9141 551.857 23.25 551.008 23.25C550.008 23.25 549.211 22.901 548.617 22.2031C548.023 21.5 547.727 20.5781 547.727 19.4375C547.727 18.6875 547.878 18.0078 548.18 17.3984C548.482 16.7891 548.911 16.3151 549.469 15.9766C550.026 15.638 550.672 15.4688 551.406 15.4688C552.552 15.4688 553.461 15.8958 554.133 16.75C554.805 17.6042 555.141 18.7474 555.141 20.1797V20.7109C555.141 22.763 554.677 24.3281 553.75 25.4062C552.823 26.4844 551.44 27.0312 549.602 27.0469H549.375V25.4766H549.648C550.768 25.4609 551.628 25.1927 552.227 24.6719C552.826 24.1458 553.161 23.3359 553.234 22.2422ZM551.406 21.7656C551.786 21.7656 552.143 21.6562 552.477 21.4375C552.81 21.2188 553.068 20.9167 553.25 20.5312V19.7891C553.25 18.9505 553.078 18.276 552.734 17.7656C552.391 17.2552 551.945 17 551.398 17C550.852 17 550.414 17.2266 550.086 17.6797C549.763 18.1276 549.602 18.6953 549.602 19.3828C549.602 20.0964 549.766 20.6719 550.094 21.1094C550.422 21.5469 550.859 21.7656 551.406 21.7656Z" fill="black"/>
    <rect x="580" y="9" width="24" height="24" rx="2" fill="white"/>
    <path d="M588.992 27H587.102V17.8672L584.312 18.8203V17.2188L588.75 15.5859H588.992V27ZM600.359 22.2109C600.359 23.8464 600.052 25.0807 599.438 25.9141C598.828 26.7422 597.898 27.1562 596.648 27.1562C595.419 27.1562 594.492 26.7526 593.867 25.9453C593.247 25.1328 592.93 23.9323 592.914 22.3438V20.375C592.914 18.7396 593.219 17.513 593.828 16.6953C594.443 15.8776 595.378 15.4688 596.633 15.4688C597.878 15.4688 598.805 15.8672 599.414 16.6641C600.029 17.4609 600.344 18.6536 600.359 20.2422V22.2109ZM598.461 20.0859C598.461 19.0182 598.315 18.237 598.023 17.7422C597.732 17.2422 597.268 16.9922 596.633 16.9922C596.013 16.9922 595.557 17.2292 595.266 17.7031C594.974 18.1719 594.82 18.9062 594.805 19.9062V22.4844C594.805 23.5469 594.953 24.3385 595.25 24.8594C595.547 25.3802 596.013 25.6406 596.648 25.6406C597.258 25.6406 597.708 25.401 598 24.9219C598.292 24.4375 598.445 23.6823 598.461 22.6562V20.0859Z" fill="black"/>
    <rect x="611" y="9" width="24" height="24" rx="2" fill="white"/>
    <path d="M619.992 27H618.102V17.8672L615.312 18.8203V17.2188L619.75 15.5859H619.992V27ZM629.086 27H627.195V17.8672L624.406 18.8203V17.2188L628.844 15.5859H629.086V27Z" fill="black"/>
    <rect x="687" y="9" width="24" height="24" fill="white"/>
    <path d="M699.992 27H698.102V17.8672L695.312 18.8203V17.2188L699.75 15.5859H699.992V27Z" fill="black"/>
    <rect x="687" y="9" width="24" height="24" rx="2" fill="white"/>
    <path d="M695.992 27H694.102V17.8672L691.312 18.8203V17.2188L695.75 15.5859H695.992V27ZM707.594 27H699.945V25.6953L703.734 21.5625C704.281 20.9531 704.669 20.4453 704.898 20.0391C705.133 19.6276 705.25 19.2161 705.25 18.8047C705.25 18.263 705.096 17.8255 704.789 17.4922C704.487 17.1589 704.078 16.9922 703.562 16.9922C702.948 16.9922 702.471 17.1797 702.133 17.5547C701.794 17.9297 701.625 18.4427 701.625 19.0938H699.727C699.727 18.401 699.883 17.7786 700.195 17.2266C700.513 16.6693 700.964 16.237 701.547 15.9297C702.135 15.6224 702.812 15.4688 703.578 15.4688C704.682 15.4688 705.552 15.7474 706.188 16.3047C706.828 16.8568 707.148 17.6224 707.148 18.6016C707.148 19.1693 706.987 19.7656 706.664 20.3906C706.346 21.0104 705.823 21.7161 705.094 22.5078L702.312 25.4844H707.594V27Z" fill="black"/>
    <defs>
    <clipPath id="clip0">
    <rect width="16" height="16" fill="white" transform="translate(63 13)"/>
    </clipPath>
    </defs>
    </svg>
