<svg width="61" height="56" viewBox="0 0 61 56" fill="none" xmlns="http://www.w3.org/2000/svg">
<g filter="url(#filter0_d)">
<path d="M43.0258 1.53003H8.65821C6.08895 1.53003 4 3.46228 4 5.83668V28.8057C4 31.181 6.08895 33.1123 8.65821 33.1123C11.9179 33.1123 12.3558 33.1123 12.3558 33.1123H13.3164V40.2902C13.3164 41.5707 14.9955 42.2033 15.9664 41.3056C20.3017 37.2966 17.2573 40.1121 24.3731 33.5334C24.665 33.2635 25.0583 33.1123 25.4714 33.1123H43.0257C45.5939 33.1123 47.6839 31.181 47.6839 28.8057C47.6839 15.4014 47.6839 19.2735 47.6839 5.83668C47.684 3.46228 45.594 1.53003 43.0258 1.53003ZM11.7638 10.1433H33.7094C34.5675 10.1433 35.2621 10.7855 35.2621 11.5789C35.2621 12.3723 34.5675 13.0144 33.7094 13.0144H11.7638C10.9056 13.0144 10.2111 12.3723 10.2111 11.5789C10.2111 10.7855 10.9056 10.1433 11.7638 10.1433ZM27.4983 24.499H11.7638C10.9056 24.499 10.2111 23.8568 10.2111 23.0635C10.2111 22.2701 10.9056 21.6279 11.7638 21.6279H27.4983C28.3564 21.6279 29.051 22.2701 29.051 23.0635C29.051 23.8568 28.3564 24.499 27.4983 24.499ZM39.9203 18.7567H11.7638C10.9056 18.7567 10.2111 18.1145 10.2111 17.3212C10.2111 16.5278 10.9056 15.8856 11.7638 15.8856H39.9203C40.7784 15.8856 41.473 16.5278 41.473 17.3212C41.473 18.1145 40.7784 18.7567 39.9203 18.7567Z" fill="#428BFF"/>
<path d="M52.3417 7.27222H50.8097V28.8057C50.8097 32.7633 47.306 35.9835 43.0252 35.9835H26.3211L23.0085 38.8355H36.1713L45.0329 47.0474C46.0064 47.9475 47.6834 47.3157 47.6834 46.0324V38.8355H52.3416C54.9102 38.8355 56.9998 36.9227 56.9998 34.5479V11.579C56.9999 9.20408 54.9105 7.27222 52.3417 7.27222Z" fill="#428BFF"/>
</g>
<defs>
<filter id="filter0_d" x="0" y="0" width="61" height="57" filterUnits="userSpaceOnUse" color-interpolation-filters="sRGB">
<feFlood flood-opacity="0" result="BackgroundImageFix"/>
<feColorMatrix in="SourceAlpha" type="matrix" values="0 0 0 0 0 0 0 0 0 0 0 0 0 0 0 0 0 0 127 0"/>
<feOffset dy="4"/>
<feGaussianBlur stdDeviation="2"/>
<feColorMatrix type="matrix" values="0 0 0 0 0 0 0 0 0 0 0 0 0 0 0 0 0 0 0.15 0"/>
<feBlend mode="normal" in2="BackgroundImageFix" result="effect1_dropShadow"/>
<feBlend mode="normal" in="SourceGraphic" in2="effect1_dropShadow" result="shape"/>
</filter>
</defs>
</svg>
