<svg width="38" height="42" viewBox="0 0 38 42" fill="none" xmlns="http://www.w3.org/2000/svg">
<path d="M15.115 19.7874L28.0025 11.5637L21.9412 7.6958L9.05371 15.9195L15.115 19.7874Z" fill="white"/>
<path d="M14.6211 20.7822L1.70703 12.5579V29.0079L14.6211 37.2323V20.7822Z" fill="white"/>
<path d="M27.4609 29.2031H26.0508V30.7617H27.4609V29.2031Z" fill="white"/>
<path d="M15.6602 20.7822V37.2323L22.7109 32.7259V20.851C22.7081 20.1975 22.9402 19.5695 23.3562 19.1052C23.7723 18.6409 24.3382 18.3783 24.9294 18.3751H26.7781C26.8834 17.9538 27.11 17.5818 27.4235 17.3154C27.7371 17.049 28.1206 16.9027 28.5161 16.8985H28.5V12.5579L15.6602 20.7822Z" fill="#4684E6"/>
<path d="M31.531 18.0469H28.512C28.0955 18.0469 27.7578 18.4201 27.7578 18.8804V18.936C27.7578 19.3964 28.0955 19.7695 28.512 19.7695H31.531C31.9475 19.7695 32.2852 19.3964 32.2852 18.936V18.8804C32.2852 18.4201 31.9475 18.0469 31.531 18.0469Z" fill="white"/>
<path d="M20.9021 7.03297L15.115 3.34009L2.22754 11.5639L8.0146 15.2568L20.9021 7.03297Z" fill="white"/>
<path d="M35.0993 19.5234H33.2303C33.1189 19.9299 32.8913 20.2855 32.5816 20.5369C32.2719 20.7883 31.8968 20.922 31.5126 20.918H28.5162C28.1319 20.922 27.7569 20.7883 27.4472 20.5369C27.1375 20.2855 26.9099 19.9299 26.7984 19.5234H24.9295C24.7731 19.5248 24.6186 19.5603 24.4746 19.6278C24.3307 19.6953 24.2002 19.7935 24.0907 19.9168C23.9811 20.0401 23.8947 20.1861 23.8362 20.3463C23.7778 20.5066 23.7485 20.6781 23.7501 20.8509V37.4294C23.7491 37.6002 23.7791 37.7695 23.8382 37.9273C23.8973 38.0851 23.9844 38.2283 24.0943 38.3484C24.2041 38.4685 24.3346 38.5631 24.478 38.6267C24.6215 38.6903 24.775 38.7216 24.9295 38.7187H35.0993C35.2546 38.7219 35.4089 38.6909 35.5532 38.6276C35.6976 38.5643 35.8291 38.47 35.9402 38.35C36.0512 38.23 36.1396 38.0869 36.2002 37.9288C36.2608 37.7708 36.2923 37.601 36.293 37.4294V20.8509C36.293 20.5002 36.1674 20.1639 35.9438 19.9152C35.7201 19.6665 35.4165 19.5256 35.0993 19.5234ZM25.0118 23.3816C25.0113 23.3063 25.0243 23.2316 25.05 23.1618C25.0756 23.092 25.1135 23.0285 25.1614 22.9749C25.2093 22.9214 25.2663 22.8787 25.3291 22.8495C25.392 22.8203 25.4594 22.8051 25.5275 22.8047H27.9749C28.1135 22.805 28.2464 22.8658 28.3448 22.9739C28.4431 23.0819 28.4989 23.2284 28.5001 23.3816V23.768C28.4994 23.9205 28.444 24.0664 28.3461 24.1738C28.2481 24.2812 28.1157 24.3413 27.9777 24.3409C27.8683 24.3449 27.7608 24.3091 27.6716 24.2391C27.5824 24.169 27.5164 24.0686 27.4838 23.9531H26.0508V25.5117H26.0713C26.2091 25.5117 26.3413 25.5722 26.4387 25.6799C26.5361 25.7876 26.5909 25.9336 26.5909 26.0859C26.5909 26.2382 26.5361 26.3843 26.4387 26.492C26.3413 26.5997 26.2091 26.6602 26.0713 26.6602H25.5275C25.4595 26.6601 25.3922 26.6453 25.3294 26.6164C25.2667 26.5875 25.2097 26.5452 25.1617 26.4919C25.1138 26.4386 25.0759 26.3754 25.0501 26.3058C25.0244 26.2362 25.0114 26.1617 25.0118 26.0866V23.3816ZM25.0118 28.6289C25.0118 28.4766 25.0665 28.3306 25.1639 28.2229C25.2614 28.1152 25.3935 28.0547 25.5313 28.0547H27.9805C28.1183 28.0547 28.2505 28.1152 28.3479 28.2229C28.4453 28.3306 28.5001 28.4766 28.5001 28.6289V31.3359C28.5001 31.4882 28.4453 31.6343 28.3479 31.742C28.2505 31.8497 28.1183 31.9102 27.9805 31.9102H25.5313C25.3935 31.9102 25.2614 31.8497 25.1639 31.742C25.0665 31.6343 25.0118 31.4882 25.0118 31.3359V28.6289ZM26.0714 37.1602H25.5275C25.4605 37.1623 25.3937 37.1496 25.3312 37.1227C25.2687 37.0958 25.2117 37.0553 25.1636 37.0036C25.1155 36.952 25.0773 36.8901 25.0512 36.8218C25.0251 36.7535 25.0117 36.6801 25.0118 36.6059V33.901C25.0102 33.7468 25.0633 33.5981 25.1597 33.4866C25.2561 33.3752 25.3881 33.3099 25.5275 33.3047H27.9749C28.1153 33.3094 28.2485 33.3743 28.3465 33.4855C28.4445 33.5968 28.4995 33.7457 28.5001 33.901V34.4543C28.4971 34.6053 28.4407 34.749 28.343 34.8546C28.2453 34.9601 28.114 35.0192 27.9774 35.019C27.8407 35.0189 27.7096 34.9596 27.6121 34.8538C27.5145 34.748 27.4584 34.6041 27.4557 34.4531H26.0508V36.0117H26.0714C26.2092 36.0117 26.3413 36.0722 26.4388 36.1799C26.5362 36.2876 26.5909 36.4336 26.5909 36.5859C26.5909 36.7382 26.5362 36.8843 26.4388 36.992C26.3413 37.0997 26.2092 37.1602 26.0714 37.1602ZM29.9058 34.9241L28.0168 37.0119C27.9686 37.0652 27.9113 37.1076 27.8483 37.1364C27.7852 37.1653 27.7177 37.1801 27.6494 37.1801C27.5812 37.1801 27.5137 37.1653 27.4506 37.1364C27.3876 37.1076 27.3303 37.0652 27.2821 37.0119L26.4516 36.0943C26.4034 36.041 26.3651 35.9777 26.339 35.908C26.3129 35.8384 26.2994 35.7637 26.2994 35.6883C26.2994 35.6129 26.3129 35.5382 26.339 35.4685C26.3651 35.3988 26.4034 35.3355 26.4516 35.2822C26.4999 35.2289 26.5571 35.1866 26.6202 35.1577C26.6832 35.1289 26.7508 35.114 26.819 35.114C26.8872 35.114 26.9548 35.1289 27.0178 35.1577C27.0809 35.1866 27.1381 35.2289 27.1864 35.2822L27.6492 35.7938L29.1707 34.1122C29.2681 34.0045 29.4003 33.944 29.5381 33.944C29.6759 33.944 29.808 34.0045 29.9055 34.1122C30.0029 34.2199 30.0576 34.366 30.0576 34.5183C30.0576 34.6706 30.0029 34.8166 29.9055 34.9243L29.9058 34.9241ZM29.9058 24.3216L28.0168 26.4095C27.9686 26.4628 27.9113 26.5051 27.8483 26.534C27.7852 26.5628 27.7177 26.5777 27.6494 26.5777C27.5812 26.5777 27.5137 26.5628 27.4506 26.534C27.3876 26.5051 27.3303 26.4628 27.2821 26.4095L26.4516 25.4919C26.4034 25.4385 26.3651 25.3752 26.339 25.3056C26.3129 25.2359 26.2994 25.1612 26.2994 25.0858C26.2994 25.0104 26.3129 24.9357 26.339 24.8661C26.3651 24.7964 26.4034 24.7331 26.4516 24.6798C26.4999 24.6264 26.5571 24.5841 26.6202 24.5553C26.6832 24.5264 26.7508 24.5116 26.819 24.5116C26.8872 24.5116 26.9548 24.5264 27.0178 24.5553C27.0809 24.5841 27.1381 24.6264 27.1864 24.6798L27.6492 25.1914L29.1707 23.5097C29.2681 23.4021 29.4003 23.3416 29.5381 23.3416C29.6759 23.3416 29.808 23.4021 29.9055 23.5097C30.0029 23.6174 30.0576 23.7635 30.0576 23.9158C30.0576 24.0681 30.0029 24.2142 29.9055 24.3219L29.9058 24.3216ZM34.5012 35.8477H31.2381C31.1003 35.8477 30.9681 35.7872 30.8707 35.6795C30.7733 35.5718 30.7185 35.4257 30.7185 35.2734C30.7185 35.1211 30.7733 34.9751 30.8707 34.8674C30.9681 34.7597 31.1003 34.6992 31.2381 34.6992H34.5012C34.639 34.6992 34.7711 34.7597 34.8685 34.8674C34.966 34.9751 35.0207 35.1211 35.0207 35.2734C35.0207 35.4257 34.966 35.5718 34.8685 35.6795C34.7711 35.7872 34.639 35.8477 34.5012 35.8477ZM34.5012 30.5977H31.2381C31.1003 30.5977 30.9681 30.5372 30.8707 30.4295C30.7733 30.3218 30.7185 30.1757 30.7185 30.0234C30.7185 29.8711 30.7733 29.7251 30.8707 29.6174C30.9681 29.5097 31.1003 29.4492 31.2381 29.4492H34.5012C34.639 29.4492 34.7711 29.5097 34.8685 29.6174C34.966 29.7251 35.0207 29.8711 35.0207 30.0234C35.0207 30.1757 34.966 30.3218 34.8685 30.4295C34.7711 30.5372 34.639 30.5977 34.5012 30.5977ZM34.5012 25.3477H31.2381C31.1003 25.3477 30.9681 25.2872 30.8707 25.1795C30.7733 25.0718 30.7185 24.9257 30.7185 24.7734C30.7185 24.6211 30.7733 24.4751 30.8707 24.3674C30.9681 24.2597 31.1003 24.1992 31.2381 24.1992H34.5012C34.639 24.1992 34.7711 24.2597 34.8685 24.3674C34.966 24.4751 35.0207 24.6211 35.0207 24.7734C35.0207 24.9257 34.966 25.0718 34.8685 25.1795C34.7711 25.2872 34.639 25.3477 34.5012 25.3477Z" fill="white"/>
</svg>
