<svg width="28" height="28" viewBox="0 0 28 28" fill="none" xmlns="http://www.w3.org/2000/svg">
<path fill-rule="evenodd" clip-rule="evenodd" d="M20.8919 12.4834H28.0001V14.9527C28.0001 15.5632 27.5018 16.0619 26.8918 16.0619H24.335L22.8098 16.8323L20.8918 16.0619V12.4834H20.8919Z" fill="#AEAEAE"/>
<path fill-rule="evenodd" clip-rule="evenodd" d="M22.0001 8.90002H26.8917C27.5018 8.90002 28 9.39867 28 10.0092V11.844H20.8918V10.0092C20.8918 9.39867 21.3901 8.90002 22.0001 8.90002Z" fill="#AEAEAE"/>
<path fill-rule="evenodd" clip-rule="evenodd" d="M20.8918 11.2911H28V13.0348H20.8918V11.2911Z" fill="#AEAEAE"/>
<path fill-rule="evenodd" clip-rule="evenodd" d="M26.5163 11.291H27.4266H27.9999V10.0091C27.9999 9.59197 27.7667 9.22759 27.4266 9.03897C27.2669 8.95109 27.0848 8.8999 26.8916 8.8999H25.408C26.018 8.8999 26.5163 9.39854 26.5163 10.0091V11.291H26.5163Z" fill="#AEAEAE"/>
<path fill-rule="evenodd" clip-rule="evenodd" d="M26.5164 13.0348H27.4266H27.9999V12.4834V11.8441V11.2911H27.4266H26.5164V11.8441V12.4834V13.0348Z" fill="#AEAEAE"/>
<path fill-rule="evenodd" clip-rule="evenodd" d="M26.5165 13.0348V14.9527C26.5165 15.5633 26.0182 16.0619 25.4082 16.0619H26.8918C27.085 16.0619 27.2671 16.0124 27.4268 15.9245C27.767 15.7343 28.0001 15.3699 28.0001 14.9527V13.0348H27.4268H26.5165Z" fill="#AEAEAE"/>
<path fill-rule="evenodd" clip-rule="evenodd" d="M20.892 16.0618H24.3351V17.6457C24.3351 18.0261 24.0237 18.3361 23.6452 18.3361H12.4348C12.4348 17.3404 12.4348 16.8337 13.1966 16.8337L14.7137 16.8321C15.6687 16.8306 16.2947 16.586 16.6444 16.0618H20.892V16.0618Z" fill="#AEAEAE"/>
<path fill-rule="evenodd" clip-rule="evenodd" d="M13.7867 18.3361H23.6449C24.223 19.343 24.6877 20.5529 24.2869 22.8671C23.6161 20.5848 16.8034 21.4958 16.1039 24.1298H8.5869C8.30263 23.4856 8.03433 22.8495 7.79956 22.2071H9.91876C14.2051 20.5896 12.8269 21.3104 13.7867 18.3361Z" fill="#AEAEAE"/>
<path fill-rule="evenodd" clip-rule="evenodd" d="M13.1781 12.1494C13.3251 12.9229 13.5247 13.6853 13.7482 14.3342L15.9152 15.1833L18.3315 14.3342C18.2469 9.76156 16.5381 7.56875 15.0849 6.85912C14.5611 6.46029 14.0245 6.31006 14.0245 6.31006C14.0245 6.31006 13.3186 7.4393 13.2819 7.4393C13.0104 8.085 12.9082 8.9273 12.9257 9.8367L13.1781 12.1494Z" fill="#ECEAEC"/>
<path fill-rule="evenodd" clip-rule="evenodd" d="M18.3319 14.3342H13.7485C12.6929 14.4493 11.3945 15.2533 11.3945 17.7433V20.3533L12.4347 20.9729L13.7868 20.3533V18.3363C13.7868 17.3406 13.7868 16.8339 14.5485 16.8339L16.0657 16.8323C17.0207 16.8307 17.6467 16.5862 17.9964 16.0619C18.2664 15.6576 18.3702 15.087 18.3319 14.3342Z" fill="#AEAEAE"/>
<path fill-rule="evenodd" clip-rule="evenodd" d="M18.332 14.3342C18.2474 9.76155 16.5386 7.56875 15.0853 6.85913C14.8698 7.01094 14.6302 7.13563 14.3667 7.22833C15.6539 8.20165 16.9442 10.3769 17.0177 14.3342H18.332Z" fill="#DAD8DB"/>
<path fill-rule="evenodd" clip-rule="evenodd" d="M18.3319 14.3342H17.0176C17.056 15.087 16.9522 15.6576 16.6823 16.062C16.4619 16.3928 16.1297 16.6725 15.6746 16.8324H16.0658C17.0209 16.8308 17.6469 16.5862 17.9966 16.062C18.2664 15.6576 18.3702 15.087 18.3319 14.3342Z" fill="#AEAEAE"/>
<path fill-rule="evenodd" clip-rule="evenodd" d="M16.104 24.1298C16.104 21.766 17.9773 19.8832 20.2881 19.8832C22.1678 19.8832 23.7583 21.1298 24.2869 22.8671C24.3956 23.2235 24.4594 23.6024 24.4706 23.9955C24.4754 24.149 24.37 24.1298 24.2262 24.1298C21.5194 24.1298 18.8109 24.1282 16.104 24.1298Z" fill="#AEAEAE"/>
<path fill-rule="evenodd" clip-rule="evenodd" d="M17.1565 24.1299H23.5253C23.4343 25.8464 22.0433 27.2114 20.3409 27.2114C18.6385 27.2114 17.2475 25.8464 17.1565 24.1299Z" fill="#AEAEAE"/>
<path fill-rule="evenodd" clip-rule="evenodd" d="M0.983608 23.4506L6.46286 24.7116C6.11472 26.2252 4.60556 27.1713 3.09323 26.8229C1.57932 26.4745 0.635467 24.9641 0.983608 23.4506Z" fill="#AEAEAE"/>
<path fill-rule="evenodd" clip-rule="evenodd" d="M0.573344 21.9146C1.34788 20.7878 2.69254 20.1341 4.0979 20.2748C6.57645 20.799 7.38292 22.2806 7.5442 24.1282C7.54102 24.3791 7.51384 24.6317 7.45954 24.8842C7.44357 24.9545 7.39725 24.9258 7.32058 24.9082L6.46297 24.7116L0.983719 23.4505L0.573289 23.3562L0 23.2236C0.110195 22.7409 0.308219 22.2998 0.573344 21.9146Z" fill="#ECEAEC"/>
<path fill-rule="evenodd" clip-rule="evenodd" d="M4.09302 20.2685L6.30644 12.6096L7.30296 12.1637L8.41765 12.6096C6.95323 16.6692 7.36202 19.5029 8.3506 22.2072C8.58696 22.8498 8.85526 23.4858 9.13794 24.1299H7.54571L4.09302 20.2685Z" fill="#AEAEAE"/>
<path fill-rule="evenodd" clip-rule="evenodd" d="M10.9473 4.02199L13.5441 3.46899C13.8076 3.49295 14.5614 4.1259 14.5614 4.52227L14.0088 7.332C13.7788 7.40074 13.5345 7.43908 13.2822 7.43908C11.8992 7.43908 10.7781 6.31553 10.7781 4.93139C10.7781 4.61016 10.8371 4.30325 10.9473 4.02199Z" fill="#FFECE4"/>
<path fill-rule="evenodd" clip-rule="evenodd" d="M10.1089 4.02211C10.1089 2.23525 11.5238 0.788818 13.2709 0.788818C15.018 0.788818 16.433 2.23525 16.433 4.02211C16.433 5.20161 15.9538 6.25008 15.0851 6.85902C14.7753 7.07799 14.4143 7.23943 14.0087 7.33212V4.52233C14.0087 4.12596 13.8075 4.04606 13.544 4.02205H10.9473H10.1089V4.02211Z" fill="#AEAEAE"/>
<path fill-rule="evenodd" clip-rule="evenodd" d="M11.6165 1.26668C12.0972 0.962998 12.6641 0.788818 13.2709 0.788818C15.018 0.788818 16.433 2.23525 16.433 4.02211C16.433 5.20161 15.9538 6.25008 15.0851 6.85902C14.8647 7.01406 14.6203 7.14033 14.352 7.23303C14.994 6.58252 15.3422 5.64917 15.3422 4.61984C15.3422 2.75308 13.8618 1.2395 12.0364 1.2395C11.8943 1.2395 11.7538 1.24748 11.6165 1.26668Z" fill="#AEAEAE"/>
<path fill-rule="evenodd" clip-rule="evenodd" d="M11.3945 20.3533H13.7868V21.8605C13.7868 22.1833 13.6112 22.2073 13.3524 22.2073H9.91894C9.8502 20.6953 10.7653 20.3533 11.3945 20.3533Z" fill="#AEAEAE"/>
<path fill-rule="evenodd" clip-rule="evenodd" d="M8.35067 22.2072C7.36214 19.503 6.95329 16.6692 8.41772 12.6096H7.59686C7.59368 12.6096 7.59046 12.6096 7.58729 12.6096H7.29186C5.82744 16.6692 6.23465 19.5029 7.22476 22.2072C7.45954 22.8497 7.72783 23.4858 8.0121 24.1299H8.58703H9.13801C8.85533 23.4858 8.58703 22.8497 8.35067 22.2072Z" fill="#AEAEAE"/>
<path fill-rule="evenodd" clip-rule="evenodd" d="M7.54411 24.1282L4.09782 20.2748C3.74169 20.2396 3.38874 20.254 3.04858 20.3163L6.36073 24.0195C6.35755 24.2352 6.33677 24.4542 6.29527 24.6732L6.46294 24.7115L7.32055 24.9081C7.39722 24.9257 7.44354 24.9545 7.45951 24.8842C7.51376 24.6317 7.54088 24.3791 7.54411 24.1282Z" fill="#DAD8DB"/>
<path fill-rule="evenodd" clip-rule="evenodd" d="M23.6451 18.3361H13.7869V19.2039H21.8868C22.5463 19.2039 22.8594 19.4884 23.1165 20.0654C23.3385 20.5657 23.3433 20.7287 23.4439 21.3328C23.8224 21.7723 24.113 22.2934 24.2871 22.8671C24.6879 20.5528 24.2232 19.343 23.6451 18.3361Z" fill="#AEAEAE"/>
<path fill-rule="evenodd" clip-rule="evenodd" d="M23.4438 21.3328C22.6772 20.4425 21.5481 19.8832 20.2881 19.8832C19.9719 19.8832 19.6653 19.9183 19.3699 19.9839C21.2559 20.4106 22.575 22.076 22.6325 23.9955C22.6357 24.101 22.5878 24.125 22.5112 24.1298H23.5252H24.2263C24.3701 24.1298 24.4755 24.149 24.4707 23.9955C24.4595 23.6024 24.3956 23.2235 24.287 22.8671C24.2839 22.8559 24.2806 22.8464 24.2775 22.8368C24.2775 22.8368 24.2775 22.8368 24.2775 22.8352C24.1018 22.2742 23.8159 21.7643 23.4438 21.3328Z" fill="#AEAEAE"/>
<path fill-rule="evenodd" clip-rule="evenodd" d="M6.29552 24.6732L0.983884 23.4506C0.924821 23.7015 0.90404 23.954 0.91361 24.2002L5.12963 25.1703L5.29572 25.2087C5.1392 25.8959 4.74157 26.4665 4.21296 26.8517C5.29091 26.6615 6.20282 25.8464 6.46313 24.7116L6.29552 24.6732Z" fill="#5D5360"/>
<path fill-rule="evenodd" clip-rule="evenodd" d="M22.5112 24.1299H17.1565C17.174 24.4656 17.2427 24.7884 17.3529 25.0905H21.0835H22.0976C22.0576 25.8417 21.7702 26.5241 21.3166 27.0563C22.5479 26.652 23.4534 25.5028 23.5252 24.1299H22.5112V24.1299Z" fill="#5D5360"/>
<path fill-rule="evenodd" clip-rule="evenodd" d="M24.335 17.6457V16.0619H22.1711V17.6457C22.1711 18.0262 21.8597 18.3362 21.4812 18.3362H23.6451C24.0236 18.3362 24.335 18.0262 24.335 17.6457Z" fill="#5D5360"/>
<path fill-rule="evenodd" clip-rule="evenodd" d="M10.791 4.66303H12.9246C13.1881 4.68699 13.3893 4.76852 13.3893 5.1649V7.43602C13.6033 7.42645 13.8109 7.39128 14.0089 7.33211V4.52238C14.0089 4.126 13.8077 4.0461 13.5442 4.02209H10.9475C10.8693 4.22351 10.815 4.43925 10.791 4.66303Z" fill="#FFDDCE"/>
<path fill-rule="evenodd" clip-rule="evenodd" d="M5.8449 10.1979L8.83286 11.1856C8.9798 11.3167 8.81372 12.6528 8.71468 12.6097H6.30641H5.24121V10.4105C5.24121 9.97736 5.46641 10.0732 5.8449 10.1979Z" fill="#AEAEAE"/>
<path fill-rule="evenodd" clip-rule="evenodd" d="M10.2257 12.6094H9.97497H8.71497C7.90368 12.6094 7.87972 11.2637 8.83315 11.1854L10.2257 11.0735L10.5994 11.8647L10.2257 12.6094Z" fill="#FFECE4"/>
<path fill-rule="evenodd" clip-rule="evenodd" d="M12.9261 9.83662L13.4259 9.40667C14.678 8.32785 16.2606 10.1483 14.587 11.2351L13.1784 12.1493L12.4694 12.6096H10.2256V11.0737L11.6197 10.9602L12.9261 9.83662Z" fill="#AEAEAE"/>
<path fill-rule="evenodd" clip-rule="evenodd" d="M10.2256 12.6096V11.8648H9.92699H9.76571H9.51338H8.25338C8.20548 11.8648 8.16074 11.8617 8.11765 11.8521C8.07133 12.2228 8.28056 12.6096 8.71495 12.6096H9.97495H10.2256Z" fill="#FFDDCE"/>
<path fill-rule="evenodd" clip-rule="evenodd" d="M14.587 11.2351C15.5995 10.5766 15.4206 9.65121 14.8441 9.26123C14.8904 9.66078 14.7004 10.1195 14.1255 10.4919L13.0283 11.2031L12.7185 11.4061L12.0094 11.8648H10.2256V12.6096H12.4694L13.1784 12.1493L14.587 11.2351Z" fill="#AEAEAE"/>
<path fill-rule="evenodd" clip-rule="evenodd" d="M8.83284 11.1856L7.63031 10.7892C7.22787 11.2207 7.03301 12.0614 7.29174 12.6096H8.4176H8.71466C8.28027 12.6096 8.07109 12.2228 8.11736 11.852C8.15887 11.5308 8.39047 11.2223 8.83284 11.1856Z" fill="#AEAEAE"/>
</svg>
