<svg width="85" height="82" viewBox="0 0 85 82" fill="none" xmlns="http://www.w3.org/2000/svg">
<path d="M13.4358 27.8215H37.9921L41.5003 21.9644H13.4358V27.8215Z" fill="#4684E6"/>
<path d="M26.6383 75.3061C26.5886 75.3061 26.5386 75.3045 26.4886 75.301C25.9026 75.2608 25.3565 74.9873 24.9705 74.5402L21.6271 70.6685C20.8241 69.7387 20.9198 68.3276 21.841 67.5169C22.7621 66.7062 24.1597 66.8029 24.9627 67.7328L26.8501 69.9186L33.393 64.1437C34.3131 63.3319 35.7108 63.4267 36.515 64.3552C37.3193 65.284 37.2255 66.6951 36.3055 67.5071L28.0946 74.7542C27.69 75.111 27.1721 75.3061 26.6383 75.3061Z" fill="#4684E6" fill-opacity="0.01"/>
<path d="M24.6614 42.4645H31.6776V68.8216H24.6614V42.4645Z" fill="white"/>
<path d="M58.8732 62.373H60.4035C62.0937 62.373 63.4639 63.8165 63.4639 65.5972C63.4639 67.3779 62.0937 68.8215 60.4035 68.8215H41.1501C40.3235 68.8215 39.5235 68.5264 38.8674 67.9965C37.1371 66.5989 35.3063 66.3027 33.0808 66.1635V44.6607C38.3145 38.361 44.9467 38.7679 44.4827 29.354C44.4023 27.7251 45.6346 26.3572 47.1828 26.3572C48.3671 26.3572 49.4202 27.167 49.7658 28.3603C51.1704 33.2109 51.5217 38.0249 49.6673 43.0264H63.6978C65.388 43.0264 66.7582 44.4699 66.7582 46.2506C66.7582 48.0313 65.388 49.4749 63.6978 49.4749H59.8903H62.6615C64.3517 49.4749 65.7219 50.9184 65.7219 52.6991C65.7219 54.4798 64.3517 55.9234 62.6615 55.9234H59.8903H61.644C63.3342 55.9234 64.7044 57.3669 64.7044 59.1476C64.7044 60.9283 63.3342 62.3719 61.644 62.3719L58.8732 62.373Z" fill="white"/>
<path d="M15.7556 38.3828H24.6332V68.5053H15.7556V38.3828Z" fill="#4684E6"/>
<path d="M60.6223 63.5918H45.4604C44.7443 63.5918 44.1638 63.9664 44.1638 64.4285C44.1638 64.8906 44.7443 65.2653 45.4604 65.2653H60.6223C61.3384 65.2653 61.9189 64.8906 61.9189 64.4285C61.9189 63.9664 61.3384 63.5918 60.6223 63.5918Z" fill="#4684E6" fill-opacity="0.01"/>
<path d="M60.6223 68.6123H45.4604C44.7443 68.6123 44.1638 68.9869 44.1638 69.449C44.1638 69.9111 44.7443 70.2858 45.4604 70.2858H60.6223C61.3384 70.2858 61.9189 69.9111 61.9189 69.449C61.9189 68.9869 61.3384 68.6123 60.6223 68.6123Z" fill="#4684E6" fill-opacity="0.01"/>
<path d="M60.6223 73.6326H45.4604C44.7443 73.6326 44.1638 74.0072 44.1638 74.4693C44.1638 74.9314 44.7443 75.306 45.4604 75.306H60.6223C61.3384 75.306 61.9189 74.9314 61.9189 74.4693C61.9189 74.0072 61.3384 73.6326 60.6223 73.6326Z" fill="#4684E6" fill-opacity="0.01"/>
<path d="M73.2664 0H9.92799C9.22417 0 8.65356 0.537809 8.65356 1.20118V80.7988C8.65356 81.4622 9.22417 82 9.92799 82H73.2664C73.9702 82 74.5408 81.4622 74.5408 80.7988V1.20118C74.5408 0.537809 73.9702 0 73.2664 0ZM11.2024 2.40236H46.1308L43.6022 4.97497H11.2024V2.40236ZM71.9919 79.5976H11.2024V7.37733H44.1587C44.5135 7.37733 44.8525 7.23784 45.0936 6.99248L49.6052 2.40236H71.9918L71.9919 79.5976Z" fill="black" fill-opacity="0.01"/>
<path d="M63.812 12.5581H66.5825V77.8091H16.6127V67.0635C16.6127 66.3684 16.045 65.8048 15.3449 65.8048C14.6448 65.8048 14.0771 66.3684 14.0771 67.0635V79.0678C14.0771 79.7629 14.6448 80.3265 15.3449 80.3265H67.8502C68.5503 80.3265 69.118 79.7629 69.118 79.0678V11.2994C69.118 10.6043 68.5503 10.0408 67.8502 10.0408H63.812C63.1118 10.0408 62.5442 10.6043 62.5442 11.2994C62.5442 11.9946 63.1118 12.5581 63.812 12.5581V12.5581Z" fill="#4684E6" fill-opacity="0.01"/>
<path d="M13.98 11.6692V59.6524C13.98 60.3158 14.5506 60.8536 15.2544 60.8536C15.9582 60.8536 16.5288 60.3158 16.5288 59.6524V12.8704H58.4234C59.1272 12.8704 59.6978 12.3326 59.6978 11.6692C59.6978 11.0058 59.1272 10.468 58.4234 10.468H15.2544C14.5506 10.468 13.98 11.0058 13.98 11.6692Z" fill="#4684E6" fill-opacity="0.01"/>
<path d="M25.0494 36.9486H15.7098C14.8079 36.9486 14.0767 37.7173 14.0767 38.6655V69.494C14.0767 70.4422 14.8079 71.2109 15.7098 71.2109H25.0494H31.6409C32.5429 71.2109 33.2741 70.4422 33.2741 69.494L33.275 67.7771C34.6773 67.9809 35.5485 67.9826 36.5889 68.8213C37.5734 69.6148 39.0067 70.2856 40.2297 70.2856H60.721C63.4177 70.2856 65.355 69.4596 65.355 66.6249C65.355 65.6454 64.4058 63.7441 63.9518 62.9642C65.9691 61.4352 66.7304 58.5888 65.355 56.3749C67.4146 54.2439 67.1849 52.2131 65.8516 49.7856C67.0002 48.8441 68.1615 47.1712 68.1615 45.5248C68.1615 42.6899 66.6483 41.1035 63.9518 41.1035L50.6212 41.1941C51.7677 36.7673 51.4593 31.6627 49.9196 26.3571C49.339 24.3575 48.6486 23.9688 46.6506 23.9688C43.7904 24.2757 43.7481 25.5348 43.605 28.5536C43.8951 34.426 40.3502 36.585 36.5889 39.5357C35.5705 40.3349 34.1812 40.729 33.0808 41.7322C32.7853 41.291 31.402 40.3734 30.8498 40.3734H26.6826V38.6657C26.6826 37.7173 25.9514 36.9486 25.0494 36.9486ZM33.275 44.3992C34.8369 42.6306 36.5156 42.471 38.1433 41.1941C42.0749 38.1097 46.0905 35.5266 45.7099 27.8214C45.7495 26.9886 45.8615 26.4418 46.6506 26.3571C47.1937 26.3571 47.6817 26.4897 47.8374 27.0263C49.4247 32.4957 49.4044 37.0871 47.7736 41.4759C47.4966 42.8194 48.0038 43.5998 49.2949 43.8175H64.2275C65.1232 43.8175 65.8516 44.5835 65.8516 45.5248C65.8516 46.4661 65.1229 47.2321 64.2275 47.2321H60.1753C59.2733 47.2321 58.5421 48.0008 58.5421 48.949C58.5421 49.8972 59.2733 50.6659 60.1753 50.6659H63.1244C64.02 50.6659 64.7484 51.4318 64.7484 52.3731C64.7484 53.3145 64.0198 54.0804 63.1244 54.0804H60.1753C59.2733 54.0804 58.5421 54.8491 58.5421 55.7973C58.5421 56.7455 59.2733 57.5142 60.1753 57.5142H62.0417C62.9373 57.5142 63.6657 58.2802 63.6657 59.2215C63.6657 60.1628 62.9371 60.9288 62.0417 60.9288H59.0924C58.1904 60.9288 57.4592 61.6975 57.4592 62.6457C57.4592 63.5938 58.1904 64.3626 59.0924 64.3626H60.721C61.6166 64.3626 62.345 65.1285 62.345 66.0698C62.345 67.0111 61.6164 67.7771 60.721 67.7771H40.2297C39.7212 67.7771 39.2114 67.5917 38.794 67.2554C36.9951 65.8054 35.1115 65.3066 33.275 65.0891V44.3992ZM30.976 42.4642V68.8213H26.0647V55.1889C26.0647 54.2407 25.9514 53.472 25.0494 53.472C24.1475 53.472 23.4162 54.2407 23.4162 55.1889V67.7771H17.343V40.3824H23.4162V47.7055C23.4162 48.6537 24.1475 49.4224 25.0494 49.4224C25.9514 49.4224 26.0647 48.6537 26.0647 47.7055V42.4642H30.976Z" fill="#4684E6"/>
<path d="M53.4275 23.4644C53.4275 22.6359 54.0991 21.9644 54.9275 21.9644H56.1372C56.9656 21.9644 57.6372 22.6359 57.6372 23.4644V24.8572C57.6372 25.6856 56.9656 26.3572 56.1372 26.3572H54.9275C54.0991 26.3572 53.4275 25.6856 53.4275 24.8572V23.4644Z" fill="#4684E6"/>
<rect x="59.7419" y="21.9644" width="4.20968" height="4.39286" rx="1.5" fill="#4684E6"/>
<path d="M66.0564 23.4644C66.0564 22.6359 66.728 21.9644 67.5564 21.9644H68.7661C69.5945 21.9644 70.2661 22.6359 70.2661 23.4644V24.8572C70.2661 25.6856 69.5945 26.3572 68.7661 26.3572H67.5564C66.728 26.3572 66.0564 25.6856 66.0564 24.8572V23.4644Z" fill="#4684E6"/>
</svg>
