<svg width="48" height="46" viewBox="0 0 48 46" fill="none" xmlns="http://www.w3.org/2000/svg">
<g clip-path="url(#clip0)">
<path fill-rule="evenodd" clip-rule="evenodd" d="M26.0867 5.66455C29.2943 5.66455 32.1273 8.63847 33.8228 13.1732C35.909 12.6843 37.7773 12.0045 39.3346 11.177C36.0259 7.78549 31.3141 5.66455 26.0867 5.66455Z" fill="white"/>
<path fill-rule="evenodd" clip-rule="evenodd" d="M7.84775 5.10449C6.37813 5.10449 5.1875 6.24515 5.1875 7.65318C5.1875 9.06121 6.37813 10.2044 7.84775 10.2044C9.31738 10.2044 10.5106 9.06121 10.5106 7.65318C10.5106 6.24515 9.31738 5.10449 7.84775 5.10449Z" fill="white"/>
<path fill-rule="evenodd" clip-rule="evenodd" d="M0.938053 7.65316C0.898209 11.2687 3.01893 13.5551 5.15558 16.282L6.67302 17.965C7.0318 18.3622 7.4384 18.5633 7.84762 18.5633C8.11602 18.5633 8.38443 18.4767 8.6369 18.3062C8.76974 18.2146 8.89996 18.1025 9.02493 17.965L10.5424 16.282C11.7755 14.706 13.0033 13.2776 13.8138 11.6557C14.1327 11.0192 14.3878 10.3521 14.5499 9.63404C14.6907 9.01528 14.7678 8.36095 14.7598 7.65316C14.7598 3.99688 11.6638 1.0332 7.84752 1.0332C4.03124 1.0332 0.938053 3.99688 0.938053 7.65316ZM7.84771 10.2044C6.37808 10.2044 5.18746 9.06119 5.18746 7.65316C5.18746 6.24513 6.37808 5.10447 7.84771 5.10447C9.31733 5.10447 10.5106 6.24513 10.5106 7.65316C10.5106 9.06119 9.31733 10.2044 7.84771 10.2044Z" fill="#4684E6"/>
<path fill-rule="evenodd" clip-rule="evenodd" d="M26.0863 5.66455C21.7039 5.66455 17.6857 7.15407 14.5498 9.63394C14.3878 10.352 14.1326 11.0191 13.8137 11.6556C15.1558 12.2692 16.6839 12.7835 18.3502 13.1731C20.0456 8.63838 22.8786 5.66455 26.0863 5.66455Z" fill="white"/>
<path fill-rule="evenodd" clip-rule="evenodd" d="M26.0867 5.66455C22.8791 5.66455 20.0461 8.63847 18.3506 13.1732C20.6972 13.7257 23.3202 14.0338 26.0867 14.0338V5.66455Z" fill="white"/>
<path fill-rule="evenodd" clip-rule="evenodd" d="M26.0867 5.66455V14.0337C28.8531 14.0337 31.4762 13.7256 33.8228 13.1731C32.1273 8.63838 29.2943 5.66455 26.0867 5.66455Z" fill="white"/>
<path fill-rule="evenodd" clip-rule="evenodd" d="M33.8225 13.1731C34.8696 15.9739 35.4809 19.373 35.4809 23.0343H44.2162C44.2162 18.4487 42.3613 14.2806 39.3343 11.1769C37.777 12.0044 35.9087 12.6843 33.8225 13.1731Z" fill="white"/>
<path fill-rule="evenodd" clip-rule="evenodd" d="M26.0867 14.0337V23.0344H35.4811C35.4811 19.3731 34.8698 15.9739 33.8227 13.1732C31.4762 13.7257 28.8531 14.0337 26.0867 14.0337Z" fill="white"/>
<path fill-rule="evenodd" clip-rule="evenodd" d="M18.3505 13.1731C17.3034 15.9739 16.6921 19.373 16.6921 23.0343H26.0865V14.0337C23.3201 14.0337 20.6971 13.7256 18.3505 13.1731Z" fill="white"/>
<path fill-rule="evenodd" clip-rule="evenodd" d="M8.63689 18.3062C8.1957 19.8084 7.95654 21.3947 7.95654 23.0344H16.6919C16.6919 19.3731 17.3031 15.9739 18.3502 13.1732C16.6839 12.7837 15.1559 12.2693 13.8138 11.6558C13.0032 13.2776 11.7754 14.7061 10.5424 16.2821L9.02492 17.9651C8.89995 18.1025 8.76973 18.2145 8.63689 18.3062Z" fill="white"/>
<path fill-rule="evenodd" clip-rule="evenodd" d="M7.95654 23.0343C7.95654 27.6173 9.81148 31.788 12.8385 34.8917C14.3958 34.0642 16.2641 33.3844 18.3502 32.893C17.3031 30.0922 16.6919 26.6956 16.6919 23.0343H7.95654Z" fill="white"/>
<path fill-rule="evenodd" clip-rule="evenodd" d="M16.6921 23.0343C16.6921 26.6956 17.3034 30.0922 18.3505 32.893C20.6971 32.343 23.3201 32.0349 26.0866 32.0349V23.0343H16.6921Z" fill="white"/>
<path fill-rule="evenodd" clip-rule="evenodd" d="M26.0867 23.0343V32.0349C27.6759 32.0349 29.2173 32.1368 30.6869 32.3277V29.2749H34.8566C35.2606 27.3374 35.4812 25.2342 35.4812 23.0344H26.0867V23.0343Z" fill="white"/>
<path fill-rule="evenodd" clip-rule="evenodd" d="M35.4813 23.0343C35.4813 25.2341 35.2607 27.3373 34.8567 29.2748H35.9171H41.8328H43.0101C43.7888 27.3373 44.2167 25.2341 44.2167 23.0343H35.4813Z" fill="white"/>
<path fill-rule="evenodd" clip-rule="evenodd" d="M26.0867 32.0349V40.404C27.6759 40.404 29.2173 40.208 30.6869 39.8388V32.3277C29.2173 32.1368 27.6758 32.0349 26.0867 32.0349Z" fill="white"/>
<path fill-rule="evenodd" clip-rule="evenodd" d="M18.3506 32.893C20.0461 37.4302 22.8791 40.4042 26.0867 40.4042V32.035C23.3202 32.0349 20.6972 32.343 18.3506 32.893Z" fill="white"/>
<path fill-rule="evenodd" clip-rule="evenodd" d="M12.8389 34.8917C16.1475 38.2831 20.8594 40.4041 26.0868 40.4041C22.8791 40.4041 20.0462 37.4301 18.3506 32.8929C16.2644 33.3844 14.3961 34.0642 12.8389 34.8917Z" fill="white"/>
<path fill-rule="evenodd" clip-rule="evenodd" d="M30.6865 32.3277V39.8388V44.4779V44.9667H47.0623V44.4779V29.2749H43.0096H41.8323V35.7599L38.8744 34.0133L35.9166 35.7599V29.2749H34.8561H30.6865V32.3277Z" fill="#4684E6"/>
<path fill-rule="evenodd" clip-rule="evenodd" d="M35.917 29.2749V35.7599L38.8748 34.0133L41.8327 35.7599V29.2749H35.917Z" fill="white"/>
<path d="M7.84775 11.1028C5.864 11.1028 4.25 9.55526 4.25 7.65318C4.25 5.75245 5.864 4.20605 7.84775 4.20605C9.833 4.20605 11.448 5.75245 11.448 7.65318C11.448 9.55535 9.833 11.1028 7.84775 11.1028ZM7.84775 6.00293C6.89778 6.00293 6.125 6.74324 6.125 7.65318C6.125 8.56456 6.89778 9.30595 7.84775 9.30595C8.79903 9.30595 9.57303 8.56456 9.57303 7.65318C9.57303 6.74324 8.79912 6.00293 7.84775 6.00293Z" fill="black"/>
<path d="M47.0625 28.3765H44.3241C44.8749 26.6508 45.1538 24.8593 45.1538 23.0344C45.1538 12.9613 36.6003 4.76621 26.0865 4.76621C22.3911 4.76621 18.7735 5.80337 15.697 7.71677C15.6969 7.69386 15.6977 7.6714 15.6974 7.64831C15.6949 3.50471 12.1745 0.134766 7.84772 0.134766C3.52238 0.134766 0.00309474 3.50471 0.00056349 7.64831C-0.0372178 11.2295 1.83084 13.5791 3.80869 16.0667C4.00641 16.3154 5.96419 18.553 5.96419 18.553C6.45441 19.0958 6.96609 19.3278 7.39538 19.4152C7.14591 20.6047 7.01916 21.8168 7.01916 23.0343C7.01916 33.1074 15.5727 41.3025 26.0865 41.3025C27.3206 41.3025 28.5478 41.189 29.7491 40.9647V44.9668C29.7491 45.463 30.1689 45.8652 30.6866 45.8652H34.6651C35.1828 45.8652 35.6026 45.463 35.6026 44.9668C35.6026 44.4706 35.1828 44.0684 34.6651 44.0684H31.6241V30.1734H34.9793V35.76C34.9793 36.0856 35.1631 36.3856 35.4597 36.5444C35.7562 36.7031 36.1193 36.6957 36.4086 36.5249L38.8746 35.0687L41.3407 36.5249C41.4912 36.6138 41.6618 36.6584 41.8325 36.6584C41.9898 36.6584 42.1473 36.6205 42.2896 36.5444C42.5861 36.3856 42.77 36.0856 42.77 35.76V30.1734C42.77 30.1734 43.0075 30.1737 43.0096 30.1737C43.012 30.1737 46.125 30.1734 46.125 30.1734V44.0684H43.0841C42.5664 44.0684 42.1466 44.4706 42.1466 44.9668C42.1466 45.463 42.5664 45.8652 43.0841 45.8652H47.0625C47.5802 45.8652 48 45.463 48 44.9668V29.275C48 28.7787 47.5803 28.3765 47.0625 28.3765ZM15.3933 10.1363C16.9789 8.92921 18.7712 8.00705 20.6759 7.40214C19.926 8.20857 19.2323 9.19066 18.6115 10.3384C18.3092 10.8974 18.0295 11.4868 17.7727 12.1016C16.8115 11.8452 15.8968 11.543 15.0408 11.1979C15.1765 10.8547 15.2964 10.5025 15.3933 10.1363ZM17.1438 13.7971C16.3209 16.3126 15.8461 19.1602 15.7665 22.136H8.92181C8.98594 21.0138 9.16791 19.9013 9.46659 18.8153C9.55903 18.7345 9.64875 18.6472 9.73444 18.5525C9.73444 18.5525 11.6918 16.3154 11.8894 16.0668C12.7404 14.9964 13.5701 13.9511 14.2373 12.8228C15.1499 13.1944 16.1229 13.52 17.1438 13.7971ZM7.84772 17.6649C7.71685 17.6649 7.54706 17.56 7.38235 17.3776C7.38235 17.3776 5.49403 15.2216 5.30016 14.9777C3.44494 12.6443 1.84284 10.6293 1.87547 7.66268C1.87556 7.65954 1.87556 7.65639 1.87556 7.65325C1.87556 4.49839 4.55466 1.93173 7.84772 1.93173C11.1423 1.93173 13.8224 4.49839 13.8224 7.65325C13.8224 7.65639 13.8224 7.65954 13.8225 7.66277C13.8552 10.6294 12.253 12.6444 10.3979 14.9778C10.204 15.2218 8.31619 17.3771 8.31619 17.3771C8.151 17.56 7.98009 17.6649 7.84772 17.6649ZM8.92022 23.9328H15.7665C15.846 26.9064 16.3202 29.7519 17.1419 32.2659C15.67 32.6664 14.297 33.1684 13.056 33.7663C10.6548 31.0939 9.13144 27.6779 8.92022 23.9328ZM14.4288 35.1289C15.4513 34.6777 16.5756 34.2898 17.7743 33.971C18.0308 34.5845 18.3098 35.1726 18.6116 35.7305C19.2334 36.88 19.9282 37.8633 20.6795 38.6705C18.3315 37.9231 16.2068 36.7031 14.4288 35.1289ZM25.149 39.3998C23.3487 38.9957 21.6458 37.4352 20.2762 34.9035C20.0421 34.4706 19.8228 34.0174 19.6179 33.5466C21.3712 33.2027 23.2394 32.9969 25.1489 32.9461L25.149 39.3998ZM25.149 31.1481C22.9934 31.2005 20.9104 31.4335 18.9637 31.8326C18.1773 29.4683 17.7218 26.7685 17.6423 23.9328H25.149V31.1481ZM25.149 22.136H17.6423C17.7219 19.298 18.178 16.5961 18.9655 14.2304C20.9206 14.6319 23.0082 14.8671 25.1489 14.9204L25.149 22.136ZM25.149 13.1227C23.2328 13.0726 21.3671 12.8698 19.6162 12.5265C19.8215 12.0542 20.0414 11.5995 20.2763 11.1653C21.6458 8.63354 23.3487 7.07313 25.1491 6.66901L25.149 13.1227ZM27.024 6.66883C28.8251 7.07286 30.5284 8.63336 31.8976 11.1652C32.1317 11.598 32.3509 12.0514 32.5556 12.5221C30.8022 12.8661 28.9337 13.0718 27.024 13.1227V6.66883ZM29.7491 39.129C28.8551 39.3147 27.9436 39.4322 27.024 39.4797V32.9466C27.9425 32.9706 28.8538 33.03 29.7491 33.124V39.129ZM34.0774 28.3765H30.6866C30.1689 28.3765 29.7491 28.7787 29.7491 29.275V31.3166C28.8521 31.2277 27.941 31.1721 27.024 31.1494V23.9329H34.5293C34.4864 25.4546 34.336 26.9435 34.0774 28.3765ZM27.024 22.136V14.9206C29.1798 14.8682 31.263 14.6352 33.2098 14.236C33.9959 16.6003 34.4511 19.3 34.5306 22.136H27.024ZM34.3994 12.0976C34.143 11.4843 33.864 10.8962 33.5623 10.3384C32.9408 9.18913 32.2462 8.20588 31.495 7.39881C33.8423 8.14604 35.9665 9.36585 37.7442 10.9398C36.7219 11.391 35.5978 11.779 34.3994 12.0976ZM35.0316 13.8027C36.5033 13.4023 37.8762 12.9002 39.117 12.3024C41.5183 14.9747 43.0416 18.3908 43.2528 22.1359H36.4064C36.3269 19.1621 35.8529 16.3166 35.0316 13.8027ZM40.895 34.151L39.3664 33.2484C39.0649 33.0704 38.6844 33.0703 38.3828 33.2484L36.8543 34.151V30.1733H40.895V34.151ZM42.3523 28.3765H35.9761C36.2202 26.9376 36.3637 25.4499 36.4047 23.9328H43.2528C43.1674 25.4529 42.8659 26.9419 42.3523 28.3765Z" fill="black"/>
<path d="M38.8745 44.0684C38.3568 44.0684 37.937 44.4706 37.937 44.9668C37.937 45.463 38.3568 45.8652 38.8745 45.8652H38.8798C39.3975 45.8652 39.8147 45.463 39.8147 44.9668C39.8147 44.4706 39.3923 44.0684 38.8745 44.0684Z" fill="black"/>
</g>
<defs>
<clipPath id="clip0">
<rect width="48" height="46" fill="white"/>
</clipPath>
</defs>
</svg>
