<svg width="49" height="47" viewBox="0 0 49 47" fill="none" xmlns="http://www.w3.org/2000/svg">
<path d="M7 7H42V46H7V7Z" fill="white"/>
<path d="M10 8H39.7278V45.0687H10V8Z" fill="white"/>
<path d="M7 11H23.6249L26 8.00002H7V11Z" fill="#4684E6"/>
<path d="M16.1293 43.1633C16.1013 43.1633 16.0731 43.1623 16.0449 43.1604C15.7149 43.1373 15.4073 42.9805 15.1899 42.7243L13.3069 40.5051C12.8546 39.9722 12.9085 39.1634 13.4273 38.6987C13.9461 38.2341 14.7333 38.2895 15.1855 38.8225L16.2486 40.0753L19.9336 36.7653C20.4518 36.3 21.2391 36.3544 21.692 36.8865C22.145 37.4189 22.0922 38.2277 21.574 38.6931L16.9495 42.8469C16.7216 43.0514 16.4299 43.1633 16.1293 43.1633Z" fill="#4684E6" fill-opacity="0.01"/>
<path d="M17.2271 16.8589H20.1247V27.8478H17.2271V16.8589Z" fill="white"/>
<path d="M33.0645 37.338H33.7803C34.5709 37.338 35.2118 37.9528 35.2118 38.7111C35.2118 39.4694 34.5709 40.0842 33.7803 40.0842H24.7745C24.3878 40.0842 24.0136 39.9585 23.7067 39.7329C22.8973 39.1377 22.041 39.0116 21 38.9523V30.2204C23.4481 27.5375 26.5504 27.2853 26.3333 23.2763C26.2957 22.5825 26.8721 22 27.5963 22C28.1502 22 28.6428 22.3449 28.8045 22.8531C29.4615 24.9188 29.6258 26.9689 28.7584 29.0989H35.3212C36.1118 29.0989 36.7528 29.7137 36.7528 30.472C36.7528 31.2303 36.1118 31.8451 35.3212 31.8451H33.5403H34.8365C35.6271 31.8451 36.268 32.4599 36.268 33.2182C36.268 33.9766 35.6271 34.5913 34.8365 34.5913H33.5403H34.3606C35.1512 34.5913 35.7921 35.2061 35.7921 35.9644C35.7921 36.7228 35.1512 37.3375 34.3606 37.3375H33.0645V37.338Z" fill="white"/>
<path d="M10 22H15V39.2653H10V22Z" fill="#4684E6"/>
<path d="M35.2698 36.449H26.7302C26.327 36.449 26 36.6637 26 36.9286C26 37.1934 26.327 37.4082 26.7302 37.4082H35.2698C35.673 37.4082 36 37.1934 36 36.9286C36 36.6637 35.673 36.449 35.2698 36.449Z" fill="#4684E6" fill-opacity="0.01"/>
<path d="M35.2698 39.3265H26.7302C26.327 39.3265 26 39.5413 26 39.8061C26 40.071 26.327 40.2857 26.7302 40.2857H35.2698C35.673 40.2857 36 40.071 36 39.8061C36 39.5413 35.673 39.3265 35.2698 39.3265Z" fill="#4684E6" fill-opacity="0.01"/>
<path d="M35.2698 42.2041H26.7302C26.327 42.2041 26 42.4188 26 42.6837C26 42.9486 26.327 43.1633 26.7302 43.1633H35.2698C35.673 43.1633 36 42.9486 36 42.6837C36 42.4188 35.673 42.2041 35.2698 42.2041Z" fill="#4684E6" fill-opacity="0.01"/>
<path d="M42.3911 0H6.71778C6.32137 0 6 0.308256 6 0.688482V46.3115C6 46.6917 6.32137 47 6.71778 47H42.3911C42.7875 47 43.1089 46.6917 43.1089 46.3115V0.688482C43.1089 0.308256 42.7875 0 42.3911 0ZM7.43556 1.37696H27.1079L25.6837 2.85151H7.43556V1.37696ZM41.6733 45.623H7.43556V4.22847H25.9971C26.197 4.22847 26.3879 4.14852 26.5237 4.00788L29.0647 1.37696H41.6732L41.6733 45.623Z" fill="black" fill-opacity="0.01"/>
<path d="M37.0663 7.19799H38.6266V44.598H10.4827V38.4389C10.4827 38.0405 10.163 37.7174 9.76871 37.7174C9.37438 37.7174 9.05469 38.0405 9.05469 38.4389V45.3194C9.05469 45.7178 9.37438 46.0408 9.76871 46.0408H39.3407C39.735 46.0408 40.0547 45.7178 40.0547 45.3194V6.47656C40.0547 6.07814 39.735 5.75513 39.3407 5.75513H37.0663C36.6719 5.75513 36.3522 6.07814 36.3522 6.47656C36.3522 6.87498 36.6719 7.19799 37.0663 7.19799Z" fill="#4684E6" fill-opacity="0.01"/>
<path d="M9 6.68848V34.191C9 34.5713 9.32137 34.8795 9.71778 34.8795C10.1142 34.8795 10.4356 34.5713 10.4356 34.191V7.37696H34.0313C34.4278 7.37696 34.7491 7.06871 34.7491 6.68848C34.7491 6.30826 34.4278 6 34.0313 6H9.71778C9.32137 6 9 6.30826 9 6.68848Z" fill="#4684E6" fill-opacity="0.01"/>
<path d="M31.7183 4.22839H32.1789C32.5753 4.22839 32.8967 3.92014 32.8967 3.53992C32.8967 3.15969 32.5753 2.85144 32.1789 2.85144H31.7183C31.3219 2.85144 31.0005 3.15969 31.0005 3.53992C31.0005 3.92014 31.3219 4.22839 31.7183 4.22839Z" fill="black" fill-opacity="0.09"/>
<path d="M35.3379 4.22839H35.7985C36.1949 4.22839 36.5163 3.92014 36.5163 3.53992C36.5163 3.15969 36.1949 2.85144 35.7985 2.85144H35.3379C34.9415 2.85144 34.6201 3.15969 34.6201 3.53992C34.6201 3.92014 34.9415 4.22839 35.3379 4.22839Z" fill="black" fill-opacity="0.09"/>
<path d="M38.958 4.22839H39.4185C39.8149 4.22839 40.1363 3.92014 40.1363 3.53992C40.1363 3.15969 39.8149 2.85144 39.4185 2.85144H38.958C38.5616 2.85144 38.2402 3.15969 38.2402 3.53992C38.2402 3.92014 38.5616 4.22839 38.958 4.22839Z" fill="black" fill-opacity="0.09"/>
<path d="M15.2347 21.1778H9.97452C9.46653 21.1778 9.05469 21.6184 9.05469 22.1619V39.8319C9.05469 40.3753 9.46653 40.8159 9.97452 40.8159H15.2347H18.9472C19.4552 40.8159 19.867 40.3753 19.867 39.8319V39.2929C20.6569 39.4096 21.2706 39.6303 21.8566 40.1111C22.411 40.5659 23.0958 40.8163 23.7845 40.8163H35.3255C36.8443 40.8163 38.0799 39.4944 38.0799 37.8696C38.0799 37.3082 37.9323 36.7829 37.6766 36.3359C38.8128 35.4596 39.1518 33.6064 38.3772 32.3374C39.5371 31.116 39.7418 29.8097 38.9909 28.4183C39.6378 27.8787 40.0547 27.0371 40.0547 26.0934C40.0547 24.4685 38.819 23.1467 37.3003 23.1467H30.1623C30.808 20.6094 30.696 17.9572 29.8288 14.9162C29.5019 13.7701 28.5261 13 27.4008 13C25.7899 13.176 24.9443 14.1291 24.8637 15.8593C25.0271 19.2252 23.6276 20.3426 21.5091 22.0339C20.9355 22.492 20.3189 22.9843 19.6991 23.5592C19.5327 23.3064 19.2582 23.1408 18.9472 23.1408H16.1546V22.162C16.1546 21.6184 15.7427 21.1778 15.2347 21.1778ZM19.8675 26.1117C20.7472 25.0979 21.6927 24.3431 22.6095 23.6112C24.8238 21.8433 26.9153 20.1735 26.7009 15.7571C26.7232 15.2798 26.9565 15.0167 27.401 14.9681C27.7068 14.9681 27.9817 15.1831 28.0694 15.4906C28.9633 18.6255 28.9519 21.2572 28.0334 23.7727C27.8774 24.5428 28.1631 24.9901 28.8902 25.1149H37.3006C37.805 25.1149 38.2153 25.5539 38.2153 26.0934C38.2153 26.633 37.8049 27.072 37.3006 27.072H35.0183C34.5103 27.072 34.0985 27.5126 34.0985 28.0561C34.0985 28.5995 34.5103 29.0401 35.0183 29.0401H36.6793C37.1837 29.0401 37.5939 29.4792 37.5939 30.0187C37.5939 30.5582 37.1836 30.9973 36.6793 30.9973H35.0183C34.5103 30.9973 34.0985 31.4379 34.0985 31.9813C34.0985 32.5248 34.5103 32.9654 35.0183 32.9654H36.0695C36.5739 32.9654 36.9842 33.4044 36.9842 33.944C36.9842 34.4835 36.5738 34.9225 36.0695 34.9225H34.4084C33.9004 34.9225 33.4885 35.3631 33.4885 35.9066C33.4885 36.4501 33.9004 36.8907 34.4084 36.8907H35.3256C35.8301 36.8907 36.2403 37.3297 36.2403 37.8692C36.2403 38.4088 35.8299 38.8478 35.3256 38.8478H23.7845C23.4982 38.8478 23.2111 38.7415 22.9759 38.5488C21.9628 37.7177 20.9019 37.4318 19.8675 37.3071V26.1117ZM18.0274 25.1088V38.8478H16.1546V31.6326C16.1546 31.0891 15.7427 30.6485 15.2347 30.6485C14.7268 30.6485 14.3149 31.0891 14.3149 31.6326V38.8478H10.8944V23.1459H14.3149V27.3433C14.3149 27.8868 14.7268 28.3274 15.2347 28.3274C15.7427 28.3274 16.1546 27.8868 16.1546 27.3433V25.1088H18.0274Z" fill="#4684E6"/>
<rect x="30" y="8" width="3" height="3" rx="1.5" fill="#4684E6"/>
<rect x="34" y="8" width="3" height="3" rx="1.5" fill="#4684E6"/>
<rect x="38" y="8" width="3" height="3" rx="1.5" fill="#4684E6"/>
</svg>
