<svg width="57" height="59" viewBox="0 0 57 59" fill="none" xmlns="http://www.w3.org/2000/svg">
<g filter="url(#filter0_d)">
<path d="M10.4531 4.0625V45.5H39.6719C39.8998 45.5 40.1184 45.5856 40.2795 45.738C40.4407 45.8903 40.5312 46.097 40.5312 46.3125C40.5312 48.3681 43.9773 50.375 46.5469 50.375V1.625H13.0312C12.3481 1.62693 11.6935 1.88436 11.2105 2.34106C10.7274 2.79776 10.4552 3.41663 10.4531 4.0625ZM13.8906 40.625H12.1719V39H13.8906V40.625ZM13.8906 37.375H12.1719V35.75H13.8906V37.375ZM44.8281 40.625H15.6094V39H44.8281V40.625ZM44.8281 37.375H15.6094V35.75H44.8281V37.375ZM44.8281 34.125H15.6094V32.5H44.8281V34.125ZM28.5 3.25C31.2195 3.25 33.8779 4.01244 36.1391 5.44089C38.4003 6.86935 40.1626 8.89968 41.2033 11.2751C42.244 13.6506 42.5163 16.2644 41.9858 18.7862C41.4553 21.3079 40.1457 23.6243 38.2227 25.4424C36.2997 27.2605 33.8497 28.4986 31.1825 29.0002C28.5153 29.5018 25.7506 29.2444 23.2381 28.2604C20.7256 27.2765 18.5782 25.6103 17.0673 23.4724C15.5564 21.3346 14.75 18.8212 14.75 16.25C14.7548 12.8036 16.205 9.49959 18.7826 7.0626C21.3601 4.6256 24.8547 3.25451 28.5 3.25ZM13.8906 34.125H12.1719V32.5H13.8906V34.125Z" fill="white"/>
<path d="M34.5156 11.375H32.7969V15.4375C32.7972 15.5756 32.7602 15.7115 32.6896 15.8323C32.6189 15.9531 32.5168 16.0549 32.393 16.1281C32.2559 16.2077 32.0983 16.2499 31.9375 16.25C31.8031 16.2484 31.6708 16.2178 31.5508 16.1606L28.5 14.7225L25.4492 16.1606C25.3184 16.223 25.1729 16.2526 25.0265 16.2468C24.8802 16.241 24.7378 16.2 24.6129 16.1275C24.4881 16.0551 24.3849 15.9536 24.3132 15.8329C24.2415 15.7121 24.2036 15.576 24.2031 15.4375V11.375H22.4844V21.125H34.5156V11.375Z" fill="white"/>
<path d="M28.8867 13.0894L31.0781 14.1212V11.375H25.9219V14.1212L28.1133 13.0894C28.2323 13.0293 28.3651 12.9979 28.5 12.9979C28.6349 12.9979 28.7677 13.0293 28.8867 13.0894Z" fill="white"/>
<path d="M28.5 27.625C30.8796 27.625 33.2057 26.9579 35.1842 25.708C37.1627 24.4581 38.7048 22.6815 39.6154 20.603C40.526 18.5245 40.7643 16.2374 40.3001 14.0308C39.8358 11.8243 38.69 9.79749 37.0074 8.20666C35.3248 6.61584 33.181 5.53248 30.8472 5.09357C28.5133 4.65467 26.0943 4.87993 23.8958 5.74088C21.6974 6.60182 19.8184 8.05978 18.4964 9.93039C17.1744 11.801 16.4688 14.0002 16.4688 16.25C16.4722 19.2658 17.7408 22.1572 19.9964 24.2898C22.2519 26.4223 25.3102 27.6218 28.5 27.625ZM20.7656 10.5625C20.7656 10.347 20.8562 10.1404 21.0173 9.98798C21.1785 9.83561 21.3971 9.75 21.625 9.75H35.375C35.6029 9.75 35.8215 9.83561 35.9827 9.98798C36.1438 10.1404 36.2344 10.347 36.2344 10.5625V21.9375C36.2344 22.153 36.1438 22.3596 35.9827 22.512C35.8215 22.6644 35.6029 22.75 35.375 22.75H21.625C21.3971 22.75 21.1785 22.6644 21.0173 22.512C20.8562 22.3596 20.7656 22.153 20.7656 21.9375V10.5625Z" fill="white"/>
<path d="M38.907 47.125H4.52344C4.7229 48.042 5.25062 48.8659 6.01768 49.4579C6.78473 50.0499 7.7442 50.3738 8.73437 50.375H41.4852C40.2288 49.6319 39.3098 48.4734 38.907 47.125Z" fill="white"/>
<path d="M48.2656 1.625V4.875H52.4766C52.2771 3.95802 51.7494 3.13409 50.9823 2.54208C50.2153 1.95007 49.2558 1.62618 48.2656 1.625Z" fill="white"/>
</g>
<defs>
<filter id="filter0_d" x="-3" y="0" width="63" height="60" filterUnits="userSpaceOnUse" color-interpolation-filters="sRGB">
<feFlood flood-opacity="0" result="BackgroundImageFix"/>
<feColorMatrix in="SourceAlpha" type="matrix" values="0 0 0 0 0 0 0 0 0 0 0 0 0 0 0 0 0 0 127 0"/>
<feOffset dy="4"/>
<feGaussianBlur stdDeviation="2"/>
<feColorMatrix type="matrix" values="0 0 0 0 0 0 0 0 0 0 0 0 0 0 0 0 0 0 0.25 0"/>
<feBlend mode="normal" in2="BackgroundImageFix" result="effect1_dropShadow"/>
<feBlend mode="normal" in="SourceGraphic" in2="effect1_dropShadow" result="shape"/>
</filter>
</defs>
</svg>
