<svg width="36" height="37" viewBox="0 0 36 37" fill="none" xmlns="http://www.w3.org/2000/svg">
<rect width="36" height="37" fill="#252A34"/>
<path d="M26.5081 1.1554H3.16407C1.41891 1.1554 0 2.61444 0 4.40736V21.7513C0 23.5449 1.41891 25.0032 3.16407 25.0032C5.37821 25.0032 5.67564 25.0032 5.67564 25.0032H6.32814V30.4233C6.32814 31.3902 7.46861 31.8678 8.12814 31.19C11.0728 28.1628 9.00494 30.2888 13.8383 25.3212C14.0366 25.1174 14.3038 25.0032 14.5843 25.0032H26.508C28.2525 25.0032 29.6721 23.5449 29.6721 21.7513C29.6721 11.6297 29.6721 14.5535 29.6721 4.40736C29.6721 2.61444 28.2525 1.1554 26.5081 1.1554ZM5.27352 7.65932H20.1799C20.7628 7.65932 21.2346 8.14422 21.2346 8.7433C21.2346 9.34239 20.7628 9.82729 20.1799 9.82729H5.27352C4.69063 9.82729 4.21883 9.34239 4.21883 8.7433C4.21883 8.14422 4.69063 7.65932 5.27352 7.65932ZM15.9611 18.4993H5.27352C4.69063 18.4993 4.21883 18.0144 4.21883 17.4153C4.21883 16.8163 4.69063 16.3314 5.27352 16.3314H15.9611C16.544 16.3314 17.0158 16.8163 17.0158 17.4153C17.0158 18.0144 16.544 18.4993 15.9611 18.4993ZM24.3987 14.1633H5.27352C4.69063 14.1633 4.21883 13.6784 4.21883 13.0793C4.21883 12.4802 4.69063 11.9953 5.27352 11.9953H24.3987C24.9816 11.9953 25.4534 12.4802 25.4534 13.0793C25.4534 13.6784 24.9816 14.1633 24.3987 14.1633Z" fill="white"/>
<path d="M32.836 5.49133H31.7954V21.7513C31.7954 24.7397 29.4155 27.1713 26.5078 27.1713H15.1616L12.9116 29.3248H21.8524L27.8715 35.5256C28.5328 36.2053 29.6719 35.7283 29.6719 34.7593V29.3248H32.836C34.5807 29.3248 36 27.8805 36 26.0873V8.74336C36.0001 6.95009 34.5809 5.49133 32.836 5.49133Z" fill="#4684E6"/>
</svg>
