<svg width="50" height="50" viewBox="0 0 55 52" fill="none" xmlns="http://www.w3.org/2000/svg">
<path d="M40.4984 1.62378H4.83399C2.16778 1.62378 0 3.67433 0 6.1941V30.5694C0 33.0901 2.16778 35.1397 4.83399 35.1397C8.21671 35.1397 8.67111 35.1397 8.67111 35.1397H9.66799V42.757C9.66799 44.1159 11.4104 44.7872 12.418 43.8346C16.9168 39.5801 13.7575 42.5681 21.1418 35.5866C21.4448 35.3001 21.853 35.1397 22.2816 35.1397H40.4983C43.1635 35.1397 45.3323 33.0901 45.3323 30.5694C45.3323 16.3444 45.3323 20.4536 45.3323 6.1941C45.3324 3.67433 43.1636 1.62378 40.4984 1.62378ZM8.05676 10.7644H30.8305C31.721 10.7644 32.4418 11.4459 32.4418 12.2879C32.4418 13.1298 31.721 13.8113 30.8305 13.8113H8.05676C7.16623 13.8113 6.44543 13.1298 6.44543 12.2879C6.44543 11.4459 7.16623 10.7644 8.05676 10.7644ZM24.385 25.999H8.05676C7.16623 25.999 6.44543 25.3175 6.44543 24.4756C6.44543 23.6336 7.16623 22.9522 8.05676 22.9522H24.385C25.2756 22.9522 25.9964 23.6336 25.9964 24.4756C25.9964 25.3175 25.2756 25.999 24.385 25.999ZM37.2758 19.9052H8.05676C7.16623 19.9052 6.44543 19.2237 6.44543 18.3817C6.44543 17.5398 7.16623 16.8583 8.05676 16.8583H37.2758C38.1663 16.8583 38.8871 17.5398 38.8871 18.3817C38.8871 19.2237 38.1663 19.9052 37.2758 19.9052Z" fill="white"/>
<path d="M50.1662 7.71753H48.5763V30.5693C48.5763 34.7693 44.9404 38.1866 40.4981 38.1866H23.1636L19.7261 41.2132H33.3855L42.5815 49.9279C43.5918 50.8831 45.3321 50.2127 45.3321 48.8508V41.2132H50.1661C52.8316 41.2132 55 39.1834 55 36.6632V12.288C55.0002 9.76767 52.8318 7.71753 50.1662 7.71753Z" fill="#4684E6"/>
</svg>
