<svg width="275" height="51" viewBox="0 0 275 51" fill="none" xmlns="http://www.w3.org/2000/svg">
<path d="M27.5 0L33.6741 17.6201L53.6541 17.6201L37.49 28.5099L43.6641 46.1299L27.5 35.2401L11.3359 46.1299L17.51 28.5099L1.34595 17.6201L21.3259 17.6201L27.5 0Z" fill="#2390DE"/>
<path d="M82.5 0L88.6741 17.6201L108.654 17.6201L92.49 28.5099L98.6641 46.1299L82.5 35.2401L66.3359 46.1299L72.51 28.5099L56.3459 17.6201L76.3259 17.6201L82.5 0Z" fill="#655757" fill-opacity="0.5"/>
<path d="M137.5 0L143.674 17.6201L163.654 17.6201L147.49 28.5099L153.664 46.1299L137.5 35.2401L121.336 46.1299L127.51 28.5099L111.346 17.6201L131.326 17.6201L137.5 0Z" fill="#655757" fill-opacity="0.5"/>
<path d="M192.5 0L198.674 17.6201L218.654 17.6201L202.49 28.5099L208.664 46.1299L192.5 35.2401L176.336 46.1299L182.51 28.5099L166.346 17.6201L186.326 17.6201L192.5 0Z" fill="#655757" fill-opacity="0.5"/>
<path d="M247.5 0L253.674 17.6201L273.654 17.6201L257.49 28.5099L263.664 46.1299L247.5 35.2401L231.336 46.1299L237.51 28.5099L221.346 17.6201L241.326 17.6201L247.5 0Z" fill="#655757" fill-opacity="0.5"/>
</svg>
