<svg width="275" height="51" viewBox="0 0 275 51" fill="none" xmlns="http://www.w3.org/2000/svg">
<path d="M27.5 0L33.6741 17.6201L53.6541 17.6201L37.49 28.5099L43.6641 46.1299L27.5 35.2401L11.3359 46.1299L17.51 28.5099L1.34595 17.6201L21.3259 17.6201L27.5 0Z" fill="#23DE57"/>
<path d="M82.5 0L88.6741 17.6201L108.654 17.6201L92.49 28.5099L98.6641 46.1299L82.5 35.2401L66.3359 46.1299L72.51 28.5099L56.3459 17.6201L76.3259 17.6201L82.5 0Z" fill="#23DE57"/>
<path d="M137.5 0L143.674 17.6201L163.654 17.6201L147.49 28.5099L153.664 46.1299L137.5 35.2401L121.336 46.1299L127.51 28.5099L111.346 17.6201L131.326 17.6201L137.5 0Z" fill="#23DE57"/>
<path d="M192.5 0L198.674 17.6201L218.654 17.6201L202.49 28.5099L208.664 46.1299L192.5 35.2401L176.336 46.1299L182.51 28.5099L166.346 17.6201L186.326 17.6201L192.5 0Z" fill="#23DE57"/>
<path d="M247.5 3.02398L252.73 17.9508L252.965 18.6201H253.674L270.38 18.6201L256.931 27.6805L256.291 28.1119L256.546 28.8406L261.724 43.6171L248.059 34.4108L247.5 34.0344L246.941 34.4108L233.276 43.6171L238.454 28.8406L238.709 28.1119L238.069 27.6805L224.62 18.6201L241.326 18.6201H242.035L242.27 17.9508L247.5 3.02398Z" fill="white" stroke="#00A3FF" stroke-width="2"/>
</svg>
