<svg width="278" height="52" viewBox="0 0 278 52" fill="none" xmlns="http://www.w3.org/2000/svg">
<path d="M29.6318 1L36.2845 18.6201L57.8133 18.6201L40.3962 29.5099L47.0489 47.1299L29.6318 36.2401L12.2147 47.1299L18.8674 29.5099L1.45028 18.6201L22.979 18.6201L29.6318 1Z" fill="#2390DE"/>
<path d="M86.5 0L92.6741 17.6201L112.654 17.6201L96.49 28.5099L102.664 46.1299L86.5 35.2401L70.3359 46.1299L76.51 28.5099L60.3459 17.6201L80.3259 17.6201L86.5 0Z" fill="#2390DE"/>
<path d="M141.5 0L147.674 17.6201L167.654 17.6201L151.49 28.5099L157.664 46.1299L141.5 35.2401L125.336 46.1299L131.51 28.5099L115.346 17.6201L135.326 17.6201L141.5 0Z" fill="#655757" fill-opacity="0.5"/>
<path d="M196.5 0L202.674 17.6201L222.654 17.6201L206.49 28.5099L212.664 46.1299L196.5 35.2401L180.336 46.1299L186.51 28.5099L170.346 17.6201L190.326 17.6201L196.5 0Z" fill="#655757" fill-opacity="0.5"/>
<path d="M251.5 0L257.674 17.6201L277.654 17.6201L261.49 28.5099L267.664 46.1299L251.5 35.2401L235.336 46.1299L241.51 28.5099L225.346 17.6201L245.326 17.6201L251.5 0Z" fill="#655757" fill-opacity="0.5"/>
</svg>
