<svg width="1549" height="79" viewBox="0 0 1549 79" fill="none" xmlns="http://www.w3.org/2000/svg">
<path d="M67.5 20C67.5 28.7365 59.3923 36.5 48.5 36.5C37.6077 36.5 29.5 28.7365 29.5 20C29.5 11.2635 37.6077 3.5 48.5 3.5C59.3923 3.5 67.5 11.2635 67.5 20Z" fill="#295093" stroke="#295093" stroke-width="7"/>
<path d="M425.5 20C425.5 28.7365 417.392 36.5 406.5 36.5C395.608 36.5 387.5 28.7365 387.5 20C387.5 11.2635 395.608 3.5 406.5 3.5C417.392 3.5 425.5 11.2635 425.5 20Z" fill="#295093" stroke="#295093" stroke-width="7"/>
<path d="M788.5 20C788.5 28.7365 780.392 36.5 769.5 36.5C758.608 36.5 750.5 28.7365 750.5 20C750.5 11.2635 758.608 3.5 769.5 3.5C780.392 3.5 788.5 11.2635 788.5 20Z" fill="#295093" stroke="#295093" stroke-width="7"/>
<path d="M1483.5 20C1483.5 28.7365 1475.39 36.5 1464.5 36.5C1453.61 36.5 1445.5 28.7365 1445.5 20C1445.5 11.2635 1453.61 3.5 1464.5 3.5C1475.39 3.5 1483.5 11.2635 1483.5 20Z" fill="#EDEDED" stroke="#E3E3E3" stroke-width="7"/>
<line y1="-3.5" x2="301" y2="-3.5" transform="matrix(0.999999 0.00119 -0.00825764 0.999966 1143 23)" stroke="#E3E3E3" stroke-width="7"/>
<path d="M1144.5 20C1144.5 28.7365 1136.39 36.5 1125.5 36.5C1114.61 36.5 1106.5 28.7365 1106.5 20C1106.5 11.2635 1114.61 3.5 1125.5 3.5C1136.39 3.5 1144.5 11.2635 1144.5 20Z" fill="white" stroke="#295093" stroke-width="7"/>
<line y1="-3.5" x2="324.001" y2="-3.5" transform="matrix(0.999999 0.0010347 -0.00943773 0.999955 65 23)" stroke="#295093" stroke-width="7"/>
<line y1="-3.5" x2="324.001" y2="-3.5" transform="matrix(0.999999 0.0010347 -0.00943773 0.999955 423 23)" stroke="#295093" stroke-width="7"/>
<line y1="-3.5" x2="325" y2="-3.5" transform="matrix(0.999999 -0.00116803 0.0081052 0.999967 784 23.3796)" stroke="#295093" stroke-width="7"/>
<path d="M13.7695 54.7891H8.28516V70H6.04688V54.7891H0.574219V52.9375H13.7695V54.7891ZM18.3164 70H16.1484V57.3203H18.3164V70ZM15.9727 53.957C15.9727 53.6055 16.0781 53.3086 16.2891 53.0664C16.5078 52.8242 16.8281 52.7031 17.25 52.7031C17.6719 52.7031 17.9922 52.8242 18.2109 53.0664C18.4297 53.3086 18.5391 53.6055 18.5391 53.957C18.5391 54.3086 18.4297 54.6016 18.2109 54.8359C17.9922 55.0703 17.6719 55.1875 17.25 55.1875C16.8281 55.1875 16.5078 55.0703 16.2891 54.8359C16.0781 54.6016 15.9727 54.3086 15.9727 53.957ZM27.0586 70.2344C25.3398 70.2344 23.9414 69.6719 22.8633 68.5469C21.7852 67.4141 21.2461 65.9023 21.2461 64.0117V63.6133C21.2461 62.3555 21.4844 61.2344 21.9609 60.25C22.4453 59.2578 23.1172 58.4844 23.9766 57.9297C24.8438 57.3672 25.7812 57.0859 26.7891 57.0859C28.4375 57.0859 29.7188 57.6289 30.6328 58.7148C31.5469 59.8008 32.0039 61.3555 32.0039 63.3789V64.2812H23.4141C23.4453 65.5312 23.8086 66.543 24.5039 67.3164C25.207 68.082 26.0977 68.4648 27.1758 68.4648C27.9414 68.4648 28.5898 68.3086 29.1211 67.9961C29.6523 67.6836 30.1172 67.2695 30.5156 66.7539L31.8398 67.7852C30.7773 69.418 29.1836 70.2344 27.0586 70.2344ZM26.7891 58.8672C25.9141 58.8672 25.1797 59.1875 24.5859 59.8281C23.9922 60.4609 23.625 61.3516 23.4844 62.5H29.8359V62.3359C29.7734 61.2344 29.4766 60.3828 28.9453 59.7812C28.4141 59.1719 27.6953 58.8672 26.7891 58.8672ZM25.8984 52.3633H27.6797L31.0781 55.4453H28.7695L26.7891 53.582L24.7969 55.4453H22.4766L25.8984 52.3633ZM31.875 50.3359H34.2188L31.8633 53.3711H30.2109L31.875 50.3359ZM45.2344 63.8008C45.2344 65.7305 44.793 67.2852 43.9102 68.4648C43.0273 69.6445 41.832 70.2344 40.3242 70.2344C38.7852 70.2344 37.5742 69.7461 36.6914 68.7695V74.875H34.5234V57.3203H36.5039L36.6094 58.7266C37.4922 57.6328 38.7188 57.0859 40.2891 57.0859C41.8125 57.0859 43.0156 57.6602 43.8984 58.8086C44.7891 59.957 45.2344 61.5547 45.2344 63.6016V63.8008ZM43.0664 63.5547C43.0664 62.125 42.7617 60.9961 42.1523 60.168C41.543 59.3398 40.707 58.9258 39.6445 58.9258C38.332 58.9258 37.3477 59.5078 36.6914 60.6719V66.7305C37.3398 67.8867 38.332 68.4648 39.668 68.4648C40.707 68.4648 41.5312 68.0547 42.1406 67.2344C42.7578 66.4062 43.0664 65.1797 43.0664 63.5547ZM56.0039 57.3203L56.0742 58.9141C57.043 57.6953 58.3086 57.0859 59.8711 57.0859C62.5508 57.0859 63.9023 58.5977 63.9258 61.6211V70H61.7578V61.6094C61.75 60.6953 61.5391 60.0195 61.125 59.582C60.7188 59.1445 60.082 58.9258 59.2148 58.9258C58.5117 58.9258 57.8945 59.1133 57.3633 59.4883C56.832 59.8633 56.418 60.3555 56.1211 60.9648V70H53.9531V57.3203H56.0039ZM69.3633 58.8555C70.3242 57.6758 71.5742 57.0859 73.1133 57.0859C75.793 57.0859 77.1445 58.5977 77.168 61.6211V70H75V61.6094C74.9922 60.6953 74.7812 60.0195 74.3672 59.582C73.9609 59.1445 73.3242 58.9258 72.457 58.9258C71.7539 58.9258 71.1367 59.1133 70.6055 59.4883C70.0742 59.8633 69.6602 60.3555 69.3633 60.9648V70H67.1953V52H69.3633V58.8555ZM88.2422 70C88.1172 69.75 88.0156 69.3047 87.9375 68.6641C86.9297 69.7109 85.7266 70.2344 84.3281 70.2344C83.0781 70.2344 82.0508 69.8828 81.2461 69.1797C80.4492 68.4688 80.0508 67.5703 80.0508 66.4844C80.0508 65.1641 80.5508 64.1406 81.5508 63.4141C82.5586 62.6797 83.9727 62.3125 85.793 62.3125H87.9023V61.3164C87.9023 60.5586 87.6758 59.957 87.2227 59.5117C86.7695 59.0586 86.1016 58.832 85.2188 58.832C84.4453 58.832 83.7969 59.0273 83.2734 59.418C82.75 59.8086 82.4883 60.2812 82.4883 60.8359H80.3086C80.3086 60.2031 80.5312 59.5938 80.9766 59.0078C81.4297 58.4141 82.0391 57.9453 82.8047 57.6016C83.5781 57.2578 84.4258 57.0859 85.3477 57.0859C86.8086 57.0859 87.9531 57.4531 88.7812 58.1875C89.6094 58.9141 90.0391 59.918 90.0703 61.1992V67.0352C90.0703 68.1992 90.2188 69.125 90.5156 69.8125V70H88.2422ZM84.6445 68.3477C85.3242 68.3477 85.9688 68.1719 86.5781 67.8203C87.1875 67.4688 87.6289 67.0117 87.9023 66.4492V63.8477H86.2031C83.5469 63.8477 82.2188 64.625 82.2188 66.1797C82.2188 66.8594 82.4453 67.3906 82.8984 67.7734C83.3516 68.1562 83.9336 68.3477 84.6445 68.3477ZM89.1328 55.2109V55.3281H87.3398L85.582 53.3359L83.8359 55.3281H82.043V55.1875L84.9258 52H86.2383L89.1328 55.2109ZM83.2969 72.8711C83.2969 72.5195 83.4023 72.2227 83.6133 71.9805C83.832 71.7383 84.1523 71.6172 84.5742 71.6172C84.9961 71.6172 85.3164 71.7383 85.5352 71.9805C85.7539 72.2227 85.8633 72.5195 85.8633 72.8711C85.8633 73.2227 85.7539 73.5156 85.5352 73.75C85.3164 73.9844 84.9961 74.1016 84.5742 74.1016C84.1523 74.1016 83.832 73.9844 83.6133 73.75C83.4023 73.5156 83.2969 73.2227 83.2969 72.8711ZM95.5195 57.3203L95.5898 58.9141C96.5586 57.6953 97.8242 57.0859 99.3867 57.0859C102.066 57.0859 103.418 58.5977 103.441 61.6211V70H101.273V61.6094C101.266 60.6953 101.055 60.0195 100.641 59.582C100.234 59.1445 99.5977 58.9258 98.7305 58.9258C98.0273 58.9258 97.4102 59.1133 96.8789 59.4883C96.3477 59.8633 95.9336 60.3555 95.6367 60.9648V70H93.4688V57.3203H95.5195Z" fill="black"/>
<path d="M333.91 70V62.1953H331.66V60.4258H333.91V52.9375H338.727C340.211 52.9375 341.523 53.2656 342.664 53.9219C343.805 54.5781 344.684 55.5117 345.301 56.7227C345.926 57.9336 346.242 59.3242 346.25 60.8945V61.9844C346.25 63.5938 345.938 65.0039 345.312 66.2148C344.695 67.4258 343.809 68.3555 342.652 69.0039C341.504 69.6523 340.164 69.9844 338.633 70H333.91ZM339.113 62.1953H336.16V68.1602H338.516C340.25 68.1602 341.598 67.625 342.559 66.5547C343.527 65.4844 344.016 63.9766 344.023 62.0312V60.9414C344.023 59.0039 343.566 57.5 342.652 56.4297C341.746 55.3516 340.457 54.8047 338.785 54.7891H336.16V60.4258H339.113V62.1953ZM357.148 70C357.023 69.75 356.922 69.3047 356.844 68.6641C355.836 69.7109 354.633 70.2344 353.234 70.2344C351.984 70.2344 350.957 69.8828 350.152 69.1797C349.355 68.4688 348.957 67.5703 348.957 66.4844C348.957 65.1641 349.457 64.1406 350.457 63.4141C351.465 62.6797 352.879 62.3125 354.699 62.3125H356.809V61.3164C356.809 60.5586 356.582 59.957 356.129 59.5117C355.676 59.0586 355.008 58.832 354.125 58.832C353.352 58.832 352.703 59.0273 352.18 59.418C351.656 59.8086 351.395 60.2812 351.395 60.8359H349.215C349.215 60.2031 349.438 59.5938 349.883 59.0078C350.336 58.4141 350.945 57.9453 351.711 57.6016C352.484 57.2578 353.332 57.0859 354.254 57.0859C355.715 57.0859 356.859 57.4531 357.688 58.1875C358.516 58.9141 358.945 59.918 358.977 61.1992V67.0352C358.977 68.1992 359.125 69.125 359.422 69.8125V70H357.148ZM353.551 68.3477C354.23 68.3477 354.875 68.1719 355.484 67.8203C356.094 67.4688 356.535 67.0117 356.809 66.4492V63.8477H355.109C352.453 63.8477 351.125 64.625 351.125 66.1797C351.125 66.8594 351.352 67.3906 351.805 67.7734C352.258 68.1562 352.84 68.3477 353.551 68.3477ZM364.426 57.3203L364.496 58.9141C365.465 57.6953 366.73 57.0859 368.293 57.0859C370.973 57.0859 372.324 58.5977 372.348 61.6211V70H370.18V61.6094C370.172 60.6953 369.961 60.0195 369.547 59.582C369.141 59.1445 368.504 58.9258 367.637 58.9258C366.934 58.9258 366.316 59.1133 365.785 59.4883C365.254 59.8633 364.84 60.3555 364.543 60.9648V70H362.375V57.3203H364.426ZM375.102 63.5547C375.102 61.5781 375.559 60.0078 376.473 58.8438C377.387 57.6719 378.598 57.0859 380.105 57.0859C381.652 57.0859 382.859 57.6328 383.727 58.7266L383.832 57.3203H385.812V69.6953C385.812 71.3359 385.324 72.6289 384.348 73.5742C383.379 74.5195 382.074 74.9922 380.434 74.9922C379.52 74.9922 378.625 74.7969 377.75 74.4062C376.875 74.0156 376.207 73.4805 375.746 72.8008L376.871 71.5C377.801 72.6484 378.938 73.2227 380.281 73.2227C381.336 73.2227 382.156 72.9258 382.742 72.332C383.336 71.7383 383.633 70.9023 383.633 69.8242V68.7344C382.766 69.7344 381.582 70.2344 380.082 70.2344C378.598 70.2344 377.395 69.6367 376.473 68.4414C375.559 67.2461 375.102 65.6172 375.102 63.5547ZM377.281 63.8008C377.281 65.2305 377.574 66.3555 378.16 67.1758C378.746 67.9883 379.566 68.3945 380.621 68.3945C381.988 68.3945 382.992 67.7734 383.633 66.5312V60.7422C382.969 59.5312 381.973 58.9258 380.645 58.9258C379.59 58.9258 378.766 59.3359 378.172 60.1562C377.578 60.9766 377.281 62.1914 377.281 63.8008ZM397.402 70H395.234V52H397.402V70ZM408.711 70C408.586 69.75 408.484 69.3047 408.406 68.6641C407.398 69.7109 406.195 70.2344 404.797 70.2344C403.547 70.2344 402.52 69.8828 401.715 69.1797C400.918 68.4688 400.52 67.5703 400.52 66.4844C400.52 65.1641 401.02 64.1406 402.02 63.4141C403.027 62.6797 404.441 62.3125 406.262 62.3125H408.371V61.3164C408.371 60.5586 408.145 59.957 407.691 59.5117C407.238 59.0586 406.57 58.832 405.688 58.832C404.914 58.832 404.266 59.0273 403.742 59.418C403.219 59.8086 402.957 60.2812 402.957 60.8359H400.777C400.777 60.2031 401 59.5938 401.445 59.0078C401.898 58.4141 402.508 57.9453 403.273 57.6016C404.047 57.2578 404.895 57.0859 405.816 57.0859C407.277 57.0859 408.422 57.4531 409.25 58.1875C410.078 58.9141 410.508 59.918 410.539 61.1992V67.0352C410.539 68.1992 410.688 69.125 410.984 69.8125V70H408.711ZM405.113 68.3477C405.793 68.3477 406.438 68.1719 407.047 67.8203C407.656 67.4688 408.098 67.0117 408.371 66.4492V63.8477H406.672C404.016 63.8477 402.688 64.625 402.688 66.1797C402.688 66.8594 402.914 67.3906 403.367 67.7734C403.82 68.1562 404.402 68.3477 405.113 68.3477ZM405.172 52.3633H406.953L410.352 55.4453H408.043L406.062 53.582L404.07 55.4453H401.75L405.172 52.3633ZM411.148 50.3359H413.492L411.137 53.3711H409.484L411.148 50.3359ZM417.898 66.8242L420.852 57.3203H423.172L418.074 71.957C417.285 74.0664 416.031 75.1211 414.312 75.1211L413.902 75.0859L413.094 74.9336V73.1758L413.68 73.2227C414.414 73.2227 414.984 73.0742 415.391 72.7773C415.805 72.4805 416.145 71.9375 416.41 71.1484L416.891 69.8594L412.367 57.3203H414.734L417.898 66.8242ZM433.238 58.8555C434.199 57.6758 435.449 57.0859 436.988 57.0859C439.668 57.0859 441.02 58.5977 441.043 61.6211V70H438.875V61.6094C438.867 60.6953 438.656 60.0195 438.242 59.582C437.836 59.1445 437.199 58.9258 436.332 58.9258C435.629 58.9258 435.012 59.1133 434.48 59.4883C433.949 59.8633 433.535 60.3555 433.238 60.9648V70H431.07V52H433.238V58.8555ZM452.117 70C451.992 69.75 451.891 69.3047 451.812 68.6641C450.805 69.7109 449.602 70.2344 448.203 70.2344C446.953 70.2344 445.926 69.8828 445.121 69.1797C444.324 68.4688 443.926 67.5703 443.926 66.4844C443.926 65.1641 444.426 64.1406 445.426 63.4141C446.434 62.6797 447.848 62.3125 449.668 62.3125H451.777V61.3164C451.777 60.5586 451.551 59.957 451.098 59.5117C450.645 59.0586 449.977 58.832 449.094 58.832C448.32 58.832 447.672 59.0273 447.148 59.418C446.625 59.8086 446.363 60.2812 446.363 60.8359H444.184C444.184 60.2031 444.406 59.5938 444.852 59.0078C445.305 58.4141 445.914 57.9453 446.68 57.6016C447.453 57.2578 448.301 57.0859 449.223 57.0859C450.684 57.0859 451.828 57.4531 452.656 58.1875C453.484 58.9141 453.914 59.918 453.945 61.1992V67.0352C453.945 68.1992 454.094 69.125 454.391 69.8125V70H452.117ZM448.52 68.3477C449.199 68.3477 449.844 68.1719 450.453 67.8203C451.062 67.4688 451.504 67.0117 451.777 66.4492V63.8477H450.078C447.422 63.8477 446.094 64.625 446.094 66.1797C446.094 66.8594 446.32 67.3906 446.773 67.7734C447.227 68.1562 447.809 68.3477 448.52 68.3477ZM450.699 55.4453H448.836L445.812 52H448.426L450.699 55.4453ZM459.395 57.3203L459.465 58.9141C460.434 57.6953 461.699 57.0859 463.262 57.0859C465.941 57.0859 467.293 58.5977 467.316 61.6211V70H465.148V61.6094C465.141 60.6953 464.93 60.0195 464.516 59.582C464.109 59.1445 463.473 58.9258 462.605 58.9258C461.902 58.9258 461.285 59.1133 460.754 59.4883C460.223 59.8633 459.809 60.3555 459.512 60.9648V70H457.344V57.3203H459.395ZM470.07 63.5547C470.07 61.5781 470.527 60.0078 471.441 58.8438C472.355 57.6719 473.566 57.0859 475.074 57.0859C476.621 57.0859 477.828 57.6328 478.695 58.7266L478.801 57.3203H480.781V69.6953C480.781 71.3359 480.293 72.6289 479.316 73.5742C478.348 74.5195 477.043 74.9922 475.402 74.9922C474.488 74.9922 473.594 74.7969 472.719 74.4062C471.844 74.0156 471.176 73.4805 470.715 72.8008L471.84 71.5C472.77 72.6484 473.906 73.2227 475.25 73.2227C476.305 73.2227 477.125 72.9258 477.711 72.332C478.305 71.7383 478.602 70.9023 478.602 69.8242V68.7344C477.734 69.7344 476.551 70.2344 475.051 70.2344C473.566 70.2344 472.363 69.6367 471.441 68.4414C470.527 67.2461 470.07 65.6172 470.07 63.5547ZM472.25 63.8008C472.25 65.2305 472.543 66.3555 473.129 67.1758C473.715 67.9883 474.535 68.3945 475.59 68.3945C476.957 68.3945 477.961 67.7734 478.602 66.5312V60.7422C477.938 59.5312 476.941 58.9258 475.613 58.9258C474.559 58.9258 473.734 59.3359 473.141 60.1562C472.547 60.9766 472.25 62.1914 472.25 63.8008Z" fill="black"/>
<path d="M724.602 70V62.1953H722.352V60.4258H724.602V52.9375H729.418C730.902 52.9375 732.215 53.2656 733.355 53.9219C734.496 54.5781 735.375 55.5117 735.992 56.7227C736.617 57.9336 736.934 59.3242 736.941 60.8945V61.9844C736.941 63.5938 736.629 65.0039 736.004 66.2148C735.387 67.4258 734.5 68.3555 733.344 69.0039C732.195 69.6523 730.855 69.9844 729.324 70H724.602ZM729.805 62.1953H726.852V68.1602H729.207C730.941 68.1602 732.289 67.625 733.25 66.5547C734.219 65.4844 734.707 63.9766 734.715 62.0312V60.9414C734.715 59.0039 734.258 57.5 733.344 56.4297C732.438 55.3516 731.148 54.8047 729.477 54.7891H726.852V60.4258H729.805V62.1953ZM739.438 63.543C739.438 62.3008 739.68 61.1836 740.164 60.1914C740.656 59.1992 741.336 58.4336 742.203 57.8945C743.078 57.3555 744.074 57.0859 745.191 57.0859C746.918 57.0859 748.312 57.6836 749.375 58.8789C750.445 60.0742 750.98 61.6641 750.98 63.6484V63.8008C750.98 65.0352 750.742 66.1445 750.266 67.1289C749.797 68.1055 749.121 68.8672 748.238 69.4141C747.363 69.9609 746.355 70.2344 745.215 70.2344C743.496 70.2344 742.102 69.6367 741.031 68.4414C739.969 67.2461 739.438 65.6641 739.438 63.6953V63.543ZM741.617 63.8008C741.617 65.207 741.941 66.3359 742.59 67.1875C743.246 68.0391 744.121 68.4648 745.215 68.4648C746.316 68.4648 747.191 68.0352 747.84 67.1758C748.488 66.3086 748.812 65.0977 748.812 63.543C748.812 62.1523 748.48 61.0273 747.816 60.168C747.16 59.3008 746.285 58.8672 745.191 58.8672C744.121 58.8672 743.258 59.293 742.602 60.1445C741.945 60.9961 741.617 62.2148 741.617 63.8008ZM746.176 52H748.801L745.66 55.4453H743.914L746.176 52ZM755.75 57.3203L755.82 58.9141C756.789 57.6953 758.055 57.0859 759.617 57.0859C762.297 57.0859 763.648 58.5977 763.672 61.6211V70H761.504V61.6094C761.496 60.6953 761.285 60.0195 760.871 59.582C760.465 59.1445 759.828 58.9258 758.961 58.9258C758.258 58.9258 757.641 59.1133 757.109 59.4883C756.578 59.8633 756.164 60.3555 755.867 60.9648V70H753.699V57.3203H755.75ZM766.426 63.5547C766.426 61.5781 766.883 60.0078 767.797 58.8438C768.711 57.6719 769.922 57.0859 771.43 57.0859C772.977 57.0859 774.184 57.6328 775.051 58.7266L775.156 57.3203H777.137V69.6953C777.137 71.3359 776.648 72.6289 775.672 73.5742C774.703 74.5195 773.398 74.9922 771.758 74.9922C770.844 74.9922 769.949 74.7969 769.074 74.4062C768.199 74.0156 767.531 73.4805 767.07 72.8008L768.195 71.5C769.125 72.6484 770.262 73.2227 771.605 73.2227C772.66 73.2227 773.48 72.9258 774.066 72.332C774.66 71.7383 774.957 70.9023 774.957 69.8242V68.7344C774.09 69.7344 772.906 70.2344 771.406 70.2344C769.922 70.2344 768.719 69.6367 767.797 68.4414C766.883 67.2461 766.426 65.6172 766.426 63.5547ZM768.605 63.8008C768.605 65.2305 768.898 66.3555 769.484 67.1758C770.07 67.9883 770.891 68.3945 771.945 68.3945C773.312 68.3945 774.316 67.7734 774.957 66.5312V60.7422C774.293 59.5312 773.297 58.9258 771.969 58.9258C770.914 58.9258 770.09 59.3359 769.496 60.1562C768.902 60.9766 768.605 62.1914 768.605 63.8008ZM785.855 63.5547C785.855 61.5781 786.312 60.0078 787.227 58.8438C788.141 57.6719 789.352 57.0859 790.859 57.0859C792.406 57.0859 793.613 57.6328 794.48 58.7266L794.586 57.3203H796.566V69.6953C796.566 71.3359 796.078 72.6289 795.102 73.5742C794.133 74.5195 792.828 74.9922 791.188 74.9922C790.273 74.9922 789.379 74.7969 788.504 74.4062C787.629 74.0156 786.961 73.4805 786.5 72.8008L787.625 71.5C788.555 72.6484 789.691 73.2227 791.035 73.2227C792.09 73.2227 792.91 72.9258 793.496 72.332C794.09 71.7383 794.387 70.9023 794.387 69.8242V68.7344C793.52 69.7344 792.336 70.2344 790.836 70.2344C789.352 70.2344 788.148 69.6367 787.227 68.4414C786.312 67.2461 785.855 65.6172 785.855 63.5547ZM788.035 63.8008C788.035 65.2305 788.328 66.3555 788.914 67.1758C789.5 67.9883 790.32 68.3945 791.375 68.3945C792.742 68.3945 793.746 67.7734 794.387 66.5312V60.7422C793.723 59.5312 792.727 58.9258 791.398 58.9258C790.344 58.9258 789.52 59.3359 788.926 60.1562C788.332 60.9766 788.035 62.1914 788.035 63.8008ZM799.273 63.543C799.273 62.3008 799.516 61.1836 800 60.1914C800.492 59.1992 801.172 58.4336 802.039 57.8945C802.914 57.3555 803.91 57.0859 805.027 57.0859C806.754 57.0859 808.148 57.6836 809.211 58.8789C810.281 60.0742 810.816 61.6641 810.816 63.6484V63.8008C810.816 65.0352 810.578 66.1445 810.102 67.1289C809.633 68.1055 808.957 68.8672 808.074 69.4141C807.199 69.9609 806.191 70.2344 805.051 70.2344C803.332 70.2344 801.938 69.6367 800.867 68.4414C799.805 67.2461 799.273 65.6641 799.273 63.6953V63.543ZM801.453 63.8008C801.453 65.207 801.777 66.3359 802.426 67.1875C803.082 68.0391 803.957 68.4648 805.051 68.4648C806.152 68.4648 807.027 68.0352 807.676 67.1758C808.324 66.3086 808.648 65.0977 808.648 63.543C808.648 62.1523 808.316 61.0273 807.652 60.168C806.996 59.3008 806.121 58.8672 805.027 58.8672C803.957 58.8672 803.094 59.293 802.438 60.1445C801.781 60.9961 801.453 62.2148 801.453 63.8008ZM806.012 52H808.637L805.496 55.4453H803.75L806.012 52ZM815.891 70H813.723V57.3203H815.891V70ZM813.547 53.957C813.547 53.6055 813.652 53.3086 813.863 53.0664C814.082 52.8242 814.402 52.7031 814.824 52.7031C815.246 52.7031 815.566 52.8242 815.785 53.0664C816.004 53.3086 816.113 53.6055 816.113 53.957C816.113 54.3086 816.004 54.6016 815.785 54.8359C815.566 55.0703 815.246 55.1875 814.824 55.1875C814.402 55.1875 814.082 55.0703 813.863 54.8359C813.652 54.6016 813.547 54.3086 813.547 53.957Z" fill="black"/>
<path d="M1052.48 70V62.1953H1050.23V60.4258H1052.48V52.9375H1057.29C1058.78 52.9375 1060.09 53.2656 1061.23 53.9219C1062.37 54.5781 1063.25 55.5117 1063.87 56.7227C1064.49 57.9336 1064.81 59.3242 1064.82 60.8945V61.9844C1064.82 63.5938 1064.5 65.0039 1063.88 66.2148C1063.26 67.4258 1062.38 68.3555 1061.22 69.0039C1060.07 69.6523 1058.73 69.9844 1057.2 70H1052.48ZM1057.68 62.1953H1054.73V68.1602H1057.08C1058.82 68.1602 1060.16 67.625 1061.12 66.5547C1062.09 65.4844 1062.58 63.9766 1062.59 62.0312V60.9414C1062.59 59.0039 1062.13 57.5 1061.22 56.4297C1060.31 55.3516 1059.02 54.8047 1057.35 54.7891H1054.73V60.4258H1057.68V62.1953ZM1075.71 70C1075.59 69.75 1075.49 69.3047 1075.41 68.6641C1074.4 69.7109 1073.2 70.2344 1071.8 70.2344C1070.55 70.2344 1069.52 69.8828 1068.72 69.1797C1067.92 68.4688 1067.52 67.5703 1067.52 66.4844C1067.52 65.1641 1068.02 64.1406 1069.02 63.4141C1070.03 62.6797 1071.45 62.3125 1073.27 62.3125H1075.38V61.3164C1075.38 60.5586 1075.15 59.957 1074.7 59.5117C1074.24 59.0586 1073.57 58.832 1072.69 58.832C1071.92 58.832 1071.27 59.0273 1070.75 59.418C1070.22 59.8086 1069.96 60.2812 1069.96 60.8359H1067.78C1067.78 60.2031 1068 59.5938 1068.45 59.0078C1068.9 58.4141 1069.51 57.9453 1070.28 57.6016C1071.05 57.2578 1071.9 57.0859 1072.82 57.0859C1074.28 57.0859 1075.43 57.4531 1076.25 58.1875C1077.08 58.9141 1077.51 59.918 1077.54 61.1992V67.0352C1077.54 68.1992 1077.69 69.125 1077.99 69.8125V70H1075.71ZM1072.12 68.3477C1072.8 68.3477 1073.44 68.1719 1074.05 67.8203C1074.66 67.4688 1075.1 67.0117 1075.38 66.4492V63.8477H1073.68C1071.02 63.8477 1069.69 64.625 1069.69 66.1797C1069.69 66.8594 1069.92 67.3906 1070.37 67.7734C1070.82 68.1562 1071.41 68.3477 1072.12 68.3477ZM1082.99 57.3203L1083.06 58.9141C1084.03 57.6953 1085.3 57.0859 1086.86 57.0859C1089.54 57.0859 1090.89 58.5977 1090.91 61.6211V70H1088.75V61.6094C1088.74 60.6953 1088.53 60.0195 1088.11 59.582C1087.71 59.1445 1087.07 58.9258 1086.2 58.9258C1085.5 58.9258 1084.88 59.1133 1084.35 59.4883C1083.82 59.8633 1083.41 60.3555 1083.11 60.9648V70H1080.94V57.3203H1082.99ZM1093.67 63.5547C1093.67 61.5781 1094.12 60.0078 1095.04 58.8438C1095.95 57.6719 1097.16 57.0859 1098.67 57.0859C1100.22 57.0859 1101.43 57.6328 1102.29 58.7266L1102.4 57.3203H1104.38V69.6953C1104.38 71.3359 1103.89 72.6289 1102.91 73.5742C1101.95 74.5195 1100.64 74.9922 1099 74.9922C1098.09 74.9922 1097.19 74.7969 1096.32 74.4062C1095.44 74.0156 1094.77 73.4805 1094.31 72.8008L1095.44 71.5C1096.37 72.6484 1097.5 73.2227 1098.85 73.2227C1099.9 73.2227 1100.72 72.9258 1101.31 72.332C1101.9 71.7383 1102.2 70.9023 1102.2 69.8242V68.7344C1101.33 69.7344 1100.15 70.2344 1098.65 70.2344C1097.16 70.2344 1095.96 69.6367 1095.04 68.4414C1094.12 67.2461 1093.67 65.6172 1093.67 63.5547ZM1095.85 63.8008C1095.85 65.2305 1096.14 66.3555 1096.73 67.1758C1097.31 67.9883 1098.13 68.3945 1099.19 68.3945C1100.55 68.3945 1101.56 67.7734 1102.2 66.5312V60.7422C1101.54 59.5312 1100.54 58.9258 1099.21 58.9258C1098.16 58.9258 1097.33 59.3359 1096.74 60.1562C1096.14 60.9766 1095.85 62.1914 1095.85 63.8008ZM1117.8 67.0586L1120.94 57.3203H1123.15L1118.61 70H1116.95L1112.36 57.3203H1114.57L1117.8 67.0586ZM1132.88 70C1132.75 69.75 1132.65 69.3047 1132.57 68.6641C1131.57 69.7109 1130.36 70.2344 1128.96 70.2344C1127.71 70.2344 1126.69 69.8828 1125.88 69.1797C1125.09 68.4688 1124.69 67.5703 1124.69 66.4844C1124.69 65.1641 1125.19 64.1406 1126.19 63.4141C1127.2 62.6797 1128.61 62.3125 1130.43 62.3125H1132.54V61.3164C1132.54 60.5586 1132.31 59.957 1131.86 59.5117C1131.41 59.0586 1130.74 58.832 1129.86 58.832C1129.08 58.832 1128.43 59.0273 1127.91 59.418C1127.39 59.8086 1127.12 60.2812 1127.12 60.8359H1124.95C1124.95 60.2031 1125.17 59.5938 1125.61 59.0078C1126.07 58.4141 1126.68 57.9453 1127.44 57.6016C1128.21 57.2578 1129.06 57.0859 1129.98 57.0859C1131.45 57.0859 1132.59 57.4531 1133.42 58.1875C1134.25 58.9141 1134.68 59.918 1134.71 61.1992V67.0352C1134.71 68.1992 1134.86 69.125 1135.15 69.8125V70H1132.88ZM1129.28 68.3477C1129.96 68.3477 1130.61 68.1719 1131.21 67.8203C1131.82 67.4688 1132.27 67.0117 1132.54 66.4492V63.8477H1130.84C1128.18 63.8477 1126.86 64.625 1126.86 66.1797C1126.86 66.8594 1127.08 67.3906 1127.54 67.7734C1127.99 68.1562 1128.57 68.3477 1129.28 68.3477ZM1133.77 55.2109V55.3281H1131.98L1130.22 53.3359L1128.47 55.3281H1126.68V55.1875L1129.56 52H1130.88L1133.77 55.2109ZM1127.93 72.8711C1127.93 72.5195 1128.04 72.2227 1128.25 71.9805C1128.47 71.7383 1128.79 71.6172 1129.21 71.6172C1129.63 71.6172 1129.95 71.7383 1130.17 71.9805C1130.39 72.2227 1130.5 72.5195 1130.5 72.8711C1130.5 73.2227 1130.39 73.5156 1130.17 73.75C1129.95 73.9844 1129.63 74.1016 1129.21 74.1016C1128.79 74.1016 1128.47 73.9844 1128.25 73.75C1128.04 73.5156 1127.93 73.2227 1127.93 72.8711ZM1140.16 57.3203L1140.23 58.9141C1141.2 57.6953 1142.46 57.0859 1144.02 57.0859C1146.7 57.0859 1148.05 58.5977 1148.08 61.6211V70H1145.91V61.6094C1145.9 60.6953 1145.69 60.0195 1145.28 59.582C1144.87 59.1445 1144.23 58.9258 1143.37 58.9258C1142.66 58.9258 1142.05 59.1133 1141.52 59.4883C1140.98 59.8633 1140.57 60.3555 1140.27 60.9648V70H1138.11V57.3203H1140.16ZM1162.39 68.4648C1163.16 68.4648 1163.84 68.2305 1164.41 67.7617C1164.99 67.293 1165.31 66.707 1165.38 66.0039H1167.43C1167.39 66.7305 1167.14 67.4219 1166.68 68.0781C1166.21 68.7344 1165.6 69.2578 1164.82 69.6484C1164.06 70.0391 1163.25 70.2344 1162.39 70.2344C1160.66 70.2344 1159.29 69.6602 1158.26 68.5117C1157.25 67.3555 1156.74 65.7773 1156.74 63.7773V63.4141C1156.74 62.1797 1156.96 61.082 1157.42 60.1211C1157.87 59.1602 1158.52 58.4141 1159.36 57.8828C1160.21 57.3516 1161.22 57.0859 1162.38 57.0859C1163.8 57.0859 1164.98 57.5117 1165.91 58.3633C1166.86 59.2148 1167.36 60.3203 1167.43 61.6797H1165.38C1165.31 60.8594 1165 60.1875 1164.44 59.6641C1163.88 59.1328 1163.2 58.8672 1162.38 58.8672C1161.27 58.8672 1160.42 59.2656 1159.81 60.0625C1159.21 60.8516 1158.91 61.9961 1158.91 63.4961V63.9062C1158.91 65.3672 1159.21 66.4922 1159.81 67.2812C1160.41 68.0703 1161.27 68.4648 1162.39 68.4648ZM1172.03 58.8555C1172.99 57.6758 1174.24 57.0859 1175.78 57.0859C1178.46 57.0859 1179.81 58.5977 1179.84 61.6211V70H1177.67V61.6094C1177.66 60.6953 1177.45 60.0195 1177.04 59.582C1176.63 59.1445 1175.99 58.9258 1175.12 58.9258C1174.42 58.9258 1173.8 59.1133 1173.27 59.4883C1172.74 59.8633 1172.33 60.3555 1172.03 60.9648V70H1169.86V52H1172.03V58.8555ZM1190.91 68.7461C1190.07 69.7383 1188.83 70.2344 1187.2 70.2344C1185.84 70.2344 1184.81 69.8438 1184.1 69.0625C1183.4 68.2734 1183.04 67.1094 1183.04 65.5703V57.3203H1185.2V65.5117C1185.2 67.4336 1185.98 68.3945 1187.55 68.3945C1189.2 68.3945 1190.3 67.7773 1190.85 66.543V57.3203H1193.02V70H1190.96L1190.91 68.7461ZM1200.47 66.8242L1203.43 57.3203H1205.75L1200.65 71.957C1199.86 74.0664 1198.61 75.1211 1196.89 75.1211L1196.48 75.0859L1195.67 74.9336V73.1758L1196.25 73.2227C1196.99 73.2227 1197.56 73.0742 1197.96 72.7773C1198.38 72.4805 1198.72 71.9375 1198.98 71.1484L1199.46 69.8594L1194.94 57.3203H1197.31L1200.47 66.8242ZM1212.79 70.2344C1211.07 70.2344 1209.67 69.6719 1208.59 68.5469C1207.52 67.4141 1206.98 65.9023 1206.98 64.0117V63.6133C1206.98 62.3555 1207.21 61.2344 1207.69 60.25C1208.18 59.2578 1208.85 58.4844 1209.71 57.9297C1210.57 57.3672 1211.51 57.0859 1212.52 57.0859C1214.17 57.0859 1215.45 57.6289 1216.36 58.7148C1217.28 59.8008 1217.73 61.3555 1217.73 63.3789V64.2812H1209.14C1209.18 65.5312 1209.54 66.543 1210.23 67.3164C1210.94 68.082 1211.83 68.4648 1212.91 68.4648C1213.67 68.4648 1214.32 68.3086 1214.85 67.9961C1215.38 67.6836 1215.85 67.2695 1216.25 66.7539L1217.57 67.7852C1216.51 69.418 1214.91 70.2344 1212.79 70.2344ZM1212.52 58.8672C1211.64 58.8672 1210.91 59.1875 1210.32 59.8281C1209.72 60.4609 1209.36 61.3516 1209.21 62.5H1215.57V62.3359C1215.5 61.2344 1215.21 60.3828 1214.68 59.7812C1214.14 59.1719 1213.43 58.8672 1212.52 58.8672ZM1216.8 55.6328H1214.8L1212.5 53.4531L1210.19 55.6328H1208.21L1211.39 52.5625H1213.6L1216.8 55.6328ZM1215.82 54.0156L1215.81 52.4805C1216.32 52.4492 1216.69 52.3828 1216.91 52.2812C1217.15 52.1797 1217.27 52 1217.27 51.7422C1217.27 51.2188 1216.71 50.957 1215.61 50.957L1215.67 49.8789C1216.67 49.8789 1217.43 50.0508 1217.96 50.3945C1218.48 50.7383 1218.74 51.1953 1218.74 51.7656C1218.74 52.2266 1218.6 52.5859 1218.31 52.8438C1218.02 53.1016 1217.64 53.2578 1217.17 53.3125L1217.16 54.0156H1215.82ZM1222.3 57.3203L1222.38 58.9141C1223.34 57.6953 1224.61 57.0859 1226.17 57.0859C1228.85 57.0859 1230.2 58.5977 1230.23 61.6211V70H1228.06V61.6094C1228.05 60.6953 1227.84 60.0195 1227.43 59.582C1227.02 59.1445 1226.38 58.9258 1225.52 58.9258C1224.81 58.9258 1224.2 59.1133 1223.66 59.4883C1223.13 59.8633 1222.72 60.3555 1222.42 60.9648V70H1220.25V57.3203H1222.3Z" fill="black"/>
<path d="M1417.28 70H1415.02V62.1133H1406.41V70H1404.16V52.9375H1406.41V60.2734H1415.02V52.9375H1417.28V70ZM1420.36 63.543C1420.36 62.3008 1420.6 61.1836 1421.09 60.1914C1421.58 59.1992 1422.26 58.4336 1423.12 57.8945C1424 57.3555 1425 57.0859 1426.11 57.0859C1427.84 57.0859 1429.23 57.6836 1430.3 58.8789C1431.37 60.0742 1431.9 61.6641 1431.9 63.6484V63.8008C1431.9 65.0352 1431.66 66.1445 1431.19 67.1289C1430.72 68.1055 1430.04 68.8672 1429.16 69.4141C1428.29 69.9609 1427.28 70.2344 1426.14 70.2344C1424.42 70.2344 1423.02 69.6367 1421.95 68.4414C1420.89 67.2461 1420.36 65.6641 1420.36 63.6953V63.543ZM1422.54 63.8008C1422.54 65.207 1422.86 66.3359 1423.51 67.1875C1424.17 68.0391 1425.04 68.4648 1426.14 68.4648C1427.24 68.4648 1428.11 68.0352 1428.76 67.1758C1429.41 66.3086 1429.73 65.0977 1429.73 63.543C1429.73 62.1523 1429.4 61.0273 1428.74 60.168C1428.08 59.3008 1427.21 58.8672 1426.11 58.8672C1425.04 58.8672 1424.18 59.293 1423.52 60.1445C1422.87 60.9961 1422.54 62.2148 1422.54 63.8008ZM1442.45 70C1442.32 69.75 1442.22 69.3047 1442.14 68.6641C1441.14 69.7109 1439.93 70.2344 1438.54 70.2344C1437.29 70.2344 1436.26 69.8828 1435.45 69.1797C1434.66 68.4688 1434.26 67.5703 1434.26 66.4844C1434.26 65.1641 1434.76 64.1406 1435.76 63.4141C1436.77 62.6797 1438.18 62.3125 1440 62.3125H1442.11V61.3164C1442.11 60.5586 1441.88 59.957 1441.43 59.5117C1440.98 59.0586 1440.31 58.832 1439.43 58.832C1438.65 58.832 1438 59.0273 1437.48 59.418C1436.96 59.8086 1436.7 60.2812 1436.7 60.8359H1434.52C1434.52 60.2031 1434.74 59.5938 1435.18 59.0078C1435.64 58.4141 1436.25 57.9453 1437.01 57.6016C1437.79 57.2578 1438.63 57.0859 1439.55 57.0859C1441.02 57.0859 1442.16 57.4531 1442.99 58.1875C1443.82 58.9141 1444.25 59.918 1444.28 61.1992V67.0352C1444.28 68.1992 1444.43 69.125 1444.72 69.8125V70H1442.45ZM1438.85 68.3477C1439.53 68.3477 1440.18 68.1719 1440.79 67.8203C1441.39 67.4688 1441.84 67.0117 1442.11 66.4492V63.8477H1440.41C1437.75 63.8477 1436.43 64.625 1436.43 66.1797C1436.43 66.8594 1436.65 67.3906 1437.11 67.7734C1437.56 68.1562 1438.14 68.3477 1438.85 68.3477ZM1441.03 55.4453H1439.17L1436.14 52H1438.76L1441.03 55.4453ZM1449.73 57.3203L1449.8 58.9141C1450.77 57.6953 1452.03 57.0859 1453.59 57.0859C1456.27 57.0859 1457.62 58.5977 1457.65 61.6211V70H1455.48V61.6094C1455.47 60.6953 1455.26 60.0195 1454.85 59.582C1454.44 59.1445 1453.8 58.9258 1452.94 58.9258C1452.23 58.9258 1451.62 59.1133 1451.09 59.4883C1450.55 59.8633 1450.14 60.3555 1449.84 60.9648V70H1447.68V57.3203H1449.73ZM1469.81 54.25V57.3203H1472.18V58.9961H1469.81V66.8594C1469.81 67.3672 1469.92 67.75 1470.13 68.0078C1470.34 68.2578 1470.7 68.3828 1471.21 68.3828C1471.46 68.3828 1471.8 68.3359 1472.24 68.2422V70C1471.67 70.1562 1471.11 70.2344 1470.57 70.2344C1469.61 70.2344 1468.88 69.9414 1468.38 69.3555C1467.89 68.7695 1467.64 67.9375 1467.64 66.8594V58.9961H1465.34V57.3203H1467.64V54.25H1469.81ZM1476.89 58.8555C1477.85 57.6758 1479.1 57.0859 1480.64 57.0859C1483.32 57.0859 1484.67 58.5977 1484.7 61.6211V70H1482.53V61.6094C1482.52 60.6953 1482.31 60.0195 1481.89 59.582C1481.49 59.1445 1480.85 58.9258 1479.98 58.9258C1479.28 58.9258 1478.66 59.1133 1478.13 59.4883C1477.6 59.8633 1477.19 60.3555 1476.89 60.9648V70H1474.72V52H1476.89V58.8555ZM1495.77 70C1495.64 69.75 1495.54 69.3047 1495.46 68.6641C1494.46 69.7109 1493.25 70.2344 1491.86 70.2344C1490.61 70.2344 1489.58 69.8828 1488.77 69.1797C1487.98 68.4688 1487.58 67.5703 1487.58 66.4844C1487.58 65.1641 1488.08 64.1406 1489.08 63.4141C1490.09 62.6797 1491.5 62.3125 1493.32 62.3125H1495.43V61.3164C1495.43 60.5586 1495.2 59.957 1494.75 59.5117C1494.3 59.0586 1493.63 58.832 1492.75 58.832C1491.97 58.832 1491.32 59.0273 1490.8 59.418C1490.28 59.8086 1490.02 60.2812 1490.02 60.8359H1487.84C1487.84 60.2031 1488.06 59.5938 1488.5 59.0078C1488.96 58.4141 1489.57 57.9453 1490.33 57.6016C1491.11 57.2578 1491.95 57.0859 1492.88 57.0859C1494.34 57.0859 1495.48 57.4531 1496.31 58.1875C1497.14 58.9141 1497.57 59.918 1497.6 61.1992V67.0352C1497.6 68.1992 1497.75 69.125 1498.04 69.8125V70H1495.77ZM1492.17 68.3477C1492.85 68.3477 1493.5 68.1719 1494.11 67.8203C1494.71 67.4688 1495.16 67.0117 1495.43 66.4492V63.8477H1493.73C1491.07 63.8477 1489.75 64.625 1489.75 66.1797C1489.75 66.8594 1489.97 67.3906 1490.43 67.7734C1490.88 68.1562 1491.46 68.3477 1492.17 68.3477ZM1494.35 55.4453H1492.49L1489.46 52H1492.08L1494.35 55.4453ZM1503.05 57.3203L1503.12 58.9141C1504.09 57.6953 1505.35 57.0859 1506.91 57.0859C1509.59 57.0859 1510.95 58.5977 1510.97 61.6211V70H1508.8V61.6094C1508.79 60.6953 1508.58 60.0195 1508.17 59.582C1507.76 59.1445 1507.12 58.9258 1506.26 58.9258C1505.55 58.9258 1504.94 59.1133 1504.41 59.4883C1503.88 59.8633 1503.46 60.3555 1503.16 60.9648V70H1501V57.3203H1503.05ZM1516.41 58.8555C1517.37 57.6758 1518.62 57.0859 1520.16 57.0859C1522.84 57.0859 1524.19 58.5977 1524.21 61.6211V70H1522.04V61.6094C1522.04 60.6953 1521.82 60.0195 1521.41 59.582C1521 59.1445 1520.37 58.9258 1519.5 58.9258C1518.8 58.9258 1518.18 59.1133 1517.65 59.4883C1517.12 59.8633 1516.7 60.3555 1516.41 60.9648V70H1514.24V52H1516.41V58.8555Z" fill="black"/>
</svg>
